<svg width="1251" height="319" viewBox="0 0 1251 319" fill="none" xmlns="http://www.w3.org/2000/svg">
<g filter="url(#filter0_f_7867_21832)">
<path d="M204.486 73.9394C201.957 73.582 196.194 74.1734 193.368 79.399C190.542 84.6244 193.39 90.063 195.168 92.1292C196.923 94.0621 202.501 97.7227 208.419 94.1488C209.885 93.2629 211.713 92.6022 213.785 85.6801L213.544 58.4424C213.144 61.4417 216.458 68.4765 225.891 69.3088" stroke="white" stroke-width="6" stroke-linecap="round" stroke-linejoin="round"/>
</g>
<g clip-path="url(#clip0_7867_21832)">
<g filter="url(#filter1_f_7867_21832)">
<path d="M1093.02 208.962L1092.99 208.955M1046.51 213.134C1049.9 200.498 1051.59 194.18 1056.57 191.306C1061.54 188.433 1067.86 190.126 1080.5 193.511C1093.13 196.897 1099.45 198.59 1102.33 203.567C1105.2 208.544 1103.51 214.862 1100.12 227.498C1096.73 240.134 1095.04 246.452 1090.06 249.325C1085.09 252.199 1078.77 250.506 1066.13 247.12C1053.5 243.734 1047.18 242.042 1044.31 237.064C1041.43 232.087 1043.13 225.769 1046.51 213.134ZM1086.01 223.718C1084.13 230.73 1076.93 234.892 1069.91 233.013C1062.9 231.134 1058.74 223.926 1060.62 216.914C1062.5 209.901 1069.71 205.74 1076.72 207.619C1083.73 209.498 1087.89 216.706 1086.01 223.718Z" stroke="white" stroke-width="6" stroke-linecap="round" stroke-linejoin="round"/>
</g>
</g>
<g opacity="0.2">
<mask id="path-3-inside-1_7867_21832" fill="white">
<path d="M150 244.079V277.518C147.766 279.935 145.463 282.353 143.071 284.725C140.769 287.007 138.399 289.244 135.961 291.39C133.614 293.514 131.177 295.548 128.694 297.513C126.369 299.321 123.999 301.083 121.584 302.732C119.282 304.337 116.89 305.828 114.497 307.251C112.128 308.652 109.69 309.94 107.207 311.115C104.883 312.222 102.535 313.261 100.12 314.142C97.7957 315.001 95.471 315.769 93.0785 316.424C91.2955 316.899 89.4674 317.328 87.6392 317.69C87.0072 317.825 86.3527 317.938 85.7207 318.028C83.4186 318.413 81.0713 318.684 78.7015 318.842C78.6563 318.864 78.6338 318.864 78.6112 318.864C77.6858 318.932 76.7379 318.955 75.7899 318.977C75.316 319 74.842 319 74.368 319C73.7812 319 73.1718 318.977 72.585 318.977C72.2465 318.955 71.9305 318.955 71.5919 318.932H71.5468C69.1769 318.819 66.7845 318.616 64.3695 318.254C64.3244 318.254 64.3018 318.232 64.2567 318.232C64.2341 318.209 64.2116 318.209 64.2116 318.209C61.8643 317.87 59.5396 317.373 57.26 316.786C57.2149 316.763 57.1697 316.763 57.1472 316.741C54.7773 316.153 52.4526 315.408 50.173 314.572C50.1279 314.549 50.0828 314.526 50.0376 314.526C47.6226 313.645 45.2302 312.629 42.8829 311.499C42.8378 311.476 42.7927 311.454 42.7475 311.431C40.3777 310.301 38.053 309.059 35.7734 307.726C35.7283 307.703 35.6831 307.658 35.638 307.635C33.2681 306.257 30.9434 304.766 28.6864 303.184C28.6413 303.139 28.5736 303.117 28.5284 303.071C26.0909 301.377 23.721 299.592 21.3963 297.762C21.3286 297.717 21.2835 297.671 21.2383 297.626C18.8685 295.728 16.5664 293.763 14.3094 291.729C14.2416 291.662 14.1965 291.616 14.1514 291.571C12.4586 290.057 10.811 288.544 9.18598 286.985L7.22239 284.906L7.04183 284.725L0 277.315V244.079L9.23112 253.794C18.6202 262.809 29.183 271.35 40.9645 277.315C48.232 280.997 55.9509 283.709 64.1213 284.929C79.988 287.301 94.7036 283.957 108.155 277.315C124.022 269.474 138.083 257.048 150 244.079ZM142.89 203.162L142.71 202.981V236.894L149.977 244.079V210.64L142.89 203.162ZM0 210.618V244.079L7.08697 236.894V203.23C4.64941 205.647 2.27957 208.132 0 210.618ZM13.9934 196.564V230.455L21.2609 224.581V190.441C18.7782 192.407 16.3632 194.441 13.9934 196.564ZM128.694 190.283C128.649 190.238 128.604 190.193 128.536 190.148V224.942C130.838 226.501 132.847 228.489 135.059 230.161C135.239 230.319 135.284 230.523 135.623 230.432V196.158C133.366 194.147 131.064 192.181 128.694 190.283ZM114.317 180.297C114.272 180.274 114.227 180.229 114.181 180.207V215.408L121.268 219.791V184.725C118.989 183.144 116.687 181.675 114.317 180.297ZM28.3704 185.222V219.61C30.7629 218.3 32.9522 216.605 35.4574 215.498V180.726C33.0424 182.127 30.6726 183.618 28.3704 185.222ZM99.9398 173.406C99.8947 173.383 99.8495 173.361 99.8044 173.361V208.855L104.251 210.618L107.072 211.747V176.433C104.747 175.304 102.355 174.287 99.9398 173.406ZM42.7249 176.863V211.77L45.6365 210.618L49.8119 208.968V173.835C47.3969 174.739 45.0497 175.756 42.7249 176.863ZM56.8989 171.531V206.732L64.1664 205.15V169.949C61.7063 170.356 59.2913 170.898 56.8989 171.531ZM85.7659 169.746C85.7433 169.746 85.7207 169.746 85.7207 169.723C85.6756 169.723 85.653 169.7 85.6079 169.7V205.399L92.6949 206.709V171.146C90.4379 170.559 88.1357 170.085 85.7659 169.746ZM71.276 169V204.676C73.5781 204.337 76.0608 204.427 78.3629 204.676V169H71.276ZM64.1213 233.189C58.1628 239.154 58.1628 248.801 64.1213 254.766C70.0797 260.731 79.7171 260.731 85.6756 254.766C91.6341 248.801 91.6341 239.154 85.6756 233.189C79.7397 227.247 70.0797 227.247 64.1213 233.189Z"/>
</mask>
<path d="M150 244.079H151V241.513L149.264 243.402L150 244.079ZM150 277.518L150.734 278.197L151 277.909V277.518H150ZM143.071 284.725L143.775 285.435L143.775 285.435L143.071 284.725ZM135.961 291.39L135.301 290.64L135.291 290.649L135.961 291.39ZM128.694 297.513L129.308 298.303L129.315 298.297L128.694 297.513ZM121.584 302.732L121.02 301.907L121.013 301.912L121.584 302.732ZM114.497 307.251L115.006 308.112L115.009 308.111L114.497 307.251ZM107.207 311.115L106.78 310.211L106.777 310.212L107.207 311.115ZM100.12 314.142L99.7776 313.203L99.7739 313.204L100.12 314.142ZM93.0785 316.424L93.3357 317.391L93.3427 317.389L93.0785 316.424ZM87.6392 317.69L87.4452 316.709L87.4373 316.71L87.4294 316.712L87.6392 317.69ZM85.7207 318.028L85.5792 317.039L85.5676 317.04L85.5562 317.042L85.7207 318.028ZM78.7015 318.842L78.6349 317.844L78.434 317.857L78.2539 317.948L78.7015 318.842ZM78.6112 318.864V317.864H78.5746L78.5381 317.867L78.6112 318.864ZM75.7899 318.977L75.7661 317.978L75.7542 317.978L75.7423 317.979L75.7899 318.977ZM72.585 318.977L72.5184 319.975L72.5517 319.977H72.585V318.977ZM71.5919 318.932L71.6585 317.934L71.6253 317.932H71.5919V318.932ZM71.5468 318.932L71.4992 319.931L71.523 319.932H71.5468V318.932ZM64.3695 318.254L64.5176 317.265L64.444 317.254H64.3695V318.254ZM64.2567 318.232L63.5492 318.939L63.8422 319.232H64.2567V318.232ZM64.2116 318.209L64.0687 319.199L64.1396 319.209L64.2113 319.209L64.2116 318.209ZM57.26 316.786L56.8124 317.68L56.9075 317.728L57.0105 317.754L57.26 316.786ZM57.1472 316.741L57.8546 316.034L57.6579 315.837L57.3878 315.77L57.1472 316.741ZM50.173 314.572L49.7254 315.466L49.7758 315.491L49.8287 315.51L50.173 314.572ZM50.0376 314.526L49.6948 315.466L49.8609 315.526H50.0376V314.526ZM42.8829 311.499L42.4353 312.393L42.4423 312.397L42.4493 312.4L42.8829 311.499ZM42.7475 311.431L43.1951 310.537L43.1865 310.533L43.1778 310.528L42.7475 311.431ZM35.7734 307.726L36.2782 306.862L36.2501 306.846L36.221 306.831L35.7734 307.726ZM35.638 307.635L35.1352 308.5L35.1623 308.516L35.1904 308.53L35.638 307.635ZM28.6864 303.184L27.9789 303.891L28.0408 303.953L28.1126 304.003L28.6864 303.184ZM28.5284 303.071L29.2359 302.365L29.1727 302.301L29.0992 302.25L28.5284 303.071ZM21.3963 297.762L22.0149 296.976L21.9841 296.952L21.9514 296.93L21.3963 297.762ZM21.2383 297.626L21.9458 296.92L21.9067 296.88L21.8634 296.846L21.2383 297.626ZM14.3094 291.729L13.6019 292.436L13.6205 292.455L13.64 292.472L14.3094 291.729ZM14.1514 291.571L14.8588 290.864L14.839 290.845L14.818 290.826L14.1514 291.571ZM9.18598 286.985L8.45904 287.671L8.47594 287.689L8.49369 287.706L9.18598 286.985ZM7.22239 284.906L7.94933 284.219L7.93973 284.209L7.92986 284.199L7.22239 284.906ZM7.04183 284.725L6.31691 285.414L6.32552 285.423L6.33436 285.432L7.04183 284.725ZM0 277.315H-1V277.714L-0.724921 278.003L0 277.315ZM9.23112 253.794L8.50618 254.483L8.52198 254.5L8.53853 254.516L9.23112 253.794ZM40.9645 277.315L41.4165 276.423L41.4162 276.422L40.9645 277.315ZM64.1213 284.929L64.2691 283.94L64.269 283.94L64.1213 284.929ZM108.155 277.315L108.598 278.211L108.598 278.211L108.155 277.315ZM142.89 203.162L143.616 202.474L143.607 202.464L143.598 202.455L142.89 203.162ZM142.71 202.981L143.417 202.274L141.71 200.565V202.981H142.71ZM142.71 236.894H141.71V237.312L142.007 237.605L142.71 236.894ZM149.977 244.079L149.274 244.79L150.977 246.474V244.079H149.977ZM149.977 210.64H150.977V210.242L150.703 209.952L149.977 210.64ZM0 210.618L-0.736953 209.942L-1 210.229V210.618H0ZM7.08697 236.894L7.79891 237.597L8.08697 237.304V236.894H7.08697ZM7.08697 203.23H8.08697V200.829L6.38279 202.52L7.08697 203.23ZM13.9934 196.564L13.326 195.82L12.9934 196.118V196.564H13.9934ZM13.9934 230.455H12.9934V232.549L14.622 231.233L13.9934 230.455ZM21.2609 224.581L21.8895 225.358L22.2609 225.058V224.581H21.2609ZM21.2609 190.441H22.2609V188.374L20.6402 189.657L21.2609 190.441ZM128.694 190.283L127.986 190.99L128.026 191.029L128.069 191.064L128.694 190.283ZM128.536 190.148L129.091 189.316L127.536 188.278V190.148H128.536ZM128.536 224.942H127.536V225.473L127.975 225.77L128.536 224.942ZM135.059 230.161L135.718 229.409L135.69 229.385L135.662 229.364L135.059 230.161ZM135.623 230.432L135.881 231.399L136.623 231.201V230.432H135.623ZM135.623 196.158H136.623V195.709L136.288 195.411L135.623 196.158ZM114.317 180.297L114.82 179.432L114.793 179.417L114.764 179.403L114.317 180.297ZM114.181 180.207L114.629 179.312L113.181 178.588V180.207H114.181ZM114.181 215.408H113.181V215.965L113.655 216.258L114.181 215.408ZM121.268 219.791L120.742 220.641L122.268 221.585V219.791H121.268ZM121.268 184.725H122.268V184.202L121.838 183.904L121.268 184.725ZM28.3704 185.222L27.7987 184.402L27.3704 184.7V185.222H28.3704ZM28.3704 219.61H27.3704V221.298L28.8508 220.487L28.3704 219.61ZM35.4574 215.498L35.8616 216.413L36.4574 216.149V215.498H35.4574ZM35.4574 180.726H36.4574V178.99L34.9557 179.861L35.4574 180.726ZM99.9398 173.406L99.4922 174.3L99.5433 174.326L99.597 174.345L99.9398 173.406ZM99.8044 173.361V172.361H98.8044V173.361H99.8044ZM99.8044 208.855H98.8044V209.535L99.4359 209.785L99.8044 208.855ZM104.251 210.618L104.622 209.689L104.619 209.688L104.251 210.618ZM107.072 211.747L106.7 212.676L108.072 213.225V211.747H107.072ZM107.072 176.433H108.072V175.807L107.509 175.534L107.072 176.433ZM42.7249 176.863L42.295 175.96L41.7249 176.231V176.863H42.7249ZM42.7249 211.77H41.7249V213.241L43.0929 212.7L42.7249 211.77ZM45.6365 210.618L45.2691 209.688L45.2685 209.688L45.6365 210.618ZM49.8119 208.968L50.1793 209.898L50.8119 209.649V208.968H49.8119ZM49.8119 173.835H50.8119V172.393L49.4614 172.898L49.8119 173.835ZM56.8989 171.531L56.6432 170.564L55.8989 170.761V171.531H56.8989ZM56.8989 206.732H55.8989V207.973L57.1115 207.709L56.8989 206.732ZM64.1664 205.15L64.3791 206.127L65.1664 205.956V205.15H64.1664ZM64.1664 169.949H65.1664V168.77L64.0033 168.962L64.1664 169.949ZM85.7659 169.746L85.9074 168.756L85.837 168.746H85.7659V169.746ZM85.7207 169.723H86.7207V168.723H85.7207V169.723ZM85.6079 169.7V168.7H84.6079V169.7H85.6079ZM85.6079 205.399H84.6079V206.231L85.4261 206.382L85.6079 205.399ZM92.6949 206.709L92.513 207.692L93.6949 207.911V206.709H92.6949ZM92.6949 171.146H93.6949V170.373L92.9467 170.179L92.6949 171.146ZM71.276 169V168H70.276V169H71.276ZM71.276 204.676H70.276V205.834L71.4216 205.665L71.276 204.676ZM78.3629 204.676L78.2556 205.67L79.3629 205.789V204.676H78.3629ZM78.3629 169H79.3629V168H78.3629V169ZM64.1213 233.189L63.4151 232.481L63.4138 232.482L64.1213 233.189ZM149 244.079V277.518H151V244.079H149ZM149.266 276.839C147.038 279.249 144.746 281.656 142.367 284.015L143.775 285.435C146.181 283.05 148.493 280.621 150.734 278.197L149.266 276.839ZM142.367 284.015C140.076 286.286 137.721 288.509 135.301 290.64L136.622 292.141C139.077 289.979 141.461 287.729 143.775 285.435L142.367 284.015ZM135.291 290.649C132.963 292.755 130.543 294.774 128.073 296.729L129.315 298.297C131.811 296.321 134.265 294.274 136.632 292.132L135.291 290.649ZM128.08 296.724C125.766 298.523 123.414 300.272 121.02 301.907L122.148 303.558C124.585 301.894 126.972 300.119 129.308 298.303L128.08 296.724ZM121.013 301.912C118.738 303.497 116.368 304.975 113.986 306.392L115.009 308.111C117.412 306.681 119.827 305.176 122.156 303.553L121.013 301.912ZM113.989 306.39C111.646 307.775 109.236 309.049 106.78 310.211L107.635 312.019C110.144 310.831 112.609 309.529 115.006 308.112L113.989 306.39ZM106.777 310.212C104.468 311.312 102.152 312.337 99.7776 313.203L100.463 315.082C102.919 314.186 105.297 313.132 107.637 312.018L106.777 310.212ZM99.7739 313.204C97.4707 314.055 95.1738 314.814 92.8144 315.46L93.3427 317.389C95.7681 316.725 98.1207 315.947 100.467 315.08L99.7739 313.204ZM92.8214 315.458C91.0574 315.927 89.2503 316.352 87.4452 316.709L87.8332 318.671C89.6844 318.305 91.5337 317.87 93.3357 317.391L92.8214 315.458ZM87.4294 316.712C86.8236 316.842 86.1921 316.951 85.5792 317.039L85.8623 319.018C86.5132 318.925 87.1909 318.808 87.8489 318.667L87.4294 316.712ZM85.5562 317.042C83.2874 317.421 80.9728 317.688 78.6349 317.844L78.7681 319.84C81.1698 319.679 83.5498 319.404 85.8853 319.015L85.5562 317.042ZM78.2539 317.948C78.2917 317.929 78.3596 317.9 78.4515 317.881C78.5439 317.863 78.6208 317.864 78.6112 317.864V319.864C78.6241 319.864 78.7236 319.866 78.8443 319.842C78.9643 319.818 79.0661 319.778 79.1491 319.736L78.2539 317.948ZM78.5381 317.867C77.6416 317.933 76.7186 317.955 75.7661 317.978L75.8138 319.977C76.7572 319.955 77.7301 319.932 78.6842 319.862L78.5381 317.867ZM75.7423 317.979C75.2961 318 74.846 318 74.368 318V320C74.8381 320 75.3358 320 75.8376 319.976L75.7423 317.979ZM74.368 318C74.0857 318 73.7962 317.995 73.4954 317.989C73.1981 317.983 72.8895 317.977 72.585 317.977V319.977C72.8674 319.977 73.1569 319.983 73.4576 319.989C73.755 319.994 74.0636 320 74.368 320V318ZM72.6516 317.98C72.4638 317.967 72.2843 317.961 72.123 317.955C71.9571 317.95 71.8092 317.945 71.6585 317.934L71.5253 319.93C71.7132 319.943 71.8926 319.949 72.054 319.954C72.2199 319.96 72.3677 319.965 72.5184 319.975L72.6516 317.98ZM71.5919 317.932H71.5468V319.932H71.5919V317.932ZM71.5944 317.933C69.2493 317.822 66.8915 317.621 64.5176 317.265L64.2215 319.243C66.6776 319.611 69.1046 319.817 71.4992 319.931L71.5944 317.933ZM64.3695 317.254C64.4453 317.254 64.5115 317.264 64.5642 317.277C64.5886 317.282 64.6077 317.288 64.6187 317.291C64.6282 317.294 64.6356 317.297 64.6295 317.294C64.6271 317.294 64.6112 317.288 64.5932 317.283C64.5735 317.277 64.5456 317.269 64.512 317.261C64.441 317.245 64.355 317.232 64.2567 317.232V319.232C64.1809 319.232 64.1147 319.222 64.0621 319.21C64.0376 319.204 64.0185 319.199 64.0075 319.195C63.9981 319.192 63.9907 319.19 63.9968 319.192C63.9991 319.193 64.015 319.198 64.0331 319.203C64.0527 319.209 64.0806 319.217 64.1143 319.225C64.1852 319.242 64.2712 319.254 64.3695 319.254V317.254ZM64.9642 317.525C64.8308 317.392 64.6806 317.31 64.5423 317.264C64.475 317.241 64.4123 317.228 64.3572 317.22C64.3296 317.216 64.3036 317.213 64.2794 317.212C64.2673 317.211 64.2556 317.21 64.2443 317.21C64.2387 317.21 64.2331 317.209 64.2277 317.209C64.225 317.209 64.2223 317.209 64.2197 317.209C64.2183 317.209 64.217 317.209 64.2157 317.209C64.215 317.209 64.2144 317.209 64.2137 317.209C64.2134 317.209 64.2129 317.209 64.2127 317.209C64.2123 317.209 64.2118 317.209 64.2116 318.209C64.2113 319.209 64.2109 319.209 64.2104 319.209C64.2102 319.209 64.2097 319.209 64.2094 319.209C64.2087 319.209 64.2081 319.209 64.2074 319.209C64.2061 319.209 64.2048 319.209 64.2035 319.209C64.2008 319.209 64.1982 319.209 64.1955 319.209C64.1902 319.209 64.1848 319.209 64.1793 319.209C64.1684 319.208 64.1572 319.208 64.1458 319.207C64.1229 319.206 64.0988 319.203 64.0737 319.199C64.0236 319.192 63.9679 319.18 63.909 319.161C63.7877 319.12 63.66 319.049 63.5492 318.939L64.9642 317.525ZM64.3545 317.219C62.051 316.887 59.7627 316.398 57.5096 315.817L57.0105 317.754C59.3165 318.348 61.6776 318.854 64.0687 319.199L64.3545 317.219ZM57.7076 315.892C57.6371 315.856 57.5753 315.834 57.5339 315.821C57.5133 315.814 57.496 315.809 57.4855 315.806C57.4803 315.805 57.4756 315.803 57.4733 315.803C57.4703 315.802 57.4701 315.802 57.4702 315.802C57.4706 315.802 57.4732 315.803 57.477 315.804C57.4809 315.805 57.487 315.807 57.4947 315.809C57.5094 315.814 57.5352 315.823 57.5671 315.837C57.6287 315.864 57.7423 315.921 57.8546 316.034L56.4397 317.447C56.5633 317.571 56.691 317.637 56.7688 317.671C56.8424 317.703 56.9067 317.721 56.92 317.725C56.9516 317.734 56.9296 317.727 56.9191 317.724C56.8996 317.718 56.8604 317.704 56.8124 317.68L57.7076 315.892ZM57.3878 315.77C55.0609 315.193 52.7716 314.459 50.5173 313.633L49.8287 315.51C52.1336 316.356 54.4937 317.113 56.9066 317.711L57.3878 315.77ZM50.6206 313.677C50.6075 313.671 50.5372 313.635 50.4567 313.604C50.372 313.573 50.2241 313.526 50.0376 313.526V315.526C49.8962 315.526 49.7935 315.492 49.7539 315.477C49.7186 315.464 49.6934 315.45 49.7254 315.466L50.6206 313.677ZM50.3804 313.587C47.9981 312.718 45.636 311.714 43.3166 310.598L42.4493 312.4C44.8244 313.543 47.2471 314.573 49.6948 315.466L50.3804 313.587ZM43.3305 310.605C43.3079 310.593 43.2854 310.582 43.2628 310.571C43.2402 310.559 43.2177 310.548 43.1951 310.537L42.2999 312.325C42.3225 312.337 42.3451 312.348 42.3677 312.359C42.3902 312.371 42.4128 312.382 42.4353 312.393L43.3305 310.605ZM43.1778 310.528C40.8357 309.412 38.5359 308.183 36.2782 306.862L35.2686 308.589C37.57 309.935 39.9196 311.191 42.3172 312.334L43.1778 310.528ZM36.221 306.831C36.2664 306.854 36.2971 306.875 36.3065 306.881C36.3151 306.887 36.3205 306.892 36.3061 306.881C36.2979 306.875 36.27 306.854 36.2388 306.832C36.2068 306.81 36.1536 306.775 36.0856 306.741L35.1904 308.53C35.1449 308.507 35.1143 308.486 35.1049 308.48C35.0962 308.474 35.0909 308.469 35.1053 308.48C35.1134 308.486 35.1414 308.508 35.1726 308.529C35.2046 308.551 35.2578 308.586 35.3258 308.62L36.221 306.831ZM36.1407 306.771C33.796 305.407 31.495 303.931 29.2603 302.365L28.1126 304.003C30.3918 305.6 32.7402 307.107 35.1352 308.5L36.1407 306.771ZM29.3939 302.478C29.3249 302.409 29.259 302.36 29.2141 302.329C29.1719 302.3 29.1319 302.276 29.1223 302.271C29.1037 302.259 29.1155 302.266 29.1309 302.277C29.149 302.289 29.1895 302.318 29.2359 302.365L27.821 303.778C27.89 303.847 27.9559 303.896 28.0007 303.927C28.0429 303.956 28.083 303.979 28.0925 303.985C28.1112 303.996 28.0994 303.99 28.084 303.979C28.0659 303.967 28.0254 303.938 27.9789 303.891L29.3939 302.478ZM29.0992 302.25C26.6822 300.57 24.3287 298.798 22.0149 296.976L20.7778 298.548C23.1134 300.386 25.4996 302.184 27.9576 303.892L29.0992 302.25ZM21.9514 296.93C21.956 296.933 21.9607 296.937 21.9651 296.94C21.9695 296.943 21.9724 296.946 21.9736 296.947C21.9746 296.948 21.9735 296.947 21.9691 296.943C21.9668 296.94 21.964 296.938 21.96 296.934C21.956 296.93 21.9517 296.925 21.9458 296.92L20.5309 298.333C20.5771 298.379 20.6832 298.488 20.8412 298.594L21.9514 296.93ZM21.8634 296.846C19.5099 294.961 17.2226 293.008 14.9787 290.986L13.64 292.472C15.9102 294.518 18.227 296.496 20.6132 298.407L21.8634 296.846ZM15.0168 291.023C14.983 290.989 14.9548 290.96 14.9294 290.935C14.904 290.91 14.8814 290.887 14.8588 290.864L13.4439 292.278C13.4665 292.301 13.489 292.323 13.5144 292.349C13.5398 292.374 13.568 292.402 13.6019 292.436L15.0168 291.023ZM14.818 290.826C13.1318 289.318 11.493 287.812 9.87826 286.263L8.49369 287.706C10.129 289.275 11.7855 290.797 13.4848 292.317L14.818 290.826ZM9.91291 286.298L7.94933 284.219L6.49545 285.593L8.45904 287.671L9.91291 286.298ZM7.92986 284.199L7.7493 284.019L6.33436 285.432L6.51492 285.613L7.92986 284.199ZM7.76675 284.036L0.724921 276.626L-0.724921 278.003L6.31691 285.414L7.76675 284.036ZM1 277.315V244.079H-1V277.315H1ZM-0.724941 244.768L8.50618 254.483L9.95606 253.106L0.724941 243.39L-0.724941 244.768ZM8.53853 254.516C17.9649 263.566 28.6089 272.18 40.5128 278.207L41.4162 276.422C29.7571 270.52 19.2755 262.052 9.9237 253.073L8.53853 254.516ZM40.5125 278.207C47.8579 281.929 55.6793 284.679 63.9736 285.918L64.269 283.94C56.2226 282.738 48.6062 280.066 41.4165 276.423L40.5125 278.207ZM63.9734 285.918C80.0803 288.326 95.0019 284.925 108.598 278.211L107.713 276.418C94.4053 282.989 79.8956 286.276 64.2691 283.94L63.9734 285.918ZM108.598 278.211C124.62 270.294 138.778 257.769 150.736 244.756L149.264 243.402C137.388 256.327 123.424 268.655 107.712 276.418L108.598 278.211ZM143.598 202.455L143.417 202.274L142.002 203.688L142.183 203.869L143.598 202.455ZM141.71 202.981V236.894H143.71V202.981H141.71ZM142.007 237.605L149.274 244.79L150.68 243.368L143.413 236.183L142.007 237.605ZM150.977 244.079V210.64H148.977V244.079H150.977ZM150.703 209.952L143.616 202.474L142.165 203.85L149.252 211.328L150.703 209.952ZM-1 210.618V244.079H1V210.618H-1ZM0.711938 244.781L7.79891 237.597L6.37503 236.192L-0.711938 243.377L0.711938 244.781ZM8.08697 236.894V203.23H6.08697V236.894H8.08697ZM6.38279 202.52C3.93219 204.95 1.55135 207.447 -0.736953 209.942L0.736953 211.294C3.00778 208.818 5.36663 206.344 7.79115 203.94L6.38279 202.52ZM12.9934 196.564V230.455H14.9934V196.564H12.9934ZM14.622 231.233L21.8895 225.358L20.6323 223.803L13.3648 229.677L14.622 231.233ZM22.2609 224.581V190.441H20.2609V224.581H22.2609ZM20.6402 189.657C18.1417 191.636 15.7111 193.682 13.326 195.82L14.6608 197.309C17.0153 195.199 19.4148 193.179 21.8816 191.226L20.6402 189.657ZM129.401 189.577C129.355 189.53 129.249 189.421 129.091 189.316L127.981 190.98C127.976 190.976 127.972 190.973 127.967 190.97C127.963 190.966 127.96 190.964 127.959 190.963C127.958 190.962 127.959 190.963 127.963 190.967C127.965 190.969 127.968 190.972 127.972 190.976C127.976 190.98 127.981 190.984 127.986 190.99L129.401 189.577ZM127.536 190.148V224.942H129.536V190.148H127.536ZM127.975 225.77C129.079 226.518 130.122 227.375 131.186 228.273C132.238 229.162 133.322 230.102 134.456 230.959L135.662 229.364C134.584 228.549 133.557 227.658 132.477 226.745C131.408 225.842 130.295 224.926 129.097 224.114L127.975 225.77ZM134.4 230.914C134.386 230.902 134.38 230.893 134.423 230.942C134.448 230.971 134.542 231.081 134.667 231.179C134.815 231.294 135.011 231.398 135.258 231.438C135.491 231.475 135.704 231.446 135.881 231.399L135.365 229.466C135.372 229.464 135.453 229.443 135.577 229.463C135.639 229.473 135.702 229.492 135.761 229.52C135.82 229.546 135.864 229.577 135.896 229.601C135.926 229.624 135.944 229.643 135.947 229.646C135.949 229.648 135.947 229.646 135.928 229.625C135.901 229.594 135.821 229.5 135.718 229.409L134.4 230.914ZM136.623 230.432V196.158H134.623V230.432H136.623ZM136.288 195.411C134.021 193.391 131.705 191.414 129.319 189.503L128.069 191.064C130.422 192.949 132.711 194.903 134.958 196.904L136.288 195.411ZM114.764 179.403C114.81 179.425 114.841 179.446 114.85 179.453C114.859 179.459 114.864 179.463 114.85 179.452C114.841 179.446 114.813 179.425 114.782 179.403C114.75 179.381 114.697 179.346 114.629 179.312L113.734 181.101C113.688 181.078 113.658 181.057 113.648 181.051C113.64 181.045 113.634 181.041 113.649 181.051C113.657 181.058 113.685 181.079 113.716 181.1C113.748 181.122 113.801 181.157 113.869 181.191L114.764 179.403ZM113.181 180.207V215.408H115.181V180.207H113.181ZM113.655 216.258L120.742 220.641L121.794 218.94L114.707 214.557L113.655 216.258ZM122.268 219.791V184.725H120.268V219.791H122.268ZM121.838 183.904C119.538 182.307 117.213 180.825 114.82 179.432L113.814 181.161C116.16 182.526 118.44 183.98 120.698 185.547L121.838 183.904ZM27.3704 185.222V219.61H29.3704V185.222H27.3704ZM28.8508 220.487C30.0808 219.813 31.2671 219.036 32.4022 218.325C33.5548 217.604 34.678 216.936 35.8616 216.413L35.0532 214.583C33.7315 215.167 32.5075 215.9 31.341 216.63C30.1571 217.371 29.0525 218.096 27.89 218.733L28.8508 220.487ZM36.4574 215.498V180.726H34.4574V215.498H36.4574ZM34.9557 179.861C32.52 181.274 30.1264 182.78 27.7987 184.402L28.9422 186.043C31.2188 184.456 33.5649 182.98 35.9592 181.591L34.9557 179.861ZM100.387 172.512C100.374 172.505 100.304 172.469 100.224 172.439C100.139 172.407 99.991 172.361 99.8044 172.361V174.361C99.663 174.361 99.5602 174.326 99.5206 174.311C99.4853 174.298 99.4601 174.284 99.4922 174.3L100.387 172.512ZM98.8044 173.361V208.855H100.804V173.361H98.8044ZM99.4359 209.785L103.882 211.547L104.619 209.688L100.173 207.926L99.4359 209.785ZM103.879 211.546L106.7 212.676L107.444 210.819L104.622 209.689L103.879 211.546ZM108.072 211.747V176.433H106.072V211.747H108.072ZM107.509 175.534C105.154 174.39 102.73 173.359 100.283 172.466L99.597 174.345C101.979 175.214 104.34 176.218 106.635 177.333L107.509 175.534ZM41.7249 176.863V211.77H43.7249V176.863H41.7249ZM43.0929 212.7L46.0045 211.548L45.2685 209.688L42.357 210.84L43.0929 212.7ZM46.0039 211.548L50.1793 209.898L49.4445 208.038L45.2691 209.688L46.0039 211.548ZM50.8119 208.968V173.835H48.8119V208.968H50.8119ZM49.4614 172.898C47.015 173.814 44.641 174.843 42.295 175.96L43.1549 177.765C45.4583 176.669 47.7788 175.664 50.1624 174.772L49.4614 172.898ZM55.8989 171.531V206.732H57.8989V171.531H55.8989ZM57.1115 207.709L64.3791 206.127L63.9538 204.173L56.6862 205.754L57.1115 207.709ZM65.1664 205.15V169.949H63.1664V205.15H65.1664ZM64.0033 168.962C61.5061 169.375 59.0597 169.925 56.6432 170.564L57.1545 172.497C59.5229 171.871 61.9065 171.336 64.3295 170.936L64.0033 168.962ZM85.7659 168.746C85.7531 168.746 85.7819 168.745 85.8159 168.747C85.8474 168.75 85.939 168.757 86.0514 168.794C86.1696 168.834 86.3595 168.923 86.5143 169.123C86.6757 169.33 86.7207 169.556 86.7207 169.723H84.7207C84.7207 169.901 84.7686 170.136 84.935 170.35C85.0947 170.555 85.2916 170.649 85.4183 170.691C85.5391 170.732 85.6406 170.74 85.6827 170.743C85.708 170.745 85.7289 170.745 85.7416 170.745C85.7536 170.746 85.7645 170.746 85.7659 170.746V168.746ZM85.7207 168.723C85.7966 168.723 85.8628 168.733 85.9155 168.745C85.94 168.751 85.9591 168.756 85.9701 168.76C85.9795 168.763 85.9869 168.765 85.9808 168.763C85.9785 168.762 85.9626 168.757 85.9445 168.751C85.9249 168.745 85.8969 168.737 85.8633 168.73C85.7923 168.713 85.7063 168.7 85.6079 168.7V170.7C85.532 170.7 85.4658 170.69 85.4131 170.678C85.3886 170.673 85.3695 170.667 85.3585 170.664C85.3491 170.661 85.3417 170.658 85.3478 170.66C85.3502 170.661 85.366 170.666 85.3841 170.672C85.4037 170.678 85.4317 170.686 85.4653 170.694C85.5363 170.71 85.6223 170.723 85.7207 170.723V168.723ZM84.6079 169.7V205.399H86.6079V169.7H84.6079ZM85.4261 206.382L92.513 207.692L92.8767 205.726L85.7897 204.415L85.4261 206.382ZM93.6949 206.709V171.146H91.6949V206.709H93.6949ZM92.9467 170.179C90.6562 169.582 88.3172 169.1 85.9074 168.756L85.6243 170.736C87.9543 171.069 90.2196 171.535 92.443 172.114L92.9467 170.179ZM70.276 169V204.676H72.276V169H70.276ZM71.4216 205.665C73.606 205.343 75.9949 205.426 78.2556 205.67L78.4703 203.681C76.1267 203.428 73.5501 203.33 71.1303 203.686L71.4216 205.665ZM79.3629 204.676V169H77.3629V204.676H79.3629ZM78.3629 168H71.276V170H78.3629V168ZM63.4138 232.482C57.0653 238.837 57.0653 249.117 63.4138 255.473L64.8288 254.059C59.2603 248.485 59.2603 239.47 64.8288 233.896L63.4138 232.482ZM63.4138 255.473C69.7629 261.828 80.034 261.828 86.3831 255.473L84.9681 254.059C79.4002 259.633 70.3966 259.633 64.8288 254.059L63.4138 255.473ZM86.3831 255.473C92.7316 249.117 92.7316 238.837 86.3831 232.482L84.9681 233.896C90.5366 239.47 90.5366 248.485 84.9681 254.059L86.3831 255.473ZM86.3831 232.482C80.0558 226.148 69.7632 226.15 63.4151 232.481L64.8274 233.897C70.3963 228.343 79.4236 228.345 84.9681 233.896L86.3831 232.482Z" fill="white" mask="url(#path-3-inside-1_7867_21832)"/>
</g>
<g opacity="0.4">
<mask id="path-5-inside-2_7867_21832" fill="white">
<path d="M1222.11 105.509L1209.51 127.33C1207.15 128.066 1204.73 128.776 1202.28 129.423C1199.92 130.045 1197.53 130.611 1195.13 131.094C1192.8 131.595 1190.44 132.004 1188.08 132.351C1185.88 132.655 1183.67 132.912 1181.47 133.079C1179.37 133.258 1177.24 133.33 1175.14 133.357C1173.07 133.379 1170.99 133.301 1168.93 133.132C1167 132.978 1165.07 132.772 1163.17 132.437C1161.33 132.122 1159.52 131.747 1157.71 131.274C1156.37 130.911 1155.01 130.503 1153.68 130.05C1153.22 129.9 1152.75 129.727 1152.31 129.548C1150.66 128.931 1149.02 128.224 1147.42 127.434C1147.38 127.432 1147.37 127.424 1147.35 127.415C1146.72 127.111 1146.09 126.768 1145.47 126.426C1145.15 126.262 1144.84 126.083 1144.53 125.905C1144.15 125.684 1143.76 125.439 1143.38 125.218C1143.16 125.076 1142.96 124.957 1142.74 124.815L1142.72 124.798C1141.21 123.831 1139.73 122.797 1138.29 121.651C1138.26 121.634 1138.25 121.611 1138.22 121.594C1138.22 121.571 1138.2 121.562 1138.2 121.562C1136.8 120.457 1135.47 119.257 1134.2 118.014C1134.18 117.983 1134.15 117.966 1134.14 117.942C1132.82 116.666 1131.58 115.304 1130.41 113.899C1130.39 113.868 1130.37 113.836 1130.34 113.819C1129.09 112.334 1127.92 110.769 1126.81 109.147C1126.79 109.116 1126.77 109.084 1126.75 109.052C1125.63 107.422 1124.58 105.735 1123.59 104.007C1123.57 103.975 1123.56 103.928 1123.54 103.897C1122.51 102.104 1121.56 100.255 1120.68 98.373C1120.67 98.3265 1120.63 98.2862 1120.62 98.2397C1119.67 96.2155 1118.79 94.1579 1117.96 92.0877C1117.94 92.0327 1117.93 91.9862 1117.91 91.9397C1117.08 89.8084 1116.32 87.6583 1115.61 85.481C1115.59 85.4112 1115.58 85.3647 1115.57 85.3182C1115.03 83.6926 1114.53 82.084 1114.06 80.4544L1113.56 78.3582L1113.51 78.1722L1111.71 70.683L1124.23 48.9945L1126.59 58.8124C1129.32 68.2327 1133 77.7856 1138.44 86.1169C1141.79 91.2583 1145.81 95.9358 1150.68 99.8103C1160.14 107.336 1171 110.699 1182.28 111.432C1195.59 112.294 1209.45 109.482 1222.11 105.509ZM1232.89 76.1288L1232.84 75.9428L1220.06 98.0737L1222.1 105.5L1234.7 83.6792L1232.89 76.1288ZM1136.83 27.1586L1124.23 48.9945L1131.56 46.976L1144.24 25.0074C1141.74 25.6666 1139.26 26.3956 1136.83 27.1586ZM1151.26 23.2599L1138.49 45.376L1145.45 44.2807L1158.31 22.0024C1155.95 22.3498 1153.61 22.7669 1151.26 23.2599ZM1228.48 62.376C1228.47 62.3295 1228.45 62.283 1228.43 62.228L1215.32 84.9338C1216.23 86.8185 1216.79 88.8728 1217.61 90.7972C1217.67 90.9685 1217.62 91.1182 1217.87 91.1868L1230.79 68.82C1230.07 66.6575 1229.31 64.5074 1228.48 62.376ZM1222.86 50.4424C1222.84 50.4106 1222.83 50.3641 1222.8 50.3324L1209.54 73.3036L1212.51 78.8341L1225.73 55.9513C1224.83 54.0603 1223.89 52.2346 1222.86 50.4424ZM1164.92 21.2752L1151.96 43.7156C1154.02 43.7618 1156.08 43.4809 1158.13 43.7023L1171.24 21.0112C1169.13 21.0155 1167.02 21.0957 1164.92 21.2752ZM1216.07 40.5287C1216.05 40.4969 1216.03 40.4652 1216 40.4482L1202.63 63.6111L1204.87 66.4363L1206.28 68.2365L1219.59 45.1915C1218.49 43.5784 1217.32 42.0136 1216.07 40.5287ZM1177.43 21.2281L1164.28 44.0077L1166.62 44.3527L1169.96 44.8495L1183.2 21.9225C1181.28 21.6024 1179.37 21.3815 1177.43 21.2281ZM1188.69 23.0887L1175.43 46.06L1180.77 47.766L1194.03 24.7948C1192.27 24.1333 1190.49 23.5773 1188.69 23.0887ZM1208.2 32.7999C1208.19 32.7914 1208.17 32.7829 1208.18 32.7682C1208.15 32.7512 1208.15 32.7279 1208.12 32.7109L1194.67 56.0065L1198.8 59.5318L1212.2 36.3246C1210.94 35.091 1209.62 33.914 1208.2 32.7999ZM1199.03 26.8541L1185.59 50.135C1187.22 50.7812 1188.8 51.7756 1190.21 52.8051L1203.65 29.5242L1199.03 26.8541ZM1170.17 66.0464C1164.04 67.6939 1160.4 73.9896 1162.05 80.127C1163.69 86.2643 1169.98 89.8953 1176.11 88.2478C1182.25 86.6003 1185.88 80.3046 1184.24 74.1672C1182.61 68.0531 1176.3 64.4136 1170.17 66.0464Z"/>
</mask>
<path d="M1222.11 105.509L1222.98 106.009L1224.26 103.787L1221.81 104.555L1222.11 105.509ZM1209.51 127.33L1209.81 128.285L1210.19 128.169L1210.38 127.83L1209.51 127.33ZM1202.28 129.423L1202.53 130.39L1202.53 130.39L1202.28 129.423ZM1195.13 131.094L1194.93 130.113L1194.92 130.116L1195.13 131.094ZM1188.08 132.351L1188.21 133.342L1188.22 133.341L1188.08 132.351ZM1181.47 133.079L1181.4 132.081L1181.39 132.082L1181.47 133.079ZM1175.14 133.357L1175.15 134.357L1175.16 134.357L1175.14 133.357ZM1168.93 133.132L1169.01 132.135L1169.01 132.135L1168.93 133.132ZM1163.17 132.437L1163.34 131.453L1163.34 131.452L1163.17 132.437ZM1157.71 131.274L1157.45 132.239L1157.46 132.241L1157.71 131.274ZM1153.68 130.05L1154.01 129.103L1154 129.101L1153.99 129.098L1153.68 130.05ZM1152.31 129.548L1152.68 128.62L1152.67 128.616L1152.66 128.612L1152.31 129.548ZM1147.42 127.434L1147.86 126.537L1147.68 126.448L1147.48 126.436L1147.42 127.434ZM1147.35 127.415L1147.85 126.549L1147.82 126.531L1147.79 126.515L1147.35 127.415ZM1145.47 126.426L1145.95 125.548L1145.94 125.542L1145.93 125.537L1145.47 126.426ZM1143.38 125.218L1142.82 126.049L1142.85 126.068L1142.88 126.084L1143.38 125.218ZM1142.74 124.815L1143.3 123.984L1143.27 123.965L1143.24 123.949L1142.74 124.815ZM1142.72 124.798L1142.17 125.639L1142.19 125.652L1142.22 125.664L1142.72 124.798ZM1138.29 121.651L1138.91 120.869L1138.85 120.822L1138.79 120.785L1138.29 121.651ZM1138.22 121.594L1137.26 121.852L1137.36 122.253L1137.72 122.46L1138.22 121.594ZM1138.2 121.562L1137.58 122.348L1137.64 122.392L1137.7 122.428L1138.2 121.562ZM1134.2 118.014L1133.37 118.565L1133.42 118.654L1133.5 118.728L1134.2 118.014ZM1134.14 117.942L1135.11 117.684L1135.04 117.415L1134.84 117.222L1134.14 117.942ZM1130.41 113.899L1129.58 114.45L1129.61 114.497L1129.64 114.54L1130.41 113.899ZM1130.34 113.819L1129.57 114.461L1129.69 114.596L1129.84 114.685L1130.34 113.819ZM1126.81 109.147L1125.98 109.698L1125.98 109.705L1125.98 109.711L1126.81 109.147ZM1126.75 109.052L1127.58 108.502L1127.58 108.494L1127.57 108.486L1126.75 109.052ZM1123.59 104.007L1124.46 103.511L1124.45 103.483L1124.43 103.456L1123.59 104.007ZM1123.54 103.897L1122.67 104.394L1122.69 104.421L1122.7 104.447L1123.54 103.897ZM1120.68 98.373L1119.71 98.6313L1119.74 98.7159L1119.77 98.7952L1120.68 98.373ZM1120.62 98.2397L1121.58 97.9814L1121.56 97.895L1121.52 97.814L1120.62 98.2397ZM1117.96 92.0877L1118.89 91.7166L1118.88 91.6801L1118.86 91.645L1117.96 92.0877ZM1117.91 91.9397L1118.88 91.6814L1118.86 91.6279L1118.84 91.5763L1117.91 91.9397ZM1115.61 85.481L1114.65 85.7393L1114.65 85.7647L1114.66 85.7897L1115.61 85.481ZM1115.57 85.3182L1116.54 85.0599L1116.53 85.0327L1116.52 85.006L1115.57 85.3182ZM1114.06 80.4544L1113.08 80.6857L1113.09 80.7096L1113.1 80.7332L1114.06 80.4544ZM1113.56 78.3582L1114.53 78.1269L1114.53 78.1133L1114.52 78.0998L1113.56 78.3582ZM1113.51 78.1722L1112.54 78.4063L1112.54 78.4184L1112.54 78.4305L1113.51 78.1722ZM1111.71 70.683L1110.84 70.183L1110.64 70.5289L1110.73 70.9171L1111.71 70.683ZM1126.59 58.8124L1125.62 59.0465L1125.62 59.0688L1125.63 59.0908L1126.59 58.8124ZM1138.44 86.1169L1139.28 85.5704L1139.28 85.5701L1138.44 86.1169ZM1150.68 99.8103L1151.3 99.0277L1151.3 99.0276L1150.68 99.8103ZM1182.28 111.432L1182.22 112.43L1182.22 112.43L1182.28 111.432ZM1232.89 76.1288L1233.86 75.896L1233.86 75.8832L1233.86 75.8705L1232.89 76.1288ZM1232.84 75.9428L1233.81 75.6845L1233.18 73.3505L1231.97 75.4428L1232.84 75.9428ZM1220.06 98.0737L1219.2 97.5737L1218.99 97.9353L1219.1 98.338L1220.06 98.0737ZM1222.1 105.5L1221.13 105.765L1221.77 108.074L1222.96 106L1222.1 105.5ZM1234.7 83.6792L1235.56 84.1792L1235.76 83.834L1235.67 83.4464L1234.7 83.6792ZM1136.83 27.1586L1136.53 26.2047L1136.16 26.3215L1135.97 26.6586L1136.83 27.1586ZM1131.56 46.976L1131.82 47.9401L1132.22 47.8313L1132.43 47.476L1131.56 46.976ZM1144.24 25.0074L1145.11 25.5074L1146.31 23.4287L1143.99 24.0404L1144.24 25.0074ZM1151.26 23.2599L1151.06 22.2813L1150.62 22.3731L1150.4 22.7599L1151.26 23.2599ZM1138.49 45.376L1137.63 44.876L1136.58 46.6896L1138.65 46.3639L1138.49 45.376ZM1145.45 44.2807L1145.6 45.2685L1146.08 45.1943L1146.31 44.7807L1145.45 44.2807ZM1158.31 22.0024L1159.18 22.5024L1160.21 20.7122L1158.17 21.0131L1158.31 22.0024ZM1228.48 62.376L1227.51 62.6343L1227.53 62.6878L1227.55 62.7394L1228.48 62.376ZM1228.43 62.228L1229.32 61.7852L1228.49 60.1089L1227.56 61.728L1228.43 62.228ZM1215.32 84.9338L1214.45 84.4338L1214.19 84.8933L1214.42 85.3706L1215.32 84.9338ZM1217.61 90.7972L1218.55 90.4752L1218.54 90.4411L1218.53 90.4079L1217.61 90.7972ZM1217.87 91.1868L1217.61 92.1524L1218.35 92.3519L1218.74 91.6868L1217.87 91.1868ZM1230.79 68.82L1231.65 69.32L1231.88 68.9317L1231.74 68.506L1230.79 68.82ZM1222.86 50.4424L1223.73 49.9451L1223.71 49.9179L1223.69 49.8917L1222.86 50.4424ZM1222.8 50.3324L1223.64 49.7817L1222.75 48.4305L1221.94 49.8324L1222.8 50.3324ZM1209.54 73.3036L1208.68 72.8036L1208.4 73.2863L1208.66 73.7772L1209.54 73.3036ZM1212.51 78.8341L1211.63 79.3076L1212.48 80.888L1213.38 79.3341L1212.51 78.8341ZM1225.73 55.9513L1226.59 56.4513L1226.85 55.9981L1226.63 55.5248L1225.73 55.9513ZM1164.92 21.2752L1164.83 20.2788L1164.31 20.3231L1164.05 20.7752L1164.92 21.2752ZM1151.96 43.7156L1151.09 43.2156L1150.25 44.6774L1151.94 44.7154L1151.96 43.7156ZM1158.13 43.7023L1158.03 44.6965L1158.67 44.7664L1159 44.2023L1158.13 43.7023ZM1171.24 21.0112L1172.1 21.5112L1172.97 20.0077L1171.23 20.0112L1171.24 21.0112ZM1216.07 40.5287L1215.24 41.0793L1215.27 41.127L1215.31 41.1709L1216.07 40.5287ZM1216 40.4482L1216.5 39.5822L1215.64 39.0822L1215.14 39.9482L1216 40.4482ZM1202.63 63.6111L1201.76 63.1111L1201.42 63.6994L1201.84 64.232L1202.63 63.6111ZM1204.87 66.4363L1205.65 65.8182L1205.65 65.8155L1204.87 66.4363ZM1206.28 68.2365L1205.5 68.8546L1206.41 70.0161L1207.15 68.7365L1206.28 68.2365ZM1219.59 45.1915L1220.45 45.6915L1220.77 45.1495L1220.41 44.6311L1219.59 45.1915ZM1177.43 21.2281L1177.51 20.2312L1176.88 20.1813L1176.57 20.7281L1177.43 21.2281ZM1164.28 44.0077L1163.42 43.5077L1162.68 44.7818L1164.14 44.9969L1164.28 44.0077ZM1166.62 44.3527L1166.76 43.3635L1166.76 43.3634L1166.62 44.3527ZM1169.96 44.8495L1169.82 45.8387L1170.49 45.9386L1170.83 45.3495L1169.96 44.8495ZM1183.2 21.9225L1184.06 22.4225L1184.79 21.1737L1183.36 20.9362L1183.2 21.9225ZM1188.69 23.0887L1188.95 22.1236L1188.21 21.9219L1187.83 22.5887L1188.69 23.0887ZM1175.43 46.06L1174.56 45.56L1173.94 46.6347L1175.13 47.0125L1175.43 46.06ZM1180.77 47.766L1180.46 48.7185L1181.23 48.9638L1181.63 48.266L1180.77 47.766ZM1194.03 24.7948L1194.9 25.2948L1195.49 24.2738L1194.38 23.8588L1194.03 24.7948ZM1208.2 32.7999L1208.82 32.0134L1208.76 31.9695L1208.7 31.9339L1208.2 32.7999ZM1208.18 32.7682L1209.05 33.2682L1209.55 32.4022L1208.68 31.9022L1208.18 32.7682ZM1208.12 32.7109L1208.62 31.8449L1207.75 31.3449L1207.25 32.2109L1208.12 32.7109ZM1194.67 56.0065L1193.8 55.5065L1193.38 56.2271L1194.02 56.7672L1194.67 56.0065ZM1198.8 59.5318L1198.15 60.2925L1199.06 61.0726L1199.66 60.0318L1198.8 59.5318ZM1212.2 36.3246L1213.06 36.8246L1213.45 36.1552L1212.9 35.6125L1212.2 36.3246ZM1199.03 26.8541L1199.53 25.9881L1198.66 25.4881L1198.16 26.3541L1199.03 26.8541ZM1185.59 50.135L1184.72 49.635L1184.14 50.6378L1185.22 51.0646L1185.59 50.135ZM1190.21 52.8051L1189.62 53.6125L1190.52 54.2697L1191.08 53.3051L1190.21 52.8051ZM1203.65 29.5242L1204.52 30.0242L1205.02 29.1582L1204.15 28.6582L1203.65 29.5242ZM1170.17 66.0464L1169.92 65.0801L1169.92 65.0806L1170.17 66.0464ZM1221.25 105.009L1208.65 126.83L1210.38 127.83L1222.98 106.009L1221.25 105.009ZM1209.22 126.375C1206.86 127.108 1204.46 127.814 1202.02 128.456L1202.53 130.39C1205.01 129.738 1207.43 129.024 1209.81 128.285L1209.22 126.375ZM1202.02 128.456C1199.68 129.074 1197.31 129.636 1194.93 130.113L1195.32 132.074C1197.75 131.587 1200.15 131.016 1202.53 130.39L1202.02 128.456ZM1194.92 130.116C1192.61 130.612 1190.28 131.017 1187.93 131.362L1188.22 133.341C1190.6 132.991 1192.98 132.579 1195.34 132.071L1194.92 130.116ZM1187.94 131.361C1185.76 131.662 1183.57 131.917 1181.4 132.081L1181.55 134.076C1183.77 133.907 1186 133.647 1188.21 133.342L1187.94 131.361ZM1181.39 132.082C1179.31 132.259 1177.22 132.33 1175.13 132.357L1175.16 134.357C1177.27 134.33 1179.42 134.257 1181.56 134.075L1181.39 132.082ZM1175.13 132.357C1173.09 132.378 1171.05 132.301 1169.01 132.135L1168.85 134.129C1170.94 134.3 1173.05 134.379 1175.15 134.357L1175.13 132.357ZM1169.01 132.135C1167.09 131.983 1165.2 131.78 1163.34 131.453L1162.99 133.422C1164.94 133.765 1166.9 133.974 1168.85 134.129L1169.01 132.135ZM1163.34 131.452C1161.52 131.14 1159.74 130.771 1157.96 130.306L1157.46 132.241C1159.3 132.723 1161.13 133.104 1163 133.423L1163.34 131.452ZM1157.97 130.308C1156.65 129.951 1155.31 129.549 1154.01 129.103L1153.36 130.996C1154.71 131.457 1156.09 131.872 1157.45 132.239L1157.97 130.308ZM1153.99 129.098C1153.55 128.957 1153.11 128.792 1152.68 128.62L1151.93 130.476C1152.4 130.663 1152.89 130.844 1153.38 131.001L1153.99 129.098ZM1152.66 128.612C1151.04 128.007 1149.44 127.313 1147.86 126.537L1146.98 128.332C1148.61 129.136 1150.28 129.856 1151.95 130.485L1152.66 128.612ZM1147.48 126.436C1147.53 126.439 1147.6 126.449 1147.7 126.48C1147.79 126.511 1147.86 126.553 1147.85 126.549L1146.85 128.281C1146.86 128.286 1146.94 128.336 1147.06 128.374C1147.17 128.413 1147.27 128.427 1147.36 128.433L1147.48 126.436ZM1147.79 126.515C1147.18 126.223 1146.58 125.893 1145.95 125.548L1144.99 127.304C1145.61 127.644 1146.26 127.998 1146.92 128.315L1147.79 126.515ZM1145.93 125.537C1145.63 125.386 1145.34 125.219 1145.03 125.039L1144.03 126.771C1144.34 126.948 1144.67 127.138 1145.01 127.315L1145.93 125.537ZM1145.03 125.039C1144.85 124.934 1144.66 124.822 1144.47 124.705C1144.28 124.59 1144.08 124.468 1143.88 124.352L1142.88 126.084C1143.06 126.189 1143.24 126.301 1143.44 126.418C1143.63 126.534 1143.83 126.655 1144.03 126.771L1145.03 125.039ZM1143.93 124.388C1143.81 124.306 1143.69 124.232 1143.59 124.168C1143.48 124.102 1143.39 124.045 1143.3 123.984L1142.19 125.646C1142.31 125.727 1142.43 125.801 1142.53 125.865C1142.64 125.931 1142.73 125.988 1142.82 126.049L1143.93 124.388ZM1143.24 123.949L1143.22 123.932L1142.22 125.664L1142.24 125.681L1143.24 123.949ZM1143.26 123.957C1141.77 123.003 1140.32 121.989 1138.91 120.869L1137.66 122.434C1139.14 123.605 1140.65 124.659 1142.17 125.639L1143.26 123.957ZM1138.79 120.785C1138.82 120.804 1138.85 120.825 1138.88 120.846C1138.91 120.867 1138.93 120.888 1138.95 120.906C1138.97 120.924 1138.98 120.939 1138.99 120.949C1139 120.957 1139.01 120.963 1139 120.959C1139 120.958 1138.99 120.947 1138.98 120.934C1138.97 120.919 1138.95 120.899 1138.92 120.876C1138.9 120.853 1138.87 120.828 1138.83 120.802C1138.8 120.776 1138.76 120.751 1138.72 120.728L1137.72 122.46C1137.69 122.441 1137.66 122.421 1137.63 122.399C1137.6 122.378 1137.58 122.357 1137.56 122.339C1137.54 122.321 1137.52 122.306 1137.52 122.297C1137.51 122.289 1137.5 122.282 1137.51 122.286C1137.51 122.287 1137.52 122.299 1137.53 122.312C1137.54 122.326 1137.56 122.346 1137.59 122.369C1137.61 122.392 1137.64 122.417 1137.68 122.443C1137.71 122.469 1137.75 122.494 1137.79 122.517L1138.79 120.785ZM1139.19 121.336C1139.14 121.157 1139.05 121.014 1138.96 120.906C1138.91 120.854 1138.86 120.812 1138.82 120.778C1138.8 120.761 1138.78 120.745 1138.76 120.732C1138.75 120.725 1138.74 120.719 1138.73 120.713C1138.72 120.71 1138.72 120.707 1138.71 120.704C1138.71 120.703 1138.71 120.702 1138.71 120.7C1138.71 120.7 1138.71 120.699 1138.7 120.698C1138.7 120.698 1138.7 120.698 1138.7 120.697C1138.7 120.697 1138.7 120.697 1138.7 120.697C1138.7 120.697 1138.7 120.696 1138.2 121.562C1137.7 122.428 1137.7 122.428 1137.7 122.428C1137.7 122.428 1137.7 122.427 1137.7 122.427C1137.7 122.427 1137.7 122.427 1137.7 122.426C1137.7 122.426 1137.7 122.425 1137.69 122.424C1137.69 122.423 1137.69 122.422 1137.69 122.42C1137.68 122.417 1137.68 122.415 1137.67 122.412C1137.66 122.406 1137.65 122.4 1137.64 122.393C1137.63 122.381 1137.61 122.366 1137.59 122.35C1137.55 122.319 1137.5 122.28 1137.46 122.233C1137.37 122.135 1137.3 122.008 1137.26 121.852L1139.19 121.336ZM1138.82 120.777C1137.45 119.698 1136.15 118.524 1134.9 117.3L1133.5 118.728C1134.79 119.99 1136.14 121.215 1137.58 122.348L1138.82 120.777ZM1135.04 117.464C1134.99 117.4 1134.95 117.353 1134.93 117.323C1134.91 117.308 1134.9 117.296 1134.89 117.289C1134.89 117.285 1134.89 117.282 1134.89 117.281C1134.89 117.279 1134.89 117.28 1134.89 117.28C1134.89 117.281 1134.89 117.289 1134.91 117.302C1134.92 117.314 1134.94 117.336 1134.96 117.364C1135 117.42 1135.07 117.529 1135.11 117.684L1133.18 118.201C1133.22 118.368 1133.3 118.487 1133.35 118.553C1133.39 118.616 1133.44 118.662 1133.45 118.67C1133.47 118.692 1133.45 118.674 1133.44 118.663C1133.43 118.646 1133.4 118.612 1133.37 118.565L1135.04 117.464ZM1134.84 117.222C1133.54 115.977 1132.33 114.642 1131.18 113.258L1129.64 114.54C1130.83 115.965 1132.09 117.356 1133.45 118.663L1134.84 117.222ZM1131.24 113.349C1131.24 113.342 1131.2 113.28 1131.15 113.218C1131.1 113.153 1131 113.043 1130.84 112.953L1129.84 114.685C1129.71 114.611 1129.64 114.526 1129.61 114.489C1129.58 114.455 1129.56 114.425 1129.58 114.45L1131.24 113.349ZM1131.11 113.177C1129.88 111.718 1128.73 110.18 1127.64 108.584L1125.98 109.711C1127.11 111.358 1128.31 112.949 1129.57 114.461L1131.11 113.177ZM1127.65 108.597C1127.63 108.581 1127.62 108.565 1127.61 108.549C1127.6 108.533 1127.59 108.517 1127.58 108.502L1125.91 109.603C1125.92 109.619 1125.93 109.635 1125.94 109.651C1125.95 109.666 1125.97 109.682 1125.98 109.698L1127.65 108.597ZM1127.57 108.486C1126.47 106.881 1125.43 105.218 1124.46 103.511L1122.72 104.502C1123.72 106.253 1124.79 107.963 1125.92 109.619L1127.57 108.486ZM1124.43 103.456C1124.46 103.501 1124.47 103.537 1124.48 103.551C1124.49 103.563 1124.49 103.573 1124.49 103.559C1124.48 103.553 1124.47 103.524 1124.46 103.493C1124.44 103.461 1124.41 103.407 1124.37 103.346L1122.7 104.447C1122.67 104.402 1122.66 104.366 1122.65 104.353C1122.64 104.34 1122.64 104.331 1122.65 104.344C1122.65 104.35 1122.66 104.379 1122.68 104.41C1122.69 104.442 1122.72 104.496 1122.76 104.557L1124.43 103.456ZM1124.41 103.399C1123.39 101.632 1122.45 99.8085 1121.59 97.9507L1119.77 98.7952C1120.66 100.702 1121.63 102.576 1122.67 104.394L1124.41 103.399ZM1121.65 98.1146C1121.62 98.0241 1121.59 97.9526 1121.57 97.9071C1121.55 97.8646 1121.53 97.8276 1121.52 97.8214C1121.51 97.8059 1121.52 97.8212 1121.53 97.8416C1121.54 97.865 1121.57 97.9141 1121.58 97.9814L1119.65 98.498C1119.68 98.5886 1119.71 98.6601 1119.73 98.7056C1119.75 98.7481 1119.77 98.7851 1119.77 98.7913C1119.78 98.8067 1119.77 98.7915 1119.76 98.771C1119.75 98.7476 1119.73 98.6986 1119.71 98.6313L1121.65 98.1146ZM1121.52 97.814C1120.58 95.8124 1119.72 93.7738 1118.89 91.7166L1117.04 92.4589C1117.87 94.542 1118.75 96.6186 1119.71 98.6654L1121.52 97.814ZM1118.86 91.645C1118.87 91.6544 1118.87 91.664 1118.87 91.6734C1118.88 91.6827 1118.88 91.6905 1118.88 91.696C1118.88 91.7012 1118.88 91.7038 1118.88 91.7016C1118.88 91.6985 1118.88 91.6942 1118.88 91.6814L1116.95 92.1981C1116.96 92.246 1116.99 92.3782 1117.07 92.5305L1118.86 91.645ZM1118.84 91.5763C1118.02 89.4645 1117.27 87.3327 1116.56 85.1722L1114.66 85.7897C1115.37 87.9839 1116.14 90.1523 1116.98 92.3032L1118.84 91.5763ZM1116.58 85.2227C1116.57 85.1878 1116.56 85.1587 1116.55 85.1326C1116.55 85.1064 1116.54 85.0832 1116.54 85.0599L1114.6 85.5765C1114.61 85.5998 1114.62 85.6231 1114.62 85.6492C1114.63 85.6754 1114.64 85.7044 1114.65 85.7393L1116.58 85.2227ZM1116.52 85.006C1115.99 83.3887 1115.49 81.7915 1115.02 80.1756L1113.1 80.7332C1113.57 82.3765 1114.08 83.9965 1114.62 85.6305L1116.52 85.006ZM1115.03 80.2232L1114.53 78.1269L1112.59 78.5894L1113.08 80.6857L1115.03 80.2232ZM1114.52 78.0998L1114.48 77.9139L1112.54 78.4305L1112.59 78.6165L1114.52 78.0998ZM1114.48 77.9381L1112.68 70.4489L1110.73 70.9171L1112.54 78.4063L1114.48 77.9381ZM1112.57 71.183L1125.09 49.4945L1123.36 48.4945L1110.84 70.183L1112.57 71.183ZM1123.26 49.2286L1125.62 59.0465L1127.56 58.5783L1125.2 48.7605L1123.26 49.2286ZM1125.63 59.0908C1128.38 68.5608 1132.08 78.2176 1137.6 86.6637L1139.28 85.5701C1133.91 77.3537 1130.27 67.9047 1127.55 58.534L1125.63 59.0908ZM1137.6 86.6634C1141 91.8779 1145.09 96.6405 1150.06 100.593L1151.3 99.0276C1146.53 95.2312 1142.58 90.6387 1139.28 85.5704L1137.6 86.6634ZM1150.06 100.593C1159.71 108.27 1170.78 111.686 1182.22 112.43L1182.35 110.434C1171.23 109.711 1160.57 106.403 1151.3 99.0277L1150.06 100.593ZM1182.22 112.43C1195.7 113.303 1209.69 110.454 1222.41 106.463L1221.81 104.555C1209.21 108.51 1195.48 111.285 1182.35 110.434L1182.22 112.43ZM1233.86 75.8705L1233.81 75.6845L1231.87 76.2012L1231.92 76.3871L1233.86 75.8705ZM1231.97 75.4428L1219.2 97.5737L1220.93 98.5737L1233.71 76.4428L1231.97 75.4428ZM1219.1 98.338L1221.13 105.765L1223.06 105.236L1221.03 97.8093L1219.1 98.338ZM1222.96 106L1235.56 84.1792L1233.83 83.1792L1221.23 105L1222.96 106ZM1235.67 83.4464L1233.86 75.896L1231.92 76.3616L1233.72 83.912L1235.67 83.4464ZM1135.97 26.6586L1123.36 48.4945L1125.09 49.4945L1137.7 27.6586L1135.97 26.6586ZM1124.49 49.9586L1131.82 47.9401L1131.29 46.0119L1123.96 48.0304L1124.49 49.9586ZM1132.43 47.476L1145.11 25.5074L1143.38 24.5074L1130.69 46.476L1132.43 47.476ZM1143.99 24.0404C1141.47 24.7043 1138.97 25.4378 1136.53 26.2047L1137.13 28.1124C1139.55 27.3533 1142.01 26.6289 1144.5 25.9743L1143.99 24.0404ZM1150.4 22.7599L1137.63 44.876L1139.36 45.876L1152.13 23.7599L1150.4 22.7599ZM1138.65 46.3639L1145.6 45.2685L1145.29 43.2929L1138.34 44.3882L1138.65 46.3639ZM1146.31 44.7807L1159.18 22.5024L1157.44 21.5024L1144.58 43.7807L1146.31 44.7807ZM1158.17 21.0131C1155.78 21.3634 1153.42 21.784 1151.06 22.2813L1151.47 24.2386C1153.79 23.7497 1156.12 23.3362 1158.46 22.9918L1158.17 21.0131ZM1229.44 62.1177C1229.43 62.0697 1229.4 61.9376 1229.32 61.7852L1227.53 62.6708C1227.52 62.6613 1227.52 62.6517 1227.52 62.6424C1227.51 62.6331 1227.51 62.6253 1227.51 62.6198C1227.51 62.6145 1227.51 62.612 1227.51 62.6141C1227.51 62.6173 1227.51 62.6215 1227.51 62.6343L1229.44 62.1177ZM1227.56 61.728L1214.45 84.4338L1216.18 85.4338L1229.29 62.728L1227.56 61.728ZM1214.42 85.3706C1214.85 86.2614 1215.2 87.203 1215.56 88.1895C1215.91 89.1617 1216.27 90.1922 1216.69 91.1866L1218.53 90.4079C1218.13 89.4779 1217.8 88.5191 1217.44 87.5118C1217.08 86.5189 1216.7 85.491 1216.22 84.4971L1214.42 85.3706ZM1216.66 91.1193C1216.65 91.0885 1216.65 91.0637 1216.66 91.1148C1216.66 91.1401 1216.68 91.2704 1216.74 91.4067C1216.81 91.5691 1216.92 91.7468 1217.1 91.8963C1217.27 92.0365 1217.46 92.1106 1217.61 92.1524L1218.13 90.2211C1218.16 90.2287 1218.26 90.2583 1218.36 90.3458C1218.48 90.4426 1218.55 90.5594 1218.59 90.6543C1218.62 90.7232 1218.63 90.7797 1218.62 90.7266C1218.61 90.6993 1218.59 90.5916 1218.55 90.4752L1216.66 91.1193ZM1218.74 91.6868L1231.65 69.32L1229.92 68.32L1217.01 90.6868L1218.74 91.6868ZM1231.74 68.506C1231.02 66.3302 1230.25 64.1633 1229.41 62.0126L1227.55 62.7394C1228.37 64.8514 1229.13 66.9847 1229.84 69.134L1231.74 68.506ZM1223.69 49.8917C1223.72 49.9367 1223.74 49.9729 1223.75 49.9863C1223.75 49.9988 1223.76 50.0084 1223.75 49.995C1223.75 49.9888 1223.74 49.9597 1223.72 49.9285C1223.71 49.8965 1223.68 49.8426 1223.64 49.7817L1221.97 50.883C1221.94 50.838 1221.92 50.8018 1221.92 50.7884C1221.91 50.7759 1221.91 50.7664 1221.91 50.7797C1221.91 50.7859 1221.93 50.815 1221.94 50.8462C1221.96 50.8782 1221.98 50.9321 1222.02 50.993L1223.69 49.8917ZM1221.94 49.8324L1208.68 72.8036L1210.41 73.8036L1223.67 50.8324L1221.94 49.8324ZM1208.66 73.7772L1211.63 79.3076L1213.4 78.3605L1210.42 72.8301L1208.66 73.7772ZM1213.38 79.3341L1226.59 56.4513L1224.86 55.4513L1211.65 78.3341L1213.38 79.3341ZM1226.63 55.5248C1225.73 53.6106 1224.77 51.7613 1223.73 49.9451L1221.99 50.9396C1223 52.708 1223.94 54.5101 1224.82 56.3778L1226.63 55.5248ZM1164.05 20.7752L1151.09 43.2156L1152.83 44.2156L1165.78 21.7752L1164.05 20.7752ZM1151.94 44.7154C1153 44.7393 1154.08 44.6784 1155.08 44.6426C1156.11 44.6061 1157.08 44.5939 1158.03 44.6965L1158.24 42.7081C1157.14 42.5893 1156.05 42.6068 1155.01 42.6439C1153.95 42.6817 1152.97 42.7381 1151.98 42.7159L1151.94 44.7154ZM1159 44.2023L1172.1 21.5112L1170.37 20.5112L1157.27 43.2023L1159 44.2023ZM1171.23 20.0112C1169.11 20.0155 1166.97 20.0967 1164.83 20.2788L1165 22.2716C1167.08 22.0947 1169.16 22.0154 1171.24 22.0112L1171.23 20.0112ZM1216.91 39.978C1216.9 39.9711 1216.86 39.9097 1216.81 39.8479C1216.76 39.7825 1216.66 39.6727 1216.5 39.5822L1215.5 41.3142C1215.37 41.2407 1215.3 41.1552 1215.27 41.1179C1215.24 41.0842 1215.22 41.0546 1215.24 41.0793L1216.91 39.978ZM1215.14 39.9482L1201.76 63.1111L1203.49 64.1111L1216.87 40.9482L1215.14 39.9482ZM1201.84 64.232L1204.08 67.0572L1205.65 65.8155L1203.41 62.9902L1201.84 64.232ZM1204.08 67.0544L1205.5 68.8546L1207.07 67.6184L1205.65 65.8182L1204.08 67.0544ZM1207.15 68.7365L1220.45 45.6915L1218.72 44.6915L1205.42 67.7365L1207.15 68.7365ZM1220.41 44.6311C1219.3 42.9902 1218.11 41.398 1216.84 39.8865L1215.31 41.1709C1216.53 42.6291 1217.69 44.1666 1218.76 45.7519L1220.41 44.6311ZM1176.57 20.7281L1163.42 43.5077L1165.15 44.5077L1178.3 21.7281L1176.57 20.7281ZM1164.14 44.9969L1166.47 45.3419L1166.76 43.3634L1164.43 43.0184L1164.14 44.9969ZM1166.47 45.3418L1169.82 45.8387L1170.11 43.8604L1166.76 43.3635L1166.47 45.3418ZM1170.83 45.3495L1184.06 22.4225L1182.33 21.4225L1169.1 44.3495L1170.83 45.3495ZM1183.36 20.9362C1181.41 20.6105 1179.47 20.3865 1177.51 20.2312L1177.35 22.225C1179.26 22.3765 1181.15 22.5942 1183.03 22.9088L1183.36 20.9362ZM1187.83 22.5887L1174.56 45.56L1176.3 46.56L1189.56 23.5887L1187.83 22.5887ZM1175.13 47.0125L1180.46 48.7185L1181.07 46.8135L1175.73 45.1074L1175.13 47.0125ZM1181.63 48.266L1194.9 25.2948L1193.16 24.2948L1179.9 47.266L1181.63 48.266ZM1194.38 23.8588C1192.59 23.1841 1190.78 22.6187 1188.95 22.1236L1188.43 24.0538C1190.21 24.5358 1191.95 25.0825 1193.68 25.7307L1194.38 23.8588ZM1208.7 31.9339C1208.69 31.9282 1208.72 31.943 1208.75 31.9627C1208.78 31.981 1208.85 32.0337 1208.93 32.1232C1209.01 32.2173 1209.13 32.3908 1209.17 32.6416C1209.21 32.9032 1209.13 33.1223 1209.05 33.2682L1207.32 32.2682C1207.23 32.4214 1207.15 32.6471 1207.19 32.9147C1207.22 33.1716 1207.35 33.3505 1207.43 33.4496C1207.52 33.5441 1207.6 33.6015 1207.63 33.6243C1207.66 33.638 1207.67 33.6485 1207.68 33.6547C1207.69 33.6606 1207.7 33.6656 1207.7 33.666L1208.7 31.9339ZM1208.68 31.9022C1208.71 31.9211 1208.74 31.9416 1208.77 31.963C1208.8 31.9843 1208.83 32.0049 1208.84 32.0232C1208.86 32.0411 1208.88 32.0563 1208.89 32.0656C1208.89 32.0736 1208.9 32.0803 1208.9 32.0763C1208.9 32.0753 1208.89 32.0635 1208.87 32.0505C1208.86 32.0363 1208.84 32.0162 1208.82 31.9934C1208.79 31.9703 1208.76 31.9449 1208.73 31.919C1208.69 31.893 1208.66 31.8681 1208.62 31.8449L1207.62 33.5769C1207.58 33.558 1207.55 33.5375 1207.52 33.5161C1207.5 33.4948 1207.47 33.4742 1207.45 33.4559C1207.43 33.438 1207.42 33.4228 1207.41 33.4135C1207.4 33.4055 1207.4 33.3988 1207.4 33.4028C1207.4 33.4038 1207.41 33.4156 1207.42 33.4286C1207.44 33.4428 1207.46 33.4629 1207.48 33.4857C1207.51 33.5088 1207.53 33.5342 1207.57 33.5601C1207.6 33.5861 1207.64 33.611 1207.68 33.6342L1208.68 31.9022ZM1207.25 32.2109L1193.8 55.5065L1195.53 56.5065L1208.98 33.2109L1207.25 32.2109ZM1194.02 56.7672L1198.15 60.2925L1199.45 58.7711L1195.32 55.2459L1194.02 56.7672ZM1199.66 60.0318L1213.06 36.8246L1211.33 35.8246L1197.93 59.0318L1199.66 60.0318ZM1212.9 35.6125C1211.62 34.3544 1210.27 33.1523 1208.82 32.0134L1207.58 33.5865C1208.97 34.6756 1210.27 35.8275 1211.49 37.0368L1212.9 35.6125ZM1198.16 26.3541L1184.72 49.635L1186.45 50.635L1199.89 27.3541L1198.16 26.3541ZM1185.22 51.0646C1186.74 51.667 1188.25 52.6075 1189.62 53.6125L1190.8 51.9977C1189.36 50.9436 1187.7 49.8954 1185.95 49.2054L1185.22 51.0646ZM1191.08 53.3051L1204.52 30.0242L1202.79 29.0242L1189.34 52.3051L1191.08 53.3051ZM1204.15 28.6582L1199.53 25.9881L1198.53 27.7201L1203.15 30.3903L1204.15 28.6582ZM1169.92 65.0806C1163.25 66.8712 1159.3 73.7148 1161.08 80.3853L1163.01 79.8686C1161.51 74.2644 1164.83 68.5166 1170.43 67.0122L1169.92 65.0806ZM1161.08 80.3853C1162.86 87.0566 1169.7 91.0044 1176.37 89.2136L1175.85 87.282C1170.25 88.7862 1164.51 85.4721 1163.01 79.8686L1161.08 80.3853ZM1176.37 89.2136C1183.04 87.423 1186.99 80.5794 1185.21 73.9089L1183.27 74.4256C1184.77 80.0298 1181.45 85.7776 1175.85 87.282L1176.37 89.2136ZM1185.21 73.9089C1183.43 67.2599 1176.58 63.3057 1169.92 65.0801L1170.43 67.0127C1176.03 65.5216 1181.78 68.8464 1183.27 74.4256L1185.21 73.9089Z" fill="white" mask="url(#path-5-inside-2_7867_21832)"/>
</g>
<defs>
<filter id="filter0_f_7867_21832" x="181.175" y="47.4424" width="55.7158" height="59.2109" filterUnits="userSpaceOnUse" color-interpolation-filters="sRGB">
<feFlood flood-opacity="0" result="BackgroundImageFix"/>
<feBlend mode="normal" in="SourceGraphic" in2="BackgroundImageFix" result="shape"/>
<feGaussianBlur stdDeviation="4" result="effect1_foregroundBlur_7867_21832"/>
</filter>
<filter id="filter1_f_7867_21832" x="1031.84" y="178.844" width="82.9434" height="82.9434" filterUnits="userSpaceOnUse" color-interpolation-filters="sRGB">
<feFlood flood-opacity="0" result="BackgroundImageFix"/>
<feBlend mode="normal" in="SourceGraphic" in2="BackgroundImageFix" result="shape"/>
<feGaussianBlur stdDeviation="4" result="effect1_foregroundBlur_7867_21832"/>
</filter>
<clipPath id="clip0_7867_21832">
<rect width="74" height="74" fill="white" transform="translate(1047.15 175) rotate(15)"/>
</clipPath>
</defs>
</svg>
