<svg width="138" height="175" viewBox="0 0 138 175" fill="none" xmlns="http://www.w3.org/2000/svg">
<path d="M138 87.5923V126.604C135.393 129.425 132.707 132.245 129.916 135.013C127.23 137.675 124.466 140.285 121.622 142.789C118.883 145.267 116.039 147.639 113.143 149.932C110.431 152.041 107.666 154.097 104.848 156.021C102.163 157.893 99.3715 159.632 96.5803 161.293C93.8155 162.927 90.9717 164.43 88.0752 165.801C85.3631 167.092 82.6246 168.305 79.8071 169.333C77.0949 170.334 74.3828 171.231 71.5916 171.995C69.5114 172.549 67.3786 173.049 65.2457 173.471C64.5084 173.629 63.7448 173.761 63.0075 173.867C60.3217 174.315 57.5832 174.631 54.8184 174.815C54.7657 174.842 54.7394 174.842 54.7131 174.842C53.6335 174.921 52.5275 174.947 51.4216 174.974C50.8686 175 50.3157 175 49.7627 175C49.0781 175 48.3671 174.974 47.6825 174.974C47.2875 174.947 46.9189 174.947 46.5239 174.921H46.4713C43.7064 174.789 40.9153 174.552 38.0978 174.13C38.0451 174.13 38.0188 174.104 37.9661 174.104C37.9398 174.077 37.9135 174.077 37.9135 174.077C35.175 173.682 32.4628 173.102 29.8033 172.417C29.7507 172.39 29.698 172.39 29.6717 172.364C26.9069 171.679 24.1947 170.809 21.5352 169.834C21.4825 169.807 21.4299 169.781 21.3772 169.781C18.5597 168.753 15.7686 167.567 13.0301 166.249C12.9774 166.222 12.9248 166.196 12.8721 166.17C10.1073 164.852 7.39513 163.402 4.73563 161.847C4.68297 161.82 4.6303 161.768 4.57764 161.741C1.81282 160.133 -0.899338 158.394 -3.5325 156.548C-3.58516 156.496 -3.66416 156.469 -3.71682 156.417C-6.56064 154.44 -9.32546 152.357 -12.0376 150.222C-12.1166 150.169 -12.1693 150.117 -12.2219 150.064C-14.9868 147.85 -17.6726 145.557 -20.3057 143.184C-20.3847 143.105 -20.4374 143.052 -20.4901 143C-22.4649 141.234 -24.3872 139.468 -26.283 137.649L-28.5739 135.224L-28.7845 135.013L-37 126.367V87.5923L-26.2304 98.9268C-15.2764 109.444 -2.95321 119.408 10.7919 126.367C19.2707 130.663 28.2761 133.827 37.8082 135.25C56.3193 138.018 73.4875 134.117 89.1812 126.367C107.692 117.22 124.097 102.723 138 87.5923ZM129.706 39.8554L129.495 39.6445V79.21L137.974 87.5923V48.5804L129.706 39.8554ZM-37 48.554V87.5923L-28.7319 79.21V39.9345C-31.5757 42.7549 -34.3405 45.6545 -37 48.554ZM-20.6744 32.1585V71.6975L-12.1956 64.8441V25.0151C-15.0921 27.3083 -17.9096 29.6807 -20.6744 32.1585ZM113.143 24.8305C113.09 24.7778 113.038 24.7251 112.959 24.6724V65.2659C115.644 67.0846 117.988 69.4043 120.568 71.3549C120.779 71.5394 120.832 71.7766 121.227 71.6712V31.684C118.594 29.338 115.908 27.0447 113.143 24.8305ZM96.3697 13.1797C96.317 13.1533 96.2644 13.1006 96.2117 13.0743V54.1422L104.48 59.2559V18.3461C101.82 16.501 99.1345 14.7876 96.3697 13.1797ZM-3.90115 18.926V59.045C-1.10999 57.5162 1.44418 55.5392 4.36699 54.2476V13.6805C1.5495 15.3148 -1.21532 17.0545 -3.90115 18.926ZM79.5964 5.14008C79.5438 5.11372 79.4911 5.08736 79.4385 5.08736V46.498L84.6258 48.554L87.9172 49.872V8.67224C85.2051 7.35427 82.4139 6.1681 79.5964 5.14008ZM12.8458 9.17307V49.8983L16.2425 48.554L21.1139 46.6298V5.64091C18.2964 6.69529 15.5579 7.88146 12.8458 9.17307ZM29.382 2.95225V44.0202L37.8608 42.175V1.10709C34.9907 1.58156 32.1732 2.21419 29.382 2.95225ZM63.0602 0.86986C63.0339 0.86986 63.0075 0.86986 63.0075 0.8435C62.9549 0.8435 62.9285 0.817141 62.8759 0.817141V42.465L71.144 43.9938V2.50414C68.5108 1.8188 65.825 1.26525 63.0602 0.86986ZM46.1553 0V41.6215C48.8411 41.2261 51.7376 41.3315 54.4234 41.6215V0H46.1553ZM37.8082 74.887C30.8566 81.8459 30.8566 93.1014 37.8082 100.06C44.7597 107.019 56.0033 107.019 62.9549 100.06C69.9064 93.1014 69.9064 81.8459 62.9549 74.887C56.0296 67.9545 44.7597 67.9545 37.8082 74.887Z" fill="url(#paint0_linear_7867_949)"/>
<defs>
<linearGradient id="paint0_linear_7867_949" x1="-12.7857" y1="151.034" x2="114.201" y2="24.2767" gradientUnits="userSpaceOnUse">
<stop offset="2.85827e-07" stop-color="#29AAE1"/>
<stop offset="0.5052" stop-color="#F68722"/>
<stop offset="1" stop-color="#F9CD14"/>
</linearGradient>
</defs>
</svg>
