<svg width="196" height="78" viewBox="0 0 196 78" fill="none" xmlns="http://www.w3.org/2000/svg">
<g clip-path="url(#clip0_7867_15276)">
<path d="M77.3112 39.047V56.4378C76.1595 57.6951 74.973 58.9524 73.7399 60.1862C72.5534 61.373 71.332 62.5363 70.0756 63.6526C68.8658 64.7572 67.6095 65.8147 66.3299 66.837C65.1317 67.777 63.9103 68.6936 62.6656 69.5514C61.479 70.3857 60.2459 71.1612 59.0129 71.9015C57.7914 72.63 56.5351 73.2998 55.2555 73.9108C54.0573 74.4866 52.8475 75.0271 51.6028 75.4854C50.4047 75.9319 49.2065 76.3314 47.9734 76.6722C47.0544 76.919 46.1122 77.1422 45.1699 77.3302C44.8442 77.4007 44.5069 77.4595 44.1811 77.5065C42.9946 77.7062 41.7848 77.8472 40.5634 77.9295C40.5401 77.9412 40.5285 77.9413 40.5168 77.9413C40.0399 77.9765 39.5513 77.9883 39.0627 78C38.8185 78.0117 38.5742 78.0117 38.3299 78.0117C38.0274 78.0117 37.7133 78 37.4109 78C37.2364 77.9883 37.0735 77.9883 36.899 77.9765H36.8758C35.6543 77.9177 34.4213 77.812 33.1766 77.624C33.1533 77.624 33.1417 77.6122 33.1184 77.6122C33.1068 77.6005 33.0951 77.6005 33.0951 77.6005C31.8853 77.4242 30.6872 77.1657 29.5123 76.8602C29.489 76.8485 29.4657 76.8484 29.4541 76.8367C28.2327 76.5312 27.0345 76.1434 25.8596 75.7086C25.8363 75.6969 25.813 75.6852 25.7898 75.6852C24.5451 75.2269 23.312 74.6981 22.1022 74.1106C22.0789 74.0988 22.0557 74.0871 22.0324 74.0753C20.811 73.4878 19.6128 72.8415 18.4379 72.1482C18.4146 72.1365 18.3914 72.113 18.3681 72.1012C17.1467 71.3845 15.9485 70.6089 14.7852 69.7864C14.7619 69.7629 14.727 69.7511 14.7038 69.7276C13.4474 68.8463 12.226 67.9181 11.0278 66.9663C10.9929 66.9428 10.9697 66.9193 10.9464 66.8958C9.72497 65.9087 8.53843 64.8864 7.37516 63.8289C7.34026 63.7936 7.31699 63.7701 7.29373 63.7466C6.42127 62.9593 5.57208 62.172 4.73452 61.3613L3.72248 60.2802L3.62941 60.1862L0 56.332V39.047L4.75779 44.0997C9.59701 48.7882 15.0411 53.2299 21.1134 56.332C24.8592 58.2474 28.8376 59.6574 33.0486 60.292C41.2264 61.5258 48.811 59.7867 55.7441 56.332C63.9219 52.2546 71.1691 45.7918 77.3112 39.047ZM73.6469 17.7668L73.5538 17.6728V35.3103L77.2995 39.047V21.6562L73.6469 17.7668ZM0 21.6445V39.047L3.65268 35.3103V17.802C2.39634 19.0594 1.17491 20.3519 0 21.6445ZM7.2123 14.3356V31.9614L10.958 28.9063V11.1513C9.67844 12.1735 8.43373 13.2311 7.2123 14.3356ZM66.3299 11.069C66.3066 11.0455 66.2833 11.022 66.2484 10.9985V29.0943C67.435 29.9051 68.4703 30.9391 69.6103 31.8087C69.7034 31.8909 69.7266 31.9967 69.9011 31.9497V14.1241C68.7378 13.0783 67.5513 12.056 66.3299 11.069ZM58.9198 5.87526C58.8966 5.86351 58.8733 5.84001 58.85 5.82826V24.1356L62.5027 26.4152V8.17837C61.3278 7.35583 60.1413 6.59205 58.9198 5.87526ZM14.6224 8.43688V26.3212C15.8554 25.6397 16.9838 24.7584 18.275 24.1826V6.09852C17.0303 6.82706 15.8089 7.60259 14.6224 8.43688ZM51.5098 2.29135C51.4865 2.2796 51.4632 2.26785 51.44 2.26785V20.7279L53.7316 21.6445L55.1857 22.232V3.86592C53.9875 3.2784 52.7545 2.74962 51.5098 2.29135ZM22.0208 4.08918V22.2437L23.5214 21.6445L25.6735 20.7867V2.51461C24.4287 2.98463 23.2189 3.51341 22.0208 4.08918ZM29.3261 1.31606V19.6234L33.0719 18.8008V0.493522C31.8039 0.705032 30.5592 0.987044 29.3261 1.31606ZM44.2044 0.387767C44.1928 0.387767 44.1811 0.387767 44.1811 0.376017C44.1579 0.376017 44.1462 0.364266 44.123 0.364266V18.9301L47.7757 19.6116V1.1163C46.6124 0.810786 45.4258 0.564025 44.2044 0.387767ZM36.7362 0V18.5541C37.9227 18.3778 39.2023 18.4248 40.3889 18.5541V0H36.7362ZM33.0486 33.3832C29.9776 36.4854 29.9776 41.5029 33.0486 44.605C36.1197 47.7071 41.0868 47.7071 44.1579 44.605C47.2289 41.5029 47.2289 36.4854 44.1579 33.3832C41.0985 30.2929 36.1197 30.2929 33.0486 33.3832Z" fill="url(#paint0_linear_7867_15276)"/>
<path d="M96.7612 29.6465H109.173V33.6769H105.323V47.9421H100.623V33.6769H96.7612V29.6465ZM136.603 36.9906C138.313 38.6356 138.534 40.7742 138.534 42.149V42.6191H129.496C129.496 43.2771 129.74 44.1584 130.252 44.6754C130.519 44.9457 131.066 45.2747 132.043 45.2747C132.148 45.2747 132.916 45.2512 133.451 44.9457C133.718 44.7812 134.021 44.5109 134.207 44.1231H138.36C138.174 44.8047 137.79 45.7682 136.894 46.6495C135.998 47.5308 134.591 48.3533 131.95 48.3533C130.345 48.3533 128.426 48.0008 126.925 46.485C126.134 45.686 125.133 44.1819 125.133 41.8435C125.133 39.7872 125.89 38.1421 126.948 37.0963C127.949 36.1093 129.531 35.3102 131.915 35.3102C133.346 35.322 135.173 35.6275 136.603 36.9906ZM134.544 40.0927C134.44 39.6227 134.16 39.1057 133.835 38.7766C133.265 38.2009 132.474 38.1186 132.043 38.1186C131.31 38.1186 130.74 38.3066 130.275 38.7766C129.973 39.1057 129.705 39.5404 129.624 40.0927H134.544ZM157.228 35.463C156.414 35.463 155.576 35.5688 154.704 36.0623C154.157 36.3678 153.541 36.8848 153.052 37.7661C152.75 37.1668 152.261 36.4735 151.365 36.0153C150.714 35.6628 149.9 35.463 149.027 35.463C147.829 35.463 146.421 35.8978 145.386 37.1668V35.6863H141.035V47.9421H145.386V41.8788C145.386 41.115 145.386 39.9282 146.142 39.1879C146.491 38.8354 146.875 38.7531 147.34 38.7531C147.771 38.7531 148.259 38.8354 148.643 39.2467C149.132 39.7637 149.213 40.7037 149.213 41.8788V47.9421H153.552V41.6555C153.552 41.0562 153.61 40.034 154.343 39.3289C154.727 38.9764 155.134 38.8354 155.623 38.8354C156.193 38.8354 156.519 39.0234 156.763 39.2467C157.251 39.7167 157.391 40.5862 157.391 41.8788V47.9421H161.742V39.9634C161.742 39.1174 161.684 37.6603 160.602 36.591C159.59 35.5923 158.124 35.463 157.228 35.463ZM175.689 36.9906C177.399 38.6356 177.62 40.7742 177.62 42.149V42.6191H168.582C168.582 43.2771 168.826 44.1584 169.338 44.6754C169.605 44.9457 170.152 45.2747 171.129 45.2747C171.234 45.2747 172.002 45.2512 172.537 44.9457C172.804 44.7812 173.107 44.5109 173.293 44.1231H177.446C177.26 44.8047 176.876 45.7682 175.98 46.6495C175.084 47.5308 173.677 48.3533 171.036 48.3533C169.431 48.3533 167.512 48.0008 166.011 46.485C165.22 45.686 164.219 44.1819 164.219 41.8435C164.219 39.7872 164.976 38.1421 166.034 37.0963C167.035 36.1093 168.617 35.3102 171.001 35.3102C172.432 35.322 174.259 35.6275 175.689 36.9906ZM173.63 40.0927C173.526 39.6227 173.246 39.1057 172.921 38.7766C172.351 38.2009 171.56 38.1186 171.129 38.1186C170.396 38.1186 169.826 38.3066 169.361 38.7766C169.059 39.1057 168.791 39.5404 168.71 40.0927H173.63ZM181.587 37.1551C180.366 38.3654 179.633 40.0927 179.633 41.9023C179.633 43.7119 180.366 45.3569 181.506 46.485C182.378 47.331 183.925 48.3533 186.287 48.3533C187.183 48.3533 188.136 48.2476 189.3 47.6718V43.9939C188.509 44.6754 187.694 44.8164 187.078 44.8164C185.961 44.8164 185.263 44.3229 184.856 43.8881C184.344 43.3123 184.1 42.5133 184.1 41.8318C184.1 41.115 184.344 40.3277 184.937 39.7167C185.368 39.2819 186.019 38.8707 187.055 38.8707C187.974 38.8707 188.741 39.2584 189.311 39.6697V35.9918C188.229 35.4395 187.252 35.3102 186.485 35.3102C184.414 35.2985 182.727 36.0623 181.587 37.1551ZM118.898 47.9421H123.249V39.7872H118.898V47.9421ZM114.664 35.4042V29.6465H110.313V43.5591V47.9421H114.664V43.5591V39.7989H118.898V35.416H114.664V35.4042ZM191.661 43.5591V47.9421H196V43.5591H191.661Z" fill="white"/>
</g>
<defs>
<linearGradient id="paint0_linear_7867_15276" x1="10.6973" y1="67.3282" x2="67.3023" y2="11.3328" gradientUnits="userSpaceOnUse">
<stop offset="2.85827e-07" stop-color="#29AAE1"/>
<stop offset="0.5052" stop-color="#F68722"/>
<stop offset="1" stop-color="#F9CD14"/>
</linearGradient>
<clipPath id="clip0_7867_15276">
<rect width="196" height="78" fill="white"/>
</clipPath>
</defs>
</svg>
