<svg width="1167" height="3284" viewBox="0 0 1167 3284" fill="none" xmlns="http://www.w3.org/2000/svg">
<path d="M986.22 1777H473.073C448.154 1777 441.808 1795.22 435.252 1808C427.435 1795.41 416.403 1777 398.837 1777H165M193 66C88.066 66 3 151.066 3 256V473.571C3 563.55 75.946 636.5 165.929 636.5M970 636.55H637.033C611.149 636.55 604.557 654.77 597.748 667.55C589.628 654.96 578.168 636.55 559.922 636.55H159M968 636.55H988C1081.89 636.55 1158 712.66 1158 806.55V1044.12C1158 1134.11 1085.05 1207.05 995.07 1207.05M193 1206.55H173C79.112 1206.55 3 1282.66 3 1376.55V1614.12C3 1704.11 75.946 1777.05 165.929 1777.05M974 1776.8H994C1087.89 1776.8 1164 1852.92 1164 1946.8V2184.37C1164 2274.36 1091.05 2347.3 1001.07 2347.3M1012.02 1206.55H747.033C721.149 1206.55 714.557 1224.77 707.748 1237.55C699.628 1224.96 688.168 1206.55 669.922 1206.55H159M768 66H731.567C705.717 66 699.134 32.4987 692.335 9C684.226 32.1457 672.783 66 654.562 66H190M583.999 3283.75V3075.56C583.999 2988.24 513.215 2917.46 425.898 2917.46H164.44M193 2347H173C79.11 2347 3 2423.12 3 2517V2754.57C3 2844.56 75.9501 2917.5 165.93 2917.5M186.78 2347.17H699.927C724.846 2347.17 731.192 2365.39 737.748 2378.17C745.565 2365.58 756.597 2347.17 774.163 2347.17H1008" stroke="url(#paint0_linear_7867_15018)" stroke-width="5"/>
<defs>
<linearGradient id="paint0_linear_7867_15018" x1="163.644" y1="2835.28" x2="1658.34" y2="2306.32" gradientUnits="userSpaceOnUse">
<stop offset="2.85827e-07" stop-color="#29AAE1"/>
<stop offset="0.5052" stop-color="#F68722"/>
<stop offset="1" stop-color="#F9CD14"/>
</linearGradient>
</defs>
</svg>
