<svg width="1261" height="3381" viewBox="0 0 1261 3381" fill="none" xmlns="http://www.w3.org/2000/svg">
<path d="M1033.22 1777H520.073C495.154 1777 488.808 1795.22 482.252 1808C474.435 1795.41 463.403 1777 445.837 1777H212M240 66C135.066 66 50 151.066 50 256V473.571C50 563.55 122.946 636.5 212.929 636.5M1017 636.55H684.033C658.149 636.55 651.557 654.77 644.748 667.55C636.628 654.96 625.168 636.55 606.922 636.55H206M1015 636.55H1035C1128.89 636.55 1205 712.66 1205 806.55V1044.12C1205 1134.11 1132.05 1207.05 1042.07 1207.05M240 1206.55H220C126.112 1206.55 50 1282.66 50 1376.55V1614.12C50 1704.11 122.946 1777.05 212.929 1777.05M1021 1776.8H1041C1134.89 1776.8 1211 1852.92 1211 1946.8V2184.37C1211 2274.36 1138.05 2347.3 1048.07 2347.3M1059.02 1206.55H794.033C768.149 1206.55 761.557 1224.77 754.748 1237.55C746.628 1224.96 735.168 1206.55 716.922 1206.55H206M815 66H778.567C752.717 66 746.134 32.4987 739.335 9C731.226 32.1457 719.783 66 701.562 66H237M630.999 3283.75V3075.56C630.999 2988.24 560.215 2917.46 472.898 2917.46H211.44M240 2347H220C126.11 2347 50 2423.12 50 2517V2754.57C50 2844.56 122.95 2917.5 212.93 2917.5M233.78 2347.17H746.927C771.846 2347.17 778.192 2365.39 784.748 2378.17C792.565 2365.58 803.597 2347.17 821.163 2347.17H1055" stroke="url(#paint0_linear_7965_739)" stroke-width="5"/>
<path d="M718 3293.59V3332.6C715.393 3335.42 712.707 3338.25 709.916 3341.01C707.23 3343.68 704.466 3346.28 701.622 3348.79C698.883 3351.27 696.039 3353.64 693.143 3355.93C690.431 3358.04 687.666 3360.1 684.848 3362.02C682.163 3363.89 679.371 3365.63 676.58 3367.29C673.816 3368.93 670.972 3370.43 668.075 3371.8C665.363 3373.09 662.625 3374.3 659.807 3375.33C657.095 3376.33 654.383 3377.23 651.592 3378C649.511 3378.55 647.379 3379.05 645.246 3379.47C644.508 3379.63 643.745 3379.76 643.008 3379.87C640.322 3380.31 637.583 3380.63 634.818 3380.82C634.766 3380.84 634.739 3380.84 634.713 3380.84C633.633 3380.92 632.528 3380.95 631.422 3380.97C630.869 3381 630.316 3381 629.763 3381C629.078 3381 628.367 3380.97 627.683 3380.97C627.288 3380.95 626.919 3380.95 626.524 3380.92H626.471C623.706 3380.79 620.915 3380.55 618.098 3380.13C618.045 3380.13 618.019 3380.1 617.966 3380.1C617.94 3380.08 617.913 3380.08 617.913 3380.08C615.175 3379.68 612.463 3379.1 609.803 3378.42C609.751 3378.39 609.698 3378.39 609.672 3378.36C606.907 3377.68 604.195 3376.81 601.535 3375.83C601.483 3375.81 601.43 3375.78 601.377 3375.78C598.56 3374.75 595.769 3373.57 593.03 3372.25C592.977 3372.22 592.925 3372.2 592.872 3372.17C590.107 3370.85 587.395 3369.4 584.736 3367.85C584.683 3367.82 584.63 3367.77 584.578 3367.74C581.813 3366.13 579.101 3364.39 576.467 3362.55C576.415 3362.5 576.336 3362.47 576.283 3362.42C573.439 3360.44 570.675 3358.36 567.962 3356.22C567.883 3356.17 567.831 3356.12 567.778 3356.06C565.013 3353.85 562.327 3351.56 559.694 3349.18C559.615 3349.11 559.563 3349.05 559.51 3349C557.535 3347.23 555.613 3345.47 553.717 3343.65L551.426 3341.22L551.215 3341.01L543 3332.37V3293.59L553.77 3304.93C564.724 3315.44 577.047 3325.41 590.792 3332.37C599.271 3336.66 608.276 3339.83 617.808 3341.25C636.319 3344.02 653.488 3340.12 669.181 3332.37C687.692 3323.22 704.097 3308.72 718 3293.59ZM709.706 3245.86L709.495 3245.64V3285.21L717.974 3293.59V3254.58L709.706 3245.86ZM543 3254.55V3293.59L551.268 3285.21V3245.93C548.424 3248.75 545.659 3251.65 543 3254.55ZM559.326 3238.16V3277.7L567.804 3270.84V3231.02C564.908 3233.31 562.09 3235.68 559.326 3238.16ZM693.143 3230.83C693.09 3230.78 693.038 3230.73 692.959 3230.67V3271.27C695.644 3273.08 697.988 3275.4 700.568 3277.35C700.779 3277.54 700.832 3277.78 701.227 3277.67V3237.68C698.594 3235.34 695.908 3233.04 693.143 3230.83ZM676.37 3219.18C676.317 3219.15 676.264 3219.1 676.212 3219.07V3260.14L684.48 3265.26V3224.35C681.82 3222.5 679.135 3220.79 676.37 3219.18ZM576.099 3224.93V3265.05C578.89 3263.52 581.444 3261.54 584.367 3260.25V3219.68C581.55 3221.31 578.785 3223.05 576.099 3224.93ZM659.596 3211.14C659.544 3211.11 659.491 3211.09 659.438 3211.09V3252.5L664.626 3254.55L667.917 3255.87V3214.67C665.205 3213.35 662.414 3212.17 659.596 3211.14ZM592.846 3215.17V3255.9L596.243 3254.55L601.114 3252.63V3211.64C598.296 3212.7 595.558 3213.88 592.846 3215.17ZM609.382 3208.95V3250.02L617.861 3248.18V3207.11C614.991 3207.58 612.173 3208.21 609.382 3208.95ZM643.06 3206.87C643.034 3206.87 643.008 3206.87 643.008 3206.84C642.955 3206.84 642.929 3206.82 642.876 3206.82V3248.46L651.144 3249.99V3208.5C648.511 3207.82 645.825 3207.27 643.06 3206.87ZM626.155 3206V3247.62C628.841 3247.23 631.738 3247.33 634.423 3247.62V3206H626.155ZM617.808 3280.89C610.857 3287.85 610.857 3299.1 617.808 3306.06C624.76 3313.02 636.003 3313.02 642.955 3306.06C649.906 3299.1 649.906 3287.85 642.955 3280.89C636.03 3273.95 624.76 3273.95 617.808 3280.89Z" fill="url(#paint1_linear_7965_739)"/>
<circle cx="50" cy="2648" r="49.5" fill="#171717" stroke="url(#paint2_linear_7965_739)"/>
<g clip-path="url(#clip0_7965_739)">
<path fill-rule="evenodd" clip-rule="evenodd" d="M27.5634 2658.4C27.4103 2657.99 26.9499 2657.77 26.535 2657.93C26.1201 2658.08 25.9079 2658.54 26.061 2658.95C28.4849 2664.84 33.1635 2669.52 39.0545 2671.94C39.4628 2672.11 39.9305 2671.91 40.0994 2671.51C40.2682 2671.1 40.0744 2670.63 39.6665 2670.46C34.1886 2668.21 29.833 2663.87 27.5634 2658.4Z" fill="url(#paint3_linear_7965_739)"/>
<path fill-rule="evenodd" clip-rule="evenodd" d="M73.5061 2657.9C73.3101 2657.82 73.0898 2657.82 72.8937 2657.9C72.6975 2657.98 72.5417 2658.14 72.4605 2658.33C70.2104 2663.81 65.87 2668.17 60.3997 2670.44C59.9849 2670.59 59.7726 2671.05 59.9257 2671.47C60.0788 2671.88 60.5392 2672.09 60.9541 2671.94C66.8434 2669.52 71.5188 2664.84 73.939 2658.95C74.1077 2658.54 73.914 2658.07 73.5061 2657.9Z" fill="url(#paint4_linear_7965_739)"/>
<path fill-rule="evenodd" clip-rule="evenodd" d="M26.4945 2638.1C26.9025 2638.27 27.3701 2638.07 27.5394 2637.67C29.7896 2632.19 34.13 2627.83 39.6001 2625.56C39.9334 2625.46 40.1602 2625.15 40.1601 2624.8C40.151 2624.54 40.0143 2624.29 39.7931 2624.14C39.572 2624 39.2936 2623.97 39.0457 2624.06C33.1562 2626.48 28.4808 2631.16 26.0608 2637.05C25.8922 2637.46 26.0862 2637.93 26.4945 2638.1Z" fill="url(#paint5_linear_7965_739)"/>
<path fill-rule="evenodd" clip-rule="evenodd" d="M60.9456 2624.06C60.5373 2623.89 60.0694 2624.09 59.9004 2624.49C59.7314 2624.9 59.9254 2625.37 60.3336 2625.54C65.8116 2627.79 70.1673 2632.13 72.4368 2637.6C72.5358 2637.87 72.7706 2638.06 73.0525 2638.11C73.3344 2638.16 73.6208 2638.06 73.8037 2637.84C73.9866 2637.62 74.0383 2637.31 73.9393 2637.05C71.5151 2631.16 66.8366 2626.48 60.9456 2624.06Z" fill="url(#paint6_linear_7965_739)"/>
<path fill-rule="evenodd" clip-rule="evenodd" d="M41.1919 2667.57C41.5737 2667.57 41.9024 2667.3 41.9769 2666.92C42.0515 2666.55 41.851 2666.17 41.4983 2666.03C37.1763 2664.25 33.745 2660.82 31.9711 2656.5C31.8021 2656.09 31.3342 2655.9 30.9259 2656.07C30.5176 2656.24 30.3237 2656.71 30.4927 2657.11C32.4282 2661.83 36.1715 2665.57 40.8863 2667.51C40.9831 2667.55 41.087 2667.57 41.1919 2667.57Z" fill="url(#paint7_linear_7965_739)"/>
<path fill-rule="evenodd" clip-rule="evenodd" d="M58.8079 2667.57C58.9128 2667.57 59.0166 2667.55 59.1135 2667.51C63.8285 2665.57 67.5718 2661.83 69.5071 2657.11C69.6164 2656.85 69.5765 2656.55 69.4025 2656.32C69.2284 2656.09 68.9466 2655.98 68.6632 2656.01C68.3798 2656.05 68.138 2656.24 68.0286 2656.5C66.2544 2660.82 62.8233 2664.25 58.5015 2666.03C58.1487 2666.17 57.9483 2666.55 58.0228 2666.92C58.0973 2667.3 58.426 2667.57 58.8079 2667.57Z" fill="url(#paint8_linear_7965_739)"/>
<path fill-rule="evenodd" clip-rule="evenodd" d="M30.493 2638.89C30.3837 2639.15 30.4235 2639.45 30.5976 2639.68C30.7717 2639.91 31.0534 2640.02 31.3368 2639.99C31.6202 2639.95 31.8621 2639.76 31.9714 2639.5C33.7454 2635.18 37.1767 2631.75 41.4986 2629.97C41.9068 2629.8 42.1007 2629.33 41.9318 2628.93C41.7627 2628.52 41.2948 2628.32 40.8866 2628.49C36.1718 2630.43 32.4285 2634.17 30.493 2638.89Z" fill="url(#paint9_linear_7965_739)"/>
<path fill-rule="evenodd" clip-rule="evenodd" d="M69.5072 2638.89C67.5718 2634.17 63.8286 2630.43 59.1136 2628.49C58.7053 2628.32 58.2374 2628.52 58.0684 2628.93C57.8994 2629.33 58.0933 2629.8 58.5016 2629.97C62.8236 2631.75 66.2548 2635.18 68.0288 2639.5C68.1978 2639.91 68.6657 2640.1 69.074 2639.93C69.4823 2639.76 69.6761 2639.3 69.5072 2638.89Z" fill="url(#paint10_linear_7965_739)"/>
<path d="M66.8 2648C66.8 2638.72 59.2784 2631.2 50.0001 2631.2C40.7218 2631.2 33.2002 2638.72 33.2002 2648C33.2002 2657.28 40.7218 2664.8 50.0001 2664.8C59.2743 2664.79 66.7899 2657.27 66.8 2648ZM34.8002 2648C34.8002 2639.61 41.6055 2632.8 50.0001 2632.8C58.3947 2632.8 65.2 2639.61 65.2 2648C65.2 2656.39 58.3947 2663.2 50.0001 2663.2C41.6092 2663.19 34.8094 2656.39 34.8002 2648Z" fill="url(#paint11_linear_7965_739)"/>
<path d="M55.6 2645.05V2650.06C54.9791 2649.75 54.2937 2649.59 53.6001 2649.6C51.5816 2649.6 50.0001 2650.83 50.0001 2652.4C50.0001 2653.97 51.5816 2655.2 53.6001 2655.2C55.6185 2655.2 57.2 2653.97 57.2 2652.4V2641.05C57.1999 2640.55 56.9674 2640.08 56.5712 2639.78C56.175 2639.47 55.6603 2639.37 55.1793 2639.51L47.9793 2641.47C47.2833 2641.66 46.8003 2642.29 46.8001 2643.01V2651.66C46.1792 2651.35 45.4938 2651.19 44.8002 2651.2C42.7817 2651.2 41.2002 2652.43 41.2002 2654C41.2002 2655.57 42.7817 2656.8 44.8002 2656.8C46.8186 2656.8 48.4002 2655.57 48.4002 2654V2647.01L55.6 2645.05ZM53.6001 2653.6C52.4216 2653.6 51.6001 2652.97 51.6001 2652.4C51.6001 2651.83 52.4217 2651.2 53.6001 2651.2C54.7785 2651.2 55.6 2651.83 55.6 2652.4C55.6 2652.97 54.7785 2653.6 53.6001 2653.6ZM48.4001 2643.01L55.6 2641.05V2643.39L48.4001 2645.35V2643.01ZM44.8001 2655.2C43.6217 2655.2 42.8001 2654.57 42.8001 2654C42.8001 2653.43 43.6217 2652.8 44.8001 2652.8C45.9785 2652.8 46.8 2653.43 46.8 2654C46.8001 2654.57 45.9785 2655.2 44.8001 2655.2Z" fill="url(#paint12_linear_7965_739)"/>
</g>
<circle cx="1211" cy="2072" r="49.5" fill="#171717" stroke="url(#paint13_linear_7965_739)"/>
<g clip-path="url(#clip1_7965_739)">
<path d="M1232.6 2048H1189.4C1188.07 2048 1187 2049.07 1187 2050.4V2085.6C1187 2086.93 1188.07 2088 1189.4 2088H1203.31L1201.71 2091.2H1199C1197.67 2091.2 1196.6 2092.27 1196.6 2093.6C1196.6 2094.93 1197.67 2096 1199 2096H1223C1224.33 2096 1225.4 2094.93 1225.4 2093.6C1225.4 2092.27 1224.33 2091.2 1223 2091.2H1220.29L1218.69 2088H1232.6C1233.93 2088 1235 2086.93 1235 2085.6V2050.4C1235 2049.07 1233.93 2048 1232.6 2048ZM1189.4 2049.6H1232.6C1233.04 2049.6 1233.4 2049.96 1233.4 2050.4V2081.6H1188.6V2050.4C1188.6 2049.96 1188.96 2049.6 1189.4 2049.6ZM1223.8 2093.6C1223.8 2094.04 1223.44 2094.4 1223 2094.4H1199C1198.56 2094.4 1198.2 2094.04 1198.2 2093.6C1198.2 2093.16 1198.56 2092.8 1199 2092.8H1223C1223.44 2092.8 1223.8 2093.16 1223.8 2093.6ZM1218.51 2091.2H1203.49L1205.09 2088H1216.91L1218.51 2091.2ZM1232.6 2086.4H1189.4C1188.96 2086.4 1188.6 2086.04 1188.6 2085.6V2083.2H1233.4V2085.6C1233.4 2086.04 1233.04 2086.4 1232.6 2086.4Z" fill="url(#paint14_linear_7965_739)"/>
<path d="M1208.15 2065.38C1208.83 2065.73 1209.64 2065.66 1210.24 2065.2L1214.94 2061.73C1215.48 2061.32 1215.8 2060.68 1215.8 2060C1215.8 2059.32 1215.48 2058.68 1214.94 2058.27L1210.24 2054.8C1209.64 2054.35 1208.83 2054.28 1208.15 2054.62C1207.44 2054.98 1206.99 2055.72 1207 2056.52V2063.48C1206.99 2064.28 1207.44 2065.02 1208.15 2065.38ZM1208.6 2056.52C1208.59 2056.32 1208.7 2056.14 1208.87 2056.04C1208.93 2056.01 1208.99 2056 1209.05 2056C1209.14 2056 1209.23 2056.03 1209.29 2056.08L1213.99 2059.56C1214.13 2059.67 1214.2 2059.83 1214.2 2060C1214.2 2060.17 1214.13 2060.33 1213.99 2060.44L1209.29 2063.92C1209.17 2064.02 1209.01 2064.03 1208.87 2063.96C1208.7 2063.87 1208.59 2063.68 1208.6 2063.48V2056.52Z" fill="url(#paint15_linear_7965_739)"/>
<path d="M1190.94 2079.2H1191C1191.42 2079.2 1191.77 2078.88 1191.8 2078.46C1191.81 2078.38 1192.43 2070.4 1197.8 2070.4C1203.16 2070.4 1203.8 2078.38 1203.8 2078.46C1203.83 2078.88 1204.18 2079.2 1204.6 2079.2C1205.02 2079.2 1205.37 2078.88 1205.4 2078.46C1205.41 2078.38 1206.03 2070.4 1211.4 2070.4C1216.76 2070.4 1217.4 2078.38 1217.4 2078.46C1217.43 2078.87 1217.77 2079.19 1218.18 2079.2H1218.2C1218.61 2079.2 1218.95 2078.89 1218.99 2078.49C1219 2078.41 1219.91 2071.08 1224.73 2070.45C1225.16 2071.99 1226.67 2072.98 1228.26 2072.75C1229.85 2072.52 1231.02 2071.14 1230.99 2069.54C1230.97 2067.93 1229.75 2066.6 1228.16 2066.42C1226.56 2066.24 1225.08 2067.27 1224.7 2068.83C1221.08 2069.18 1219.21 2072.24 1218.28 2074.79C1217.29 2071.83 1215.22 2068.8 1211.4 2068.8C1207.68 2068.8 1205.61 2071.68 1204.6 2074.56C1203.59 2071.68 1201.52 2068.8 1197.8 2068.8C1192.32 2068.8 1190.43 2075.04 1190.2 2078.34C1190.18 2078.56 1190.25 2078.77 1190.39 2078.93C1190.53 2079.09 1190.73 2079.19 1190.94 2079.2ZM1227.8 2068C1228.68 2068 1229.4 2068.72 1229.4 2069.6C1229.4 2070.48 1228.68 2071.2 1227.8 2071.2C1226.92 2071.2 1226.2 2070.48 1226.2 2069.6C1226.2 2068.72 1226.92 2068 1227.8 2068Z" fill="url(#paint16_linear_7965_739)"/>
</g>
<circle cx="50" cy="1496" r="49.5" fill="#171717" stroke="url(#paint17_linear_7965_739)"/>
<path d="M48.061 1496.28C47.6626 1496.28 47.341 1496.6 47.341 1497C47.341 1498.75 45.9202 1500.17 44.173 1500.17H43.2994C41.5522 1500.17 40.1314 1498.75 40.1314 1497V1493.44C40.1314 1489.54 36.9586 1486.37 33.061 1486.37H31.3426C30.9442 1486.37 30.6226 1486.69 30.6226 1487.09C30.6226 1487.48 30.9442 1487.81 31.3426 1487.81H33.061C36.1666 1487.81 38.6914 1490.33 38.6914 1493.44V1497C38.6914 1499.54 40.7602 1501.61 43.2994 1501.61H44.173C46.7122 1501.61 48.781 1499.54 48.781 1497C48.781 1496.6 48.4594 1496.28 48.061 1496.28Z" fill="url(#paint18_linear_7965_739)"/>
<path d="M70.4096 1476.1C69.584 1475.28 68.2304 1475.28 67.3952 1476.11L64.4576 1479.05H31.2704C29.3456 1479.05 27.7808 1480.62 27.7808 1482.54V1505.85C27.7808 1507.77 29.3456 1509.34 31.2704 1509.34H44.768C44.7536 1509.48 44.7392 1509.63 44.7104 1509.8C44.5232 1511.05 43.9328 1513.03 42.0608 1514.37C41.6528 1514.66 41.1872 1514.92 40.6544 1515.13C40.496 1515.2 40.3664 1515.32 40.2896 1515.46C40.2128 1515.6 40.1792 1515.77 40.2128 1515.94C40.28 1516.28 40.5728 1516.52 40.9184 1516.52H48.632H56.3456C56.6912 1516.52 56.9888 1516.28 57.0512 1515.94C57.0848 1515.78 57.056 1515.6 56.9744 1515.46C56.8976 1515.32 56.7728 1515.2 56.6096 1515.13C56.0768 1514.92 55.6064 1514.66 55.2032 1514.37C53.3312 1513.03 52.736 1511.05 52.5536 1509.8C52.5296 1509.63 52.5104 1509.48 52.496 1509.34H65.9936C67.9184 1509.34 69.4832 1507.77 69.4832 1505.85V1483.02L71.8928 1480.61C72.296 1480.21 72.5216 1479.67 72.5168 1479.09C72.5168 1478.52 72.2912 1477.99 71.8928 1477.59L70.4096 1476.1ZM51.8576 1494.61L53.3984 1496.15L51.5072 1496.49L51.8576 1494.61ZM51.0656 1509.33C51.0896 1509.59 51.128 1509.9 51.1904 1510.24C51.44 1511.61 52.0928 1513.58 53.7968 1515.08H48.632H43.472C45.176 1513.58 45.8288 1511.62 46.0784 1510.24C46.1408 1509.9 46.1792 1509.59 46.2032 1509.33H51.0656ZM68.048 1505.84C68.048 1506.97 67.1264 1507.89 65.9984 1507.89H51.7904H51.7856H31.2704C30.1424 1507.89 29.2208 1506.97 29.2208 1505.84V1482.54C29.2208 1481.41 30.1424 1480.49 31.2704 1480.49H63.0176L50.8976 1492.61C50.8928 1492.62 50.8928 1492.62 50.888 1492.62C50.8784 1492.63 50.8736 1492.64 50.8592 1492.65C50.816 1492.71 50.7776 1492.76 50.7488 1492.82C50.7344 1492.86 50.7248 1492.89 50.7152 1492.92C50.7056 1492.95 50.696 1492.97 50.6912 1493L49.9088 1497.26C49.8656 1497.49 49.9424 1497.73 50.1104 1497.9C50.1488 1497.94 50.192 1497.97 50.2352 1498C50.2496 1498.01 50.264 1498.02 50.2784 1498.03C50.312 1498.04 50.3456 1498.06 50.384 1498.07C50.3984 1498.08 50.4176 1498.08 50.432 1498.09C50.4704 1498.1 50.504 1498.1 50.5424 1498.11C50.5568 1498.11 50.576 1498.11 50.5904 1498.11C50.6 1498.11 50.6096 1498.12 50.6192 1498.12C50.6624 1498.12 50.7056 1498.11 50.7488 1498.11L55.016 1497.32C55.0448 1497.32 55.0688 1497.31 55.0976 1497.3C55.1264 1497.29 55.1552 1497.28 55.184 1497.27C55.256 1497.23 55.3232 1497.19 55.3808 1497.13C55.3856 1497.13 55.3904 1497.13 55.3904 1497.12L68.048 1484.46V1505.84ZM70.88 1479.59L54.8816 1495.59L52.4144 1493.12L65.264 1480.28C65.2688 1480.27 65.2688 1480.27 65.2736 1480.26L68.408 1477.13C68.6816 1476.86 69.1184 1476.85 69.3872 1477.12L70.88 1478.61C71.0096 1478.74 71.0816 1478.91 71.0816 1479.09C71.0816 1479.29 71.0096 1479.46 70.88 1479.59Z" fill="url(#paint19_linear_7965_739)"/>
<circle cx="1211" cy="920" r="49.5" fill="#171717" stroke="url(#paint20_linear_7965_739)"/>
<path d="M1229.75 897.5H1192.25C1190.18 897.5 1188.5 899.182 1188.5 901.25V938.75C1188.5 940.818 1190.18 942.5 1192.25 942.5H1229.75C1231.82 942.5 1233.5 940.818 1233.5 938.75V901.25C1233.5 899.182 1231.82 897.5 1229.75 897.5ZM1232 938.75C1232 939.991 1230.99 941 1229.75 941H1192.25C1191.01 941 1190 939.991 1190 938.75V901.25C1190 900.009 1191.01 899 1192.25 899H1229.75C1230.99 899 1232 900.009 1232 901.25V938.75Z" fill="url(#paint21_linear_7965_739)"/>
<path d="M1193.75 911.359H1211C1211.41 911.359 1211.75 911.024 1211.75 910.609V901.594C1211.75 901.179 1211.41 900.844 1211 900.844H1193.75C1193.34 900.844 1193 901.179 1193 901.594V910.609C1193 911.024 1193.34 911.359 1193.75 911.359ZM1194.5 909.859V908.065L1199.73 905.339L1203.99 908.231C1204.21 908.377 1204.48 908.402 1204.72 908.295L1207.78 906.927L1210.25 908.087V909.859L1194.5 909.859ZM1210.25 902.344V906.429L1208.11 905.423C1207.91 905.329 1207.68 905.329 1207.48 905.417L1204.49 906.755L1200.21 903.847C1199.98 903.691 1199.68 903.674 1199.44 903.802L1194.5 906.374V902.344H1210.25Z" fill="url(#paint22_linear_7965_739)"/>
<path d="M1228.25 914.743H1211C1210.59 914.743 1210.25 915.078 1210.25 915.493V924.507C1210.25 924.922 1210.59 925.257 1211 925.257H1228.25C1228.66 925.257 1229 924.922 1229 924.507V915.493C1229 915.078 1228.66 914.743 1228.25 914.743ZM1227.5 916.243V921.208L1219.94 917.722C1219.74 917.63 1219.51 917.63 1219.31 917.722L1211.75 921.208V916.243H1227.5ZM1211.75 923.757V922.86L1219.62 919.229L1227.5 922.86V923.757H1211.75Z" fill="url(#paint23_linear_7965_739)"/>
<path d="M1211 928.641H1193.75C1193.34 928.641 1193 928.977 1193 929.391V938.406C1193 938.821 1193.34 939.156 1193.75 939.156H1211C1211.41 939.156 1211.75 938.821 1211.75 938.406V929.391C1211.75 928.977 1211.41 928.641 1211 928.641ZM1210.25 930.141V934.268H1203.49C1203.29 934.268 1203.12 934.102 1203.12 933.898C1203.12 932.868 1202.29 932.03 1201.26 932.03H1194.5V930.141H1210.25ZM1194.5 937.656V933.53H1201.26C1201.46 933.53 1201.62 933.696 1201.62 933.898C1201.62 934.929 1202.46 935.768 1203.49 935.768H1210.25V937.656H1194.5Z" fill="url(#paint24_linear_7965_739)"/>
<path d="M1228.25 900.844H1214.75C1214.34 900.844 1214 901.179 1214 901.594C1214 902.008 1214.34 902.344 1214.75 902.344H1228.25C1228.66 902.344 1229 902.008 1229 901.594C1229 901.179 1228.66 900.844 1228.25 900.844Z" fill="url(#paint25_linear_7965_739)"/>
<path d="M1214.75 906.852H1224.5C1224.91 906.852 1225.25 906.516 1225.25 906.102C1225.25 905.687 1224.91 905.352 1224.5 905.352H1214.75C1214.34 905.352 1214 905.687 1214 906.102C1214 906.516 1214.34 906.852 1214.75 906.852Z" fill="url(#paint26_linear_7965_739)"/>
<path d="M1228.25 909.859H1214.75C1214.34 909.859 1214 910.194 1214 910.609C1214 911.023 1214.34 911.359 1214.75 911.359H1228.25C1228.66 911.359 1229 911.023 1229 910.609C1229 910.194 1228.66 909.859 1228.25 909.859Z" fill="url(#paint27_linear_7965_739)"/>
<path d="M1228.25 928.641H1214.75C1214.34 928.641 1214 928.977 1214 929.391C1214 929.806 1214.34 930.141 1214.75 930.141H1228.25C1228.66 930.141 1229 929.806 1229 929.391C1229 928.977 1228.66 928.641 1228.25 928.641Z" fill="url(#paint28_linear_7965_739)"/>
<path d="M1214.75 934.648H1224.5C1224.91 934.648 1225.25 934.313 1225.25 933.898C1225.25 933.484 1224.91 933.148 1224.5 933.148H1214.75C1214.34 933.148 1214 933.484 1214 933.898C1214 934.313 1214.34 934.648 1214.75 934.648Z" fill="url(#paint29_linear_7965_739)"/>
<path d="M1228.25 937.656H1214.75C1214.34 937.656 1214 937.992 1214 938.406C1214 938.821 1214.34 939.156 1214.75 939.156H1228.25C1228.66 939.156 1229 938.821 1229 938.406C1229 937.992 1228.66 937.656 1228.25 937.656Z" fill="url(#paint30_linear_7965_739)"/>
<path d="M1193.75 925.257H1207.25C1207.66 925.257 1208 924.922 1208 924.507C1208 924.093 1207.66 923.757 1207.25 923.757H1193.75C1193.34 923.757 1193 924.093 1193 924.507C1193 924.922 1193.34 925.257 1193.75 925.257Z" fill="url(#paint31_linear_7965_739)"/>
<path d="M1207.25 919.25H1197.5C1197.09 919.25 1196.75 919.585 1196.75 920C1196.75 920.415 1197.09 920.75 1197.5 920.75H1207.25C1207.66 920.75 1208 920.415 1208 920C1208 919.585 1207.66 919.25 1207.25 919.25Z" fill="url(#paint32_linear_7965_739)"/>
<path d="M1193.75 916.243H1207.25C1207.66 916.243 1208 915.907 1208 915.493C1208 915.078 1207.66 914.743 1207.25 914.743H1193.75C1193.34 914.743 1193 915.078 1193 915.493C1193 915.907 1193.34 916.243 1193.75 916.243Z" fill="url(#paint33_linear_7965_739)"/>
<circle cx="50" cy="344" r="49.5" fill="#171717" stroke="url(#paint34_linear_7965_739)"/>
<g clip-path="url(#clip2_7965_739)">
<path d="M70.6302 326.076H54.7949C55.5957 324.153 54.8638 321.881 53.0125 320.812C51.0013 319.651 48.4202 320.342 47.259 322.354L45.1102 326.076H30.2487C27.906 326.076 26 327.982 26 330.324V356.802C26 359.144 27.906 361.05 30.2487 361.05H43.4145C43.5751 362.485 43.4754 364.202 43.1375 365.878H37.8558C37.3381 365.878 36.9183 366.298 36.9183 366.816C36.9183 367.333 37.3381 367.753 37.8558 367.753H62.1448C62.6624 367.753 63.0823 367.333 63.0823 366.816C63.0823 366.298 62.6624 365.878 62.1448 365.878H56.8111C56.4431 364.186 56.3244 362.469 56.4812 361.05H69.7512C72.094 361.05 74 359.144 74 356.802V329.446C74 327.588 72.4883 326.076 70.6302 326.076ZM39.2568 341.337L42.1155 342.987L39.2568 344.638V341.337ZM43.6474 341.707L39.5999 339.37L47.2814 326.065L51.3289 328.402L43.6474 341.707ZM52.0751 322.436C53.1909 323.08 53.5746 324.512 52.9304 325.628L52.2664 326.778L48.2189 324.441L48.883 323.291C49.5272 322.175 50.9591 321.792 52.0751 322.436ZM30.2487 327.951H44.0277L37.5074 339.244C37.4251 339.387 37.3818 339.548 37.3818 339.713V346.262C37.3818 346.779 37.8016 347.199 38.3193 347.199H61.6807C62.1984 347.199 62.6182 346.779 62.6182 346.262C62.6182 345.744 62.1984 345.324 61.6807 345.324H41.8182L44.4594 343.799C44.602 343.717 44.7202 343.598 44.8025 343.456L53.7545 327.951H70.6302C71.4544 327.951 72.125 328.622 72.125 329.446V352.589H27.875V330.324C27.875 329.016 28.9398 327.951 30.2487 327.951ZM54.8973 365.878H45.0458C45.3482 364.212 45.4392 362.518 45.3001 361.05H54.596C54.4615 362.506 54.569 364.2 54.8973 365.878ZM69.7512 359.175H30.2487C28.9398 359.175 27.875 358.111 27.875 356.802V354.464H72.125V356.802C72.125 358.111 71.0601 359.175 69.7512 359.175ZM62.6182 340.589C62.6182 341.106 62.1984 341.526 61.6807 341.526H51.9686C51.4509 341.526 51.0311 341.106 51.0311 340.589C51.0311 340.071 51.4509 339.651 51.9686 339.651H61.6807C62.1984 339.651 62.6182 340.071 62.6182 340.589Z" fill="url(#paint35_linear_7965_739)"/>
</g>
<defs>
<linearGradient id="paint0_linear_7965_739" x1="210.644" y1="2835.28" x2="1705.34" y2="2306.32" gradientUnits="userSpaceOnUse">
<stop offset="2.85827e-07" stop-color="#29AAE1"/>
<stop offset="0.5052" stop-color="#F68722"/>
<stop offset="1" stop-color="#F9CD14"/>
</linearGradient>
<linearGradient id="paint1_linear_7965_739" x1="567.214" y1="3357.03" x2="694.201" y2="3230.28" gradientUnits="userSpaceOnUse">
<stop offset="2.85827e-07" stop-color="#29AAE1"/>
<stop offset="0.5052" stop-color="#F68722"/>
<stop offset="1" stop-color="#F9CD14"/>
</linearGradient>
<linearGradient id="paint2_linear_7965_739" x1="13.8367" y1="2684.31" x2="86.4004" y2="2611.87" gradientUnits="userSpaceOnUse">
<stop offset="2.85827e-07" stop-color="#29AAE1"/>
<stop offset="0.5052" stop-color="#F68722"/>
<stop offset="1" stop-color="#F9CD14"/>
</linearGradient>
<linearGradient id="paint3_linear_7965_739" x1="26.0108" y1="2664.94" x2="40.1607" y2="2664.94" gradientUnits="userSpaceOnUse">
<stop offset="2.85827e-07" stop-color="#29AAE1"/>
<stop offset="0.5052" stop-color="#F68722"/>
<stop offset="1" stop-color="#F9CD14"/>
</linearGradient>
<linearGradient id="paint4_linear_7965_739" x1="59.8756" y1="2664.91" x2="74.0003" y2="2664.91" gradientUnits="userSpaceOnUse">
<stop offset="2.85827e-07" stop-color="#29AAE1"/>
<stop offset="0.5052" stop-color="#F68722"/>
<stop offset="1" stop-color="#F9CD14"/>
</linearGradient>
<linearGradient id="paint5_linear_7965_739" x1="25.9996" y1="2631.08" x2="40.1604" y2="2631.08" gradientUnits="userSpaceOnUse">
<stop offset="2.85827e-07" stop-color="#29AAE1"/>
<stop offset="0.5052" stop-color="#F68722"/>
<stop offset="1" stop-color="#F9CD14"/>
</linearGradient>
<linearGradient id="paint6_linear_7965_739" x1="59.8389" y1="2631.06" x2="73.9891" y2="2631.06" gradientUnits="userSpaceOnUse">
<stop offset="2.85827e-07" stop-color="#29AAE1"/>
<stop offset="0.5052" stop-color="#F68722"/>
<stop offset="1" stop-color="#F9CD14"/>
</linearGradient>
<linearGradient id="paint7_linear_7965_739" x1="30.4313" y1="2661.79" x2="41.9927" y2="2661.79" gradientUnits="userSpaceOnUse">
<stop offset="2.85827e-07" stop-color="#29AAE1"/>
<stop offset="0.5052" stop-color="#F68722"/>
<stop offset="1" stop-color="#F9CD14"/>
</linearGradient>
<linearGradient id="paint8_linear_7965_739" x1="58.007" y1="2661.79" x2="69.5682" y2="2661.79" gradientUnits="userSpaceOnUse">
<stop offset="2.85827e-07" stop-color="#29AAE1"/>
<stop offset="0.5052" stop-color="#F68722"/>
<stop offset="1" stop-color="#F9CD14"/>
</linearGradient>
<linearGradient id="paint9_linear_7965_739" x1="30.4318" y1="2634.21" x2="41.9931" y2="2634.21" gradientUnits="userSpaceOnUse">
<stop offset="2.85827e-07" stop-color="#29AAE1"/>
<stop offset="0.5052" stop-color="#F68722"/>
<stop offset="1" stop-color="#F9CD14"/>
</linearGradient>
<linearGradient id="paint10_linear_7965_739" x1="58.007" y1="2634.21" x2="69.5685" y2="2634.21" gradientUnits="userSpaceOnUse">
<stop offset="2.85827e-07" stop-color="#29AAE1"/>
<stop offset="0.5052" stop-color="#F68722"/>
<stop offset="1" stop-color="#F9CD14"/>
</linearGradient>
<linearGradient id="paint11_linear_7965_739" x1="33.1992" y1="2648" x2="66.8008" y2="2648" gradientUnits="userSpaceOnUse">
<stop offset="2.85827e-07" stop-color="#29AAE1"/>
<stop offset="0.5052" stop-color="#F68722"/>
<stop offset="1" stop-color="#F9CD14"/>
</linearGradient>
<linearGradient id="paint12_linear_7965_739" x1="41.1997" y1="2648.12" x2="57.2004" y2="2648.12" gradientUnits="userSpaceOnUse">
<stop offset="2.85827e-07" stop-color="#29AAE1"/>
<stop offset="0.5052" stop-color="#F68722"/>
<stop offset="1" stop-color="#F9CD14"/>
</linearGradient>
<linearGradient id="paint13_linear_7965_739" x1="1174.84" y1="2108.31" x2="1247.4" y2="2035.87" gradientUnits="userSpaceOnUse">
<stop offset="2.85827e-07" stop-color="#29AAE1"/>
<stop offset="0.5052" stop-color="#F68722"/>
<stop offset="1" stop-color="#F9CD14"/>
</linearGradient>
<linearGradient id="paint14_linear_7965_739" x1="1187" y1="2072" x2="1235" y2="2072" gradientUnits="userSpaceOnUse">
<stop offset="2.85827e-07" stop-color="#29AAE1"/>
<stop offset="0.5052" stop-color="#F68722"/>
<stop offset="1" stop-color="#F9CD14"/>
</linearGradient>
<linearGradient id="paint15_linear_7965_739" x1="1207" y1="2060" x2="1215.8" y2="2060" gradientUnits="userSpaceOnUse">
<stop offset="2.85827e-07" stop-color="#29AAE1"/>
<stop offset="0.5052" stop-color="#F68722"/>
<stop offset="1" stop-color="#F9CD14"/>
</linearGradient>
<linearGradient id="paint16_linear_7965_739" x1="1190.2" y1="2072.8" x2="1230.99" y2="2072.8" gradientUnits="userSpaceOnUse">
<stop offset="2.85827e-07" stop-color="#29AAE1"/>
<stop offset="0.5052" stop-color="#F68722"/>
<stop offset="1" stop-color="#F9CD14"/>
</linearGradient>
<linearGradient id="paint17_linear_7965_739" x1="13.8367" y1="1532.31" x2="86.4004" y2="1459.87" gradientUnits="userSpaceOnUse">
<stop offset="2.85827e-07" stop-color="#29AAE1"/>
<stop offset="0.5052" stop-color="#F68722"/>
<stop offset="1" stop-color="#F9CD14"/>
</linearGradient>
<linearGradient id="paint18_linear_7965_739" x1="30.622" y1="1493.99" x2="48.7814" y2="1493.99" gradientUnits="userSpaceOnUse">
<stop offset="2.85827e-07" stop-color="#29AAE1"/>
<stop offset="0.5052" stop-color="#F68722"/>
<stop offset="1" stop-color="#F9CD14"/>
</linearGradient>
<linearGradient id="paint19_linear_7965_739" x1="27.7795" y1="1496" x2="72.5179" y2="1496" gradientUnits="userSpaceOnUse">
<stop offset="2.85827e-07" stop-color="#29AAE1"/>
<stop offset="0.5052" stop-color="#F68722"/>
<stop offset="1" stop-color="#F9CD14"/>
</linearGradient>
<linearGradient id="paint20_linear_7965_739" x1="1174.84" y1="956.305" x2="1247.4" y2="883.872" gradientUnits="userSpaceOnUse">
<stop offset="2.85827e-07" stop-color="#29AAE1"/>
<stop offset="0.5052" stop-color="#F68722"/>
<stop offset="1" stop-color="#F9CD14"/>
</linearGradient>
<linearGradient id="paint21_linear_7965_739" x1="1188.5" y1="919.998" x2="1233.5" y2="919.998" gradientUnits="userSpaceOnUse">
<stop offset="2.85827e-07" stop-color="#29AAE1"/>
<stop offset="0.5052" stop-color="#F68722"/>
<stop offset="1" stop-color="#F9CD14"/>
</linearGradient>
<linearGradient id="paint22_linear_7965_739" x1="1193" y1="906.101" x2="1211.75" y2="906.101" gradientUnits="userSpaceOnUse">
<stop offset="2.85827e-07" stop-color="#29AAE1"/>
<stop offset="0.5052" stop-color="#F68722"/>
<stop offset="1" stop-color="#F9CD14"/>
</linearGradient>
<linearGradient id="paint23_linear_7965_739" x1="1210.25" y1="920" x2="1229" y2="920" gradientUnits="userSpaceOnUse">
<stop offset="2.85827e-07" stop-color="#29AAE1"/>
<stop offset="0.5052" stop-color="#F68722"/>
<stop offset="1" stop-color="#F9CD14"/>
</linearGradient>
<linearGradient id="paint24_linear_7965_739" x1="1193" y1="933.898" x2="1211.75" y2="933.898" gradientUnits="userSpaceOnUse">
<stop offset="2.85827e-07" stop-color="#29AAE1"/>
<stop offset="0.5052" stop-color="#F68722"/>
<stop offset="1" stop-color="#F9CD14"/>
</linearGradient>
<linearGradient id="paint25_linear_7965_739" x1="1214" y1="901.594" x2="1229" y2="901.594" gradientUnits="userSpaceOnUse">
<stop offset="2.85827e-07" stop-color="#29AAE1"/>
<stop offset="0.5052" stop-color="#F68722"/>
<stop offset="1" stop-color="#F9CD14"/>
</linearGradient>
<linearGradient id="paint26_linear_7965_739" x1="1214" y1="906.102" x2="1225.25" y2="906.102" gradientUnits="userSpaceOnUse">
<stop offset="2.85827e-07" stop-color="#29AAE1"/>
<stop offset="0.5052" stop-color="#F68722"/>
<stop offset="1" stop-color="#F9CD14"/>
</linearGradient>
<linearGradient id="paint27_linear_7965_739" x1="1214" y1="910.609" x2="1229" y2="910.609" gradientUnits="userSpaceOnUse">
<stop offset="2.85827e-07" stop-color="#29AAE1"/>
<stop offset="0.5052" stop-color="#F68722"/>
<stop offset="1" stop-color="#F9CD14"/>
</linearGradient>
<linearGradient id="paint28_linear_7965_739" x1="1214" y1="929.391" x2="1229" y2="929.391" gradientUnits="userSpaceOnUse">
<stop offset="2.85827e-07" stop-color="#29AAE1"/>
<stop offset="0.5052" stop-color="#F68722"/>
<stop offset="1" stop-color="#F9CD14"/>
</linearGradient>
<linearGradient id="paint29_linear_7965_739" x1="1214" y1="933.898" x2="1225.25" y2="933.898" gradientUnits="userSpaceOnUse">
<stop offset="2.85827e-07" stop-color="#29AAE1"/>
<stop offset="0.5052" stop-color="#F68722"/>
<stop offset="1" stop-color="#F9CD14"/>
</linearGradient>
<linearGradient id="paint30_linear_7965_739" x1="1214" y1="938.406" x2="1229" y2="938.406" gradientUnits="userSpaceOnUse">
<stop offset="2.85827e-07" stop-color="#29AAE1"/>
<stop offset="0.5052" stop-color="#F68722"/>
<stop offset="1" stop-color="#F9CD14"/>
</linearGradient>
<linearGradient id="paint31_linear_7965_739" x1="1193" y1="924.507" x2="1208" y2="924.507" gradientUnits="userSpaceOnUse">
<stop offset="2.85827e-07" stop-color="#29AAE1"/>
<stop offset="0.5052" stop-color="#F68722"/>
<stop offset="1" stop-color="#F9CD14"/>
</linearGradient>
<linearGradient id="paint32_linear_7965_739" x1="1196.75" y1="920" x2="1208" y2="920" gradientUnits="userSpaceOnUse">
<stop offset="2.85827e-07" stop-color="#29AAE1"/>
<stop offset="0.5052" stop-color="#F68722"/>
<stop offset="1" stop-color="#F9CD14"/>
</linearGradient>
<linearGradient id="paint33_linear_7965_739" x1="1193" y1="915.493" x2="1208" y2="915.493" gradientUnits="userSpaceOnUse">
<stop offset="2.85827e-07" stop-color="#29AAE1"/>
<stop offset="0.5052" stop-color="#F68722"/>
<stop offset="1" stop-color="#F9CD14"/>
</linearGradient>
<linearGradient id="paint34_linear_7965_739" x1="13.8367" y1="380.305" x2="86.4004" y2="307.872" gradientUnits="userSpaceOnUse">
<stop offset="2.85827e-07" stop-color="#29AAE1"/>
<stop offset="0.5052" stop-color="#F68722"/>
<stop offset="1" stop-color="#F9CD14"/>
</linearGradient>
<linearGradient id="paint35_linear_7965_739" x1="25.9986" y1="343.999" x2="74.0011" y2="343.999" gradientUnits="userSpaceOnUse">
<stop offset="2.85827e-07" stop-color="#29AAE1"/>
<stop offset="0.5052" stop-color="#F68722"/>
<stop offset="1" stop-color="#F9CD14"/>
</linearGradient>
<clipPath id="clip0_7965_739">
<rect width="48" height="48" fill="white" transform="translate(26 2624)"/>
</clipPath>
<clipPath id="clip1_7965_739">
<rect width="48" height="48" fill="white" transform="translate(1187 2048)"/>
</clipPath>
<clipPath id="clip2_7965_739">
<rect width="48" height="48" fill="white" transform="translate(26 320)"/>
</clipPath>
</defs>
</svg>
