<svg width="195" height="195" viewBox="0 0 195 195" fill="none" xmlns="http://www.w3.org/2000/svg">
<path d="M0.5 194.5L97.366 194.5V186.215L0.5 186.215L0.5 194.5ZM152.281 97.608L98.7138 194.5H140.923L194.428 96.8507L140.675 0.730545L98.7175 0.504593L152.281 97.1237L152.415 97.3657L152.281 97.608ZM97.366 8.78485V0.5L0.5 0.5L0.5 8.78485L97.366 8.78485ZM97.366 167.645H0.5L0.5 175.93H97.366V167.645ZM97.366 149.076H0.5L0.5 157.361H97.366L97.366 149.076ZM97.366 130.506H0.5L0.5 138.791H97.366V130.506ZM97.366 111.936L0.5 111.936L0.5 120.221L97.366 120.221V111.936ZM97.366 93.3486L0.5 93.3486L0.5 101.634L97.366 101.634V93.3486ZM97.366 74.7789L0.5 74.7789L0.5 83.0638L97.366 83.0638V74.7789ZM97.366 56.2092L0.5 56.2092L0.5 64.494L97.366 64.494L97.366 56.2092ZM97.366 37.6395L0.5 37.6395L0.5 45.9243L97.366 45.9243V37.6395ZM97.366 19.0697L0.5 19.0697L0.5 27.3546L97.366 27.3546V19.0697Z" stroke="url(#paint0_linear_7867_19650)"/>
<defs>
<linearGradient id="paint0_linear_7867_19650" x1="26.9816" y1="26.7049" x2="168.481" y2="167.949" gradientUnits="userSpaceOnUse">
<stop offset="2.85827e-07" stop-color="#29AAE1"/>
<stop offset="0.5052" stop-color="#F68722"/>
<stop offset="1" stop-color="#F9CD14"/>
</linearGradient>
</defs>
</svg>
