<svg width="215" height="359" viewBox="0 0 215 359" fill="none" xmlns="http://www.w3.org/2000/svg">
<path d="M71.8605 72.1508H0.290527V143.721H71.8605V72.1508Z" fill="url(#paint0_linear_7867_5754)"/>
<path d="M143.57 0H72.0005V71.5698H143.57V0Z" fill="url(#paint1_linear_7867_5754)"/>
<path d="M143.57 287H72.0005V358.57H143.57V287Z" fill="url(#paint2_linear_7867_5754)"/>
<path d="M215 72.1508H143.43V143.721H215V72.1508Z" fill="url(#paint3_linear_7867_5754)"/>
<path d="M215 215.291H143.43V286.86H215V215.291Z" fill="url(#paint4_linear_7867_5754)"/>
<path d="M143.57 144H72.0005V215.57H143.57V144Z" fill="url(#paint5_linear_7867_5754)"/>
<defs>
<linearGradient id="paint0_linear_7867_5754" x1="586.435" y1="-209.815" x2="-175.598" y2="230.145" gradientUnits="userSpaceOnUse">
<stop offset="2.85827e-07" stop-color="#29AAE1"/>
<stop offset="0.5052" stop-color="#F68722"/>
<stop offset="1" stop-color="#F9CD14"/>
</linearGradient>
<linearGradient id="paint1_linear_7867_5754" x1="319.467" y1="-86.4205" x2="-442.566" y2="353.54" gradientUnits="userSpaceOnUse">
<stop offset="2.85827e-07" stop-color="#29AAE1"/>
<stop offset="0.5052" stop-color="#F68722"/>
<stop offset="1" stop-color="#F9CD14"/>
</linearGradient>
<linearGradient id="paint2_linear_7867_5754" x1="404.129" y1="151.695" x2="-357.903" y2="591.654" gradientUnits="userSpaceOnUse">
<stop offset="2.85827e-07" stop-color="#29AAE1"/>
<stop offset="0.5052" stop-color="#F68722"/>
<stop offset="1" stop-color="#F9CD14"/>
</linearGradient>
<linearGradient id="paint3_linear_7867_5754" x1="729.578" y1="-209.815" x2="-32.455" y2="230.145" gradientUnits="userSpaceOnUse">
<stop offset="2.85827e-07" stop-color="#29AAE1"/>
<stop offset="0.5052" stop-color="#F68722"/>
<stop offset="1" stop-color="#F9CD14"/>
</linearGradient>
<linearGradient id="paint4_linear_7867_5754" x1="644.908" y1="-17.7872" x2="-117.125" y2="422.173" gradientUnits="userSpaceOnUse">
<stop offset="2.85827e-07" stop-color="#29AAE1"/>
<stop offset="0.5052" stop-color="#F68722"/>
<stop offset="1" stop-color="#F9CD14"/>
</linearGradient>
<linearGradient id="paint5_linear_7867_5754" x1="488.799" y1="-40.1933" x2="-273.233" y2="399.766" gradientUnits="userSpaceOnUse">
<stop offset="2.85827e-07" stop-color="#29AAE1"/>
<stop offset="0.5052" stop-color="#F68722"/>
<stop offset="1" stop-color="#F9CD14"/>
</linearGradient>
</defs>
</svg>
