<svg width="110" height="110" viewBox="0 0 110 110" fill="none" xmlns="http://www.w3.org/2000/svg">
<path d="M0.5 0.5L0.499998 54.31L4.7 54.31L4.7 0.5L0.5 0.5ZM54.4381 85.4776L0.499998 55.6577L0.499997 78.7938L54.9675 108.638L108.582 78.6558L108.705 55.6614L54.9224 85.4773L54.6803 85.6115L54.4381 85.4776ZM104.51 54.31L108.71 54.31L108.71 0.500005L104.51 0.500005L104.51 54.31ZM15.1 54.31L15.1 0.500001L10.9 0.5L10.9 54.31L15.1 54.31ZM25.5 54.31L25.5 0.500001L21.3 0.500001L21.3 54.31L25.5 54.31ZM35.9 54.31L35.9 0.500002L31.7 0.500001L31.7 54.31L35.9 54.31ZM46.3 54.31L46.3 0.500002L42.1 0.500002L42.1 54.31L46.3 54.31ZM56.71 54.31L56.71 0.500002L52.51 0.500002L52.51 54.31L56.71 54.31ZM67.11 54.31L67.11 0.500003L62.91 0.500003L62.91 54.31L67.11 54.31ZM77.51 54.31L77.51 0.500003L73.31 0.500003L73.31 54.31L77.51 54.31ZM87.91 54.31L87.91 0.500004L83.71 0.500004L83.71 54.31L87.91 54.31ZM98.31 54.31L98.31 0.500004L94.11 0.500004L94.11 54.31L98.31 54.31Z" stroke="url(#paint0_linear_7867_5832)"/>
<defs>
<linearGradient id="paint0_linear_7867_5832" x1="94.2539" y1="15.1111" x2="15.1501" y2="94.3579" gradientUnits="userSpaceOnUse">
<stop offset="2.85827e-07" stop-color="#29AAE1"/>
<stop offset="0.5052" stop-color="#F68722"/>
<stop offset="1" stop-color="#F9CD14"/>
</linearGradient>
</defs>
</svg>
