<svg width="148" height="194" viewBox="0 0 148 194" fill="none" xmlns="http://www.w3.org/2000/svg">
<mask id="path-1-inside-1_7867_948" fill="white">
<path d="M204 102.108V147.584C200.961 150.872 197.83 154.16 194.577 157.386C191.446 160.49 188.223 163.532 184.908 166.451C181.715 169.339 178.4 172.105 175.024 174.778C171.862 177.236 168.639 179.633 165.355 181.876C162.224 184.058 158.97 186.086 155.717 188.022C152.494 189.927 149.178 191.678 145.802 193.276C142.64 194.782 139.448 196.195 136.164 197.394C133.002 198.561 129.841 199.606 126.587 200.497C124.162 201.142 121.676 201.726 119.189 202.218C118.33 202.402 117.44 202.556 116.58 202.679C113.449 203.201 110.257 203.57 107.034 203.785C106.973 203.816 106.942 203.816 106.911 203.816C105.653 203.908 104.364 203.939 103.074 203.969C102.43 204 101.785 204 101.141 204C100.342 204 99.5137 203.969 98.7156 203.969C98.2552 203.939 97.8255 203.939 97.365 203.908H97.3036C94.0807 203.754 90.827 203.478 87.5426 202.986C87.4812 202.986 87.4505 202.955 87.3891 202.955C87.3584 202.925 87.3277 202.925 87.3277 202.925C84.1354 202.464 80.9738 201.788 77.8736 200.989C77.8122 200.958 77.7508 200.958 77.7201 200.927C74.4971 200.128 71.3355 199.114 68.2353 197.977C68.1739 197.947 68.1125 197.916 68.0512 197.916C64.7668 196.718 61.5131 195.335 58.3208 193.798C58.2594 193.768 58.198 193.737 58.1366 193.706C54.9136 192.17 51.752 190.48 48.6518 188.667C48.5904 188.636 48.529 188.575 48.4676 188.544C45.2447 186.67 42.0831 184.642 39.0135 182.491C38.9522 182.429 38.8601 182.399 38.7987 182.337C35.4836 180.033 32.2606 177.605 29.099 175.116C29.0069 175.055 28.9455 174.993 28.8841 174.932C25.6611 172.351 22.5302 169.677 19.4607 166.912C19.3686 166.82 19.3073 166.758 19.2459 166.697C16.9437 164.638 14.703 162.579 12.4929 160.459L9.82245 157.632L9.57689 157.386L0 147.308V102.108L12.5543 115.32C25.3235 127.581 39.6888 139.196 55.7117 147.308C65.5955 152.316 76.0933 156.004 87.2049 157.663C108.784 160.889 128.797 156.342 147.091 147.308C168.67 136.645 187.793 119.745 204 102.108ZM194.331 46.46L194.085 46.2142V92.3362L203.969 102.108V56.6308L194.331 46.46ZM0 56.6001V102.108L9.63828 92.3362V46.5522C6.3232 49.84 3.10021 53.2201 0 56.6001ZM19.031 37.4876V83.5789L28.9148 75.5897V29.1604C25.5384 31.8337 22.254 34.5992 19.031 37.4876ZM175.024 28.9453C174.962 28.8839 174.901 28.8224 174.809 28.761V76.0813C177.94 78.2015 180.672 80.9056 183.68 83.1794C183.925 83.3945 183.987 83.671 184.447 83.5481V36.9345C181.378 34.1997 178.247 31.5264 175.024 28.9453ZM155.471 15.3638C155.41 15.333 155.348 15.2716 155.287 15.2409V63.1143L164.925 69.0755V21.3864C161.825 19.2354 158.694 17.2381 155.471 15.3638ZM38.5838 22.0624V68.8296C41.8375 67.0474 44.8149 64.7429 48.2221 63.2372V15.9476C44.9377 17.8527 41.7147 19.8807 38.5838 22.0624ZM135.918 5.99187C135.857 5.96114 135.795 5.93041 135.734 5.93041V54.2033L141.781 56.6001L145.618 58.1365V10.1094C142.456 8.57298 139.203 7.19024 135.918 5.99187ZM58.1059 10.6932V58.1672L62.0656 56.6001L67.7442 54.357V6.57569C64.4598 7.80479 61.2675 9.18753 58.1059 10.6932ZM77.3825 3.44148V51.315L87.2663 49.164V1.29056C83.9206 1.84365 80.6362 2.58111 77.3825 3.44148ZM116.642 1.01401C116.611 1.01401 116.58 1.01401 116.58 0.983281C116.519 0.983281 116.488 0.952553 116.427 0.952553V49.502L126.065 51.2842V2.91911C122.995 2.1202 119.865 1.47492 116.642 1.01401ZM96.9353 0V48.5188C100.066 48.0578 103.443 48.1808 106.574 48.5188V0H96.9353ZM87.2049 87.2969C79.1014 95.409 79.1014 108.53 87.2049 116.642C95.3085 124.754 108.415 124.754 116.519 116.642C124.622 108.53 124.622 95.409 116.519 87.2969C108.446 79.2155 95.3085 79.2155 87.2049 87.2969Z"/>
</mask>
<path d="M204 102.108H205V99.5413L203.264 101.431L204 102.108ZM204 147.584L204.734 148.263L205 147.976V147.584H204ZM194.577 157.386L195.281 158.097L195.281 158.096L194.577 157.386ZM184.908 166.451L184.247 165.7L184.237 165.709L184.908 166.451ZM175.024 174.778L175.638 175.568L175.645 175.562L175.024 174.778ZM165.355 181.876L164.791 181.05L164.783 181.056L165.355 181.876ZM155.717 188.022L156.225 188.883L156.228 188.881L155.717 188.022ZM145.802 193.276L145.374 192.372L145.372 192.373L145.802 193.276ZM136.164 197.394L135.821 196.454L135.817 196.456L136.164 197.394ZM126.587 200.497L126.844 201.463L126.851 201.462L126.587 200.497ZM119.189 202.218L118.995 201.237L118.987 201.238L118.98 201.24L119.189 202.218ZM116.58 202.679L116.439 201.689L116.427 201.69L116.416 201.692L116.58 202.679ZM107.034 203.785L106.967 202.787L106.766 202.801L106.586 202.891L107.034 203.785ZM106.911 203.816V202.816H106.875L106.838 202.818L106.911 203.816ZM103.074 203.969L103.051 202.97L103.039 202.97L103.027 202.97L103.074 203.969ZM98.7156 203.969L98.649 204.967L98.6823 204.969H98.7156V203.969ZM97.365 203.908L97.4316 202.91L97.3984 202.908H97.365V203.908ZM97.3036 203.908L97.256 204.907L97.2798 204.908H97.3036V203.908ZM87.5426 202.986L87.6906 201.997L87.617 201.986H87.5426V202.986ZM87.3891 202.955L86.6816 203.662L86.9746 203.955H87.3891V202.955ZM87.3277 202.925L87.1848 203.914L87.2558 203.925L87.3275 203.925L87.3277 202.925ZM77.8736 200.989L77.426 201.883L77.5211 201.931L77.6241 201.957L77.8736 200.989ZM77.7201 200.927L78.4276 200.221L78.2309 200.024L77.9607 199.957L77.7201 200.927ZM68.2353 197.977L67.7877 198.872L67.8381 198.897L67.891 198.916L68.2353 197.977ZM68.0512 197.916L67.7084 198.855L67.8744 198.916H68.0512V197.916ZM58.3208 193.798L57.8732 194.693L57.8801 194.696L57.8871 194.7L58.3208 193.798ZM58.1366 193.706L58.5842 192.812L58.5756 192.808L58.5669 192.804L58.1366 193.706ZM48.6518 188.667L49.1566 187.804L49.1285 187.787L49.0994 187.773L48.6518 188.667ZM48.4676 188.544L47.9649 189.409L47.992 189.424L48.0201 189.438L48.4676 188.544ZM39.0135 182.491L38.3061 183.197L38.368 183.259L38.4397 183.31L39.0135 182.491ZM38.7987 182.337L39.5062 181.63L39.4429 181.567L39.3695 181.516L38.7987 182.337ZM29.099 175.116L29.7176 174.33L29.6867 174.306L29.6541 174.284L29.099 175.116ZM28.8841 174.932L29.5916 174.225L29.5525 174.186L29.5092 174.151L28.8841 174.932ZM19.4607 166.912L18.7533 167.619L18.7718 167.637L18.7914 167.655L19.4607 166.912ZM19.2459 166.697L19.9533 165.99L19.9334 165.97L19.9125 165.951L19.2459 166.697ZM12.4929 160.459L11.766 161.146L11.7829 161.164L11.8006 161.181L12.4929 160.459ZM9.82245 157.632L10.5494 156.945L10.5398 156.935L10.5299 156.925L9.82245 157.632ZM9.57689 157.386L8.85197 158.075L8.86058 158.084L8.86942 158.093L9.57689 157.386ZM0 147.308H-1V147.707L-0.724921 147.997L0 147.308ZM12.5543 115.32L11.8294 116.009L11.8452 116.026L11.8617 116.042L12.5543 115.32ZM55.7117 147.308L56.1637 146.416L56.1634 146.416L55.7117 147.308ZM87.2049 157.663L87.3528 156.674L87.3526 156.674L87.2049 157.663ZM147.091 147.308L147.534 148.204L147.534 148.204L147.091 147.308ZM194.331 46.46L195.057 45.7722L195.048 45.7626L195.038 45.7533L194.331 46.46ZM194.085 46.2142L194.793 45.5074L193.085 43.7982V46.2142H194.085ZM194.085 92.3362H193.085V92.7538L193.382 93.0473L194.085 92.3362ZM203.969 102.108L203.266 102.819L204.969 104.502V102.108H203.969ZM203.969 56.6308H204.969V56.2323L204.695 55.943L203.969 56.6308ZM0 56.6001L-0.736953 55.9241L-1 56.2109V56.6001H0ZM9.63828 92.3362L10.3502 93.0384L10.6383 92.7464V92.3362H9.63828ZM9.63828 46.5522H10.6383V44.152L8.93409 45.8422L9.63828 46.5522ZM19.031 37.4876L18.3636 36.7429L18.031 37.0409V37.4876H19.031ZM19.031 83.5789H18.031V85.673L19.6596 84.3566L19.031 83.5789ZM28.9148 75.5897L29.5435 76.3674L29.9148 76.0672V75.5897H28.9148ZM28.9148 29.1604H29.9148V27.0932L28.2941 28.3764L28.9148 29.1604ZM175.024 28.9453L174.316 29.6521L174.355 29.6912L174.399 29.7259L175.024 28.9453ZM174.809 28.761L175.364 27.9292L173.809 26.8913V28.761H174.809ZM174.809 76.0813H173.809V76.6119L174.248 76.9093L174.809 76.0813ZM183.68 83.1794L184.339 82.4272L184.312 82.4034L184.283 82.3817L183.68 83.1794ZM184.447 83.5481L184.705 84.5143L185.447 84.3162V83.5481H184.447ZM184.447 36.9345H185.447V36.4861L185.112 36.1878L184.447 36.9345ZM155.471 15.3638L155.974 14.4993L155.947 14.4836L155.919 14.4695L155.471 15.3638ZM155.287 15.2409L155.734 14.3466L154.287 13.6221V15.2409H155.287ZM155.287 63.1143H154.287V63.6716L154.761 63.9648L155.287 63.1143ZM164.925 69.0755L164.399 69.9259L165.925 70.8698V69.0755H164.925ZM164.925 21.3864H165.925V20.863L165.495 20.5647L164.925 21.3864ZM38.5838 22.0624L38.0121 21.2419L37.5838 21.5403V22.0624H38.5838ZM38.5838 68.8296H37.5838V70.5176L39.0642 69.7067L38.5838 68.8296ZM48.2221 63.2372L48.6263 64.1519L49.2221 63.8886V63.2372H48.2221ZM48.2221 15.9476H49.2221V14.2115L47.7203 15.0826L48.2221 15.9476ZM135.918 5.99187L135.471 6.88611L135.522 6.91169L135.575 6.93129L135.918 5.99187ZM135.734 5.93041V4.93041H134.734V5.93041H135.734ZM135.734 54.2033H134.734V54.8827L135.366 55.133L135.734 54.2033ZM141.781 56.6001L142.153 55.6717L142.149 55.6705L141.781 56.6001ZM145.618 58.1365L145.246 59.0648L146.618 59.6141V58.1365H145.618ZM145.618 10.1094H146.618V9.48348L146.055 9.20993L145.618 10.1094ZM58.1059 10.6932L57.676 9.79033L57.1059 10.0618V10.6932H58.1059ZM58.1059 58.1672H57.1059V59.6384L58.4739 59.097L58.1059 58.1672ZM62.0656 56.6001L61.6982 55.67L61.6976 55.6703L62.0656 56.6001ZM67.7442 54.357L68.1116 55.2871L68.7442 55.0372V54.357H67.7442ZM67.7442 6.57569H68.7442V5.13373L67.3937 5.63912L67.7442 6.57569ZM77.3825 3.44148L77.1268 2.47471L76.3825 2.67154V3.44148H77.3825ZM77.3825 51.315H76.3825V52.556L77.5951 52.2921L77.3825 51.315ZM87.2663 49.164L87.479 50.1412L88.2663 49.9698V49.164H87.2663ZM87.2663 1.29056H88.2663V0.111672L87.1032 0.303946L87.2663 1.29056ZM116.642 1.01401L116.783 0.0240796L116.713 0.0140082H116.642V1.01401ZM116.58 0.983281H117.58V-0.0167194H116.58V0.983281ZM116.427 0.952553V-0.0474469H115.427V0.952553H116.427ZM116.427 49.502H115.427V50.3341L116.245 50.4854L116.427 49.502ZM126.065 51.2842L125.883 52.2676L127.065 52.4861V51.2842H126.065ZM126.065 2.91911H127.065V2.14607L126.317 1.95136L126.065 2.91911ZM96.9353 0V-1H95.9353V0H96.9353ZM96.9353 48.5188H95.9353V49.6767L97.0809 49.5081L96.9353 48.5188ZM106.574 48.5188L106.466 49.513L107.574 49.6325V48.5188H106.574ZM106.574 0H107.574V-1H106.574V0ZM87.2049 87.2969L86.4988 86.5888L86.4975 86.5901L87.2049 87.2969ZM203 102.108V147.584H205V102.108H203ZM203.266 146.906C200.233 150.186 197.113 153.463 193.872 156.676L195.281 158.096C198.548 154.857 201.689 151.558 204.734 148.263L203.266 146.906ZM193.873 156.676C190.753 159.768 187.545 162.796 184.247 165.7L185.568 167.201C188.901 164.267 192.138 161.211 195.281 158.097L193.873 156.676ZM184.237 165.709C181.064 168.58 177.766 171.331 174.403 173.994L175.645 175.562C179.034 172.878 182.367 170.099 185.579 167.192L184.237 165.709ZM174.41 173.989C171.259 176.438 168.053 178.822 164.791 181.05L165.919 182.702C169.225 180.444 172.465 178.034 175.638 175.568L174.41 173.989ZM164.783 181.056C161.679 183.219 158.448 185.233 155.205 187.162L156.228 188.881C159.492 186.939 162.768 184.897 165.926 182.697L164.783 181.056ZM155.208 187.161C152.012 189.05 148.724 190.787 145.374 192.372L146.23 194.18C149.633 192.57 152.975 190.804 156.225 188.883L155.208 187.161ZM145.372 192.373C142.226 193.872 139.065 195.271 135.821 196.454L136.506 198.333C139.832 197.12 143.055 195.692 146.232 194.179L145.372 192.373ZM135.817 196.456C132.677 197.615 129.543 198.651 126.323 199.533L126.851 201.462C130.138 200.561 133.327 199.507 136.51 198.332L135.817 196.456ZM126.33 199.531C123.924 200.171 121.459 200.75 118.995 201.237L119.383 203.199C121.893 202.703 124.4 202.114 126.844 201.463L126.33 199.531ZM118.98 201.24C118.146 201.419 117.279 201.569 116.439 201.689L116.722 203.669C117.6 203.543 118.513 203.386 119.399 203.196L118.98 201.24ZM116.416 201.692C113.318 202.209 110.159 202.574 106.967 202.787L107.101 204.783C110.355 204.565 113.58 204.193 116.745 203.665L116.416 201.692ZM106.586 202.891C106.616 202.876 106.678 202.849 106.765 202.831C106.852 202.814 106.925 202.816 106.911 202.816V204.816C106.928 204.816 107.032 204.818 107.158 204.792C107.283 204.767 107.391 204.725 107.482 204.679L106.586 202.891ZM106.838 202.818C105.608 202.908 104.344 202.939 103.051 202.97L103.098 204.969C104.383 204.938 105.697 204.907 106.984 204.813L106.838 202.818ZM103.027 202.97C102.41 203 101.789 203 101.141 203V205C101.781 205 102.45 205 103.122 204.968L103.027 202.97ZM101.141 203C100.753 203 100.355 202.993 99.947 202.985C99.542 202.977 99.1257 202.969 98.7156 202.969V204.969C99.1036 204.969 99.5008 204.977 99.9092 204.984C100.314 204.992 100.73 205 101.141 205V203ZM98.7822 202.971C98.5334 202.955 98.2951 202.947 98.0748 202.939C97.85 202.931 97.6433 202.924 97.4316 202.91L97.2984 204.906C97.5472 204.922 97.7855 204.93 98.0058 204.938C98.2306 204.946 98.4374 204.953 98.649 204.967L98.7822 202.971ZM97.365 202.908H97.3036V204.908H97.365V202.908ZM97.3513 202.909C94.153 202.757 90.9339 202.482 87.6906 201.997L87.3945 203.975C90.72 204.473 94.0083 204.752 97.256 204.907L97.3513 202.909ZM87.5426 201.986C87.6143 201.986 87.6769 201.995 87.7263 202.007C87.7672 202.016 87.7995 202.028 87.7822 202.022C87.7764 202.02 87.7212 202.001 87.6553 201.986C87.581 201.969 87.4915 201.955 87.3891 201.955V203.955C87.3174 203.955 87.2547 203.946 87.2054 203.934C87.1645 203.925 87.1322 203.914 87.1495 203.919C87.1552 203.921 87.2105 203.94 87.2764 203.956C87.3507 203.973 87.4402 203.986 87.5426 203.986V201.986ZM88.0966 202.249C87.9592 202.111 87.8049 202.027 87.6636 201.98C87.5947 201.957 87.5307 201.943 87.4748 201.935C87.4467 201.931 87.4203 201.928 87.3959 201.927C87.3837 201.926 87.3719 201.925 87.3606 201.925C87.3549 201.925 87.3493 201.925 87.3439 201.925C87.3412 201.925 87.3385 201.925 87.3358 201.925C87.3345 201.925 87.3332 201.925 87.3319 201.925C87.3312 201.925 87.3305 201.925 87.3299 201.925C87.3296 201.925 87.3291 201.925 87.3289 201.925C87.3284 201.925 87.3279 201.925 87.3277 202.925C87.3275 203.925 87.327 203.925 87.3265 203.925C87.3264 203.925 87.3259 203.925 87.3255 203.925C87.3249 203.925 87.3242 203.925 87.3236 203.925C87.3223 203.925 87.321 203.925 87.3196 203.925C87.317 203.924 87.3144 203.924 87.3117 203.924C87.3064 203.924 87.301 203.924 87.2956 203.924C87.2847 203.924 87.2736 203.923 87.2623 203.922C87.2397 203.921 87.2159 203.918 87.1912 203.915C87.142 203.908 87.0876 203.896 87.0302 203.877C86.912 203.837 86.7883 203.769 86.6816 203.662L88.0966 202.249ZM87.4706 201.935C84.3221 201.48 81.1969 200.812 78.1232 200.02L77.6241 201.957C80.7507 202.763 83.9487 203.447 87.1848 203.914L87.4706 201.935ZM78.3212 200.094C78.2466 200.057 78.1808 200.034 78.1354 200.019C78.1129 200.012 78.0936 200.006 78.0812 200.002C78.0751 200.001 78.0695 199.999 78.0663 199.998C78.0623 199.997 78.0612 199.997 78.0604 199.997C78.0585 199.996 78.0671 199.998 78.0798 200.003C78.0929 200.007 78.1171 200.015 78.1476 200.029C78.2063 200.054 78.3173 200.11 78.4276 200.221L77.0126 201.634C77.1383 201.76 77.2685 201.827 77.3493 201.862C77.4258 201.896 77.4934 201.915 77.5103 201.919C77.5776 201.939 77.4988 201.919 77.426 201.883L78.3212 200.094ZM77.9607 199.957C74.7808 199.168 71.6545 198.166 68.5796 197.039L67.891 198.916C71.0166 200.062 74.2135 201.088 77.4795 201.898L77.9607 199.957ZM68.6829 197.083C68.6795 197.081 68.3948 196.916 68.0512 196.916V198.916C67.9179 198.916 67.8233 198.883 67.7919 198.871C67.7826 198.868 67.7755 198.865 67.7712 198.863C67.769 198.862 67.7673 198.861 67.7662 198.861C67.7651 198.86 67.7645 198.86 67.7645 198.86C67.7645 198.86 67.765 198.86 67.766 198.861C67.767 198.861 67.7684 198.862 67.7704 198.863C67.7747 198.865 67.7796 198.868 67.7877 198.872L68.6829 197.083ZM68.3939 196.977C65.1423 195.79 61.9189 194.42 58.7545 192.897L57.8871 194.7C61.1073 196.249 64.3913 197.645 67.7084 198.855L68.3939 196.977ZM58.7684 192.904C58.7377 192.889 58.707 192.873 58.6763 192.858C58.6456 192.843 58.6149 192.827 58.5842 192.812L57.689 194.601C57.7197 194.616 57.7504 194.631 57.7811 194.647C57.8118 194.662 57.8425 194.677 57.8732 194.693L58.7684 192.904ZM58.5669 192.804C55.3717 191.28 52.2349 189.604 49.1566 187.804L48.147 189.53C51.2691 191.356 54.4556 193.059 57.7063 194.609L58.5669 192.804ZM49.0994 187.773C49.1408 187.793 49.1674 187.812 49.1727 187.815C49.1773 187.819 49.1786 187.82 49.1601 187.806C49.1479 187.797 49.1159 187.772 49.0806 187.748C49.0446 187.723 48.9873 187.686 48.9152 187.65L48.0201 189.438C47.9787 189.418 47.9521 189.399 47.9468 189.396C47.9422 189.393 47.9409 189.391 47.9593 189.405C47.9716 189.414 48.0036 189.439 48.0388 189.463C48.0749 189.488 48.1322 189.525 48.2042 189.561L49.0994 187.773ZM48.9704 187.68C45.7726 185.82 42.6347 183.807 39.5874 181.672L38.4397 183.31C41.5314 185.476 44.7167 187.519 47.9649 189.409L48.9704 187.68ZM39.721 181.784C39.6479 181.711 39.5775 181.658 39.5278 181.624C39.4808 181.592 39.4357 181.565 39.421 181.557C39.3973 181.542 39.404 181.546 39.4146 181.553C39.4279 181.562 39.4638 181.588 39.5062 181.63L38.0912 183.044C38.1643 183.117 38.2347 183.169 38.2844 183.203C38.3315 183.236 38.3766 183.262 38.3912 183.271C38.4149 183.285 38.4082 183.282 38.3976 183.274C38.3844 183.265 38.3485 183.24 38.3061 183.197L39.721 181.784ZM39.3695 181.516C36.0749 179.226 32.8682 176.811 29.7176 174.33L28.4804 175.902C31.653 178.399 34.8923 180.839 38.2279 183.158L39.3695 181.516ZM29.6541 174.284C29.6523 174.283 29.6504 174.282 29.6448 174.277C29.6356 174.269 29.6248 174.258 29.5916 174.225L28.1767 175.639C28.2391 175.701 28.3615 175.826 28.5439 175.948L29.6541 174.284ZM29.5092 174.151C26.3026 171.583 23.1864 168.923 20.1301 166.169L18.7914 167.655C21.874 170.432 25.0197 173.118 28.259 175.712L29.5092 174.151ZM20.1682 166.205C20.1222 166.159 20.0838 166.121 20.0493 166.086C20.0147 166.052 19.984 166.021 19.9533 165.99L18.5384 167.404C18.5691 167.434 18.5998 167.465 18.6343 167.5C18.6688 167.534 18.7072 167.573 18.7533 167.619L20.1682 166.205ZM19.9125 165.951C17.6169 163.898 15.385 161.848 13.1852 159.737L11.8006 161.181C14.021 163.311 16.2706 165.378 18.5793 167.442L19.9125 165.951ZM13.2199 159.772L10.5494 156.945L9.09551 158.319L11.766 161.146L13.2199 159.772ZM10.5299 156.925L10.2844 156.68L8.86942 158.093L9.11498 158.339L10.5299 156.925ZM10.3018 156.698L0.724921 146.619L-0.724921 147.997L8.85197 158.075L10.3018 156.698ZM1 147.308V102.108H-1V147.308H1ZM-0.724941 102.796L11.8294 116.009L13.2793 114.632L0.724941 101.419L-0.724941 102.796ZM11.8617 116.042C24.6682 128.338 39.1147 140.026 55.26 148.2L56.1634 146.416C40.2629 138.365 25.9788 126.824 13.2469 114.599L11.8617 116.042ZM55.2597 148.2C65.2214 153.248 75.8216 156.974 87.0572 158.652L87.3526 156.674C76.365 155.033 65.9697 151.385 56.1637 146.416L55.2597 148.2ZM87.0571 158.652C108.876 161.914 129.095 157.31 147.534 148.204L146.648 146.411C128.499 155.374 108.691 159.864 87.3528 156.674L87.0571 158.652ZM147.534 148.204C169.268 137.465 188.488 120.466 204.736 102.784L203.264 101.431C187.098 119.024 168.071 135.826 146.648 146.411L147.534 148.204ZM195.038 45.7533L194.793 45.5074L193.378 46.9209L193.624 47.1668L195.038 45.7533ZM193.085 46.2142V92.3362H195.085V46.2142H193.085ZM193.382 93.0473L203.266 102.819L204.672 101.396L194.789 91.6251L193.382 93.0473ZM204.969 102.108V56.6308H202.969V102.108H204.969ZM204.695 55.943L195.057 45.7722L193.605 47.1479L203.243 57.3187L204.695 55.943ZM-1 56.6001V102.108H1V56.6001H-1ZM0.711938 102.81L10.3502 93.0384L8.92634 91.6339L-0.711938 101.405L0.711938 102.81ZM10.6383 92.3362V46.5522H8.63828V92.3362H10.6383ZM8.93409 45.8422C5.60598 49.1429 2.37199 52.5346 -0.736953 55.9241L0.736953 57.276C3.82843 53.9055 7.04042 50.5371 10.3425 47.2622L8.93409 45.8422ZM18.031 37.4876V83.5789H20.031V37.4876H18.031ZM19.6596 84.3566L29.5435 76.3674L28.2862 74.812L18.4024 82.8011L19.6596 84.3566ZM29.9148 75.5897V29.1604H27.9148V75.5897H29.9148ZM28.2941 28.3764C24.9018 31.0622 21.6019 33.8408 18.3636 36.7429L19.6984 38.2323C22.9061 35.3576 26.1749 32.6052 29.5356 29.9444L28.2941 28.3764ZM175.731 28.2386C175.669 28.1761 175.546 28.0509 175.364 27.9292L174.254 29.5927C174.256 29.5939 174.257 29.5952 174.263 29.6002C174.272 29.6084 174.283 29.6188 174.316 29.6521L175.731 28.2386ZM173.809 28.761V76.0813H175.809V28.761H173.809ZM174.248 76.9093C175.766 77.9374 177.197 79.1136 178.645 80.3366C180.081 81.5498 181.545 82.8191 183.077 83.9771L184.283 82.3817C182.807 81.2658 181.4 80.0462 179.936 78.8089C178.483 77.5814 176.982 76.3455 175.37 75.2533L174.248 76.9093ZM183.021 83.9316C183.02 83.9305 183.023 83.9334 183.034 83.9448C183.046 83.9583 183.059 83.9727 183.086 84.0036C183.124 84.0472 183.229 84.1712 183.369 84.2795C183.53 84.4052 183.741 84.5167 184.008 84.5598C184.26 84.6006 184.498 84.5696 184.705 84.5143L184.189 82.582C184.166 82.5881 184.223 82.5687 184.327 82.5854C184.38 82.5939 184.433 82.6101 184.485 82.6337C184.535 82.6569 184.573 82.6824 184.597 82.7015C184.62 82.7195 184.632 82.7318 184.629 82.7287C184.624 82.724 184.616 82.715 184.591 82.6865C184.552 82.6413 184.459 82.5322 184.339 82.4272L183.021 83.9316ZM185.447 83.5481V36.9345H183.447V83.5481H185.447ZM185.112 36.1878C182.033 33.4438 178.888 30.7589 175.649 28.1648L174.399 29.7259C177.605 32.294 180.723 34.9556 183.782 37.6811L185.112 36.1878ZM155.919 14.4695C155.96 14.4902 155.986 14.5085 155.992 14.5121C155.996 14.5153 155.998 14.5165 155.979 14.5026C155.967 14.4934 155.935 14.4692 155.9 14.4449C155.864 14.4201 155.806 14.3827 155.734 14.3466L154.839 16.1351C154.798 16.1144 154.771 16.0961 154.766 16.0925C154.761 16.0893 154.76 16.0882 154.778 16.102C154.791 16.1112 154.823 16.1354 154.858 16.1597C154.894 16.1845 154.951 16.2219 155.023 16.258L155.919 14.4695ZM154.287 15.2409V63.1143H156.287V15.2409H154.287ZM154.761 63.9648L164.399 69.9259L165.451 68.225L155.813 62.2639L154.761 63.9648ZM165.925 69.0755V21.3864H163.925V69.0755H165.925ZM165.495 20.5647C162.374 18.3992 159.22 16.3875 155.974 14.4993L154.968 16.2282C158.167 18.0887 161.276 20.0717 164.355 22.208L165.495 20.5647ZM37.5838 22.0624V68.8296H39.5838V22.0624H37.5838ZM39.0642 69.7067C40.7248 68.7971 42.3234 67.7492 43.876 66.7774C45.446 65.7946 46.9918 64.8742 48.6263 64.1519L47.8179 62.3226C46.0453 63.1059 44.3987 64.0906 42.8148 65.0821C41.2134 66.0845 39.6965 67.08 38.1034 67.9526L39.0642 69.7067ZM49.2221 63.2372V15.9476H47.2221V63.2372H49.2221ZM47.7203 15.0826C44.4152 16.9997 41.1685 19.0425 38.0121 21.2419L39.1555 22.8828C42.2609 20.719 45.4602 18.7057 48.7238 16.8126L47.7203 15.0826ZM136.366 5.09763C136.363 5.09602 136.078 4.93041 135.734 4.93041V6.93041C135.601 6.93041 135.506 6.89763 135.475 6.88582C135.465 6.88232 135.458 6.87939 135.454 6.87753C135.452 6.87658 135.45 6.87583 135.449 6.87535C135.448 6.87486 135.447 6.87459 135.447 6.87458C135.447 6.87458 135.448 6.87478 135.449 6.87527C135.45 6.87576 135.451 6.87645 135.453 6.87743C135.458 6.87959 135.462 6.88202 135.471 6.88611L136.366 5.09763ZM134.734 5.93041V54.2033H136.734V5.93041H134.734ZM135.366 55.133L141.412 57.5297L142.149 55.6705L136.102 53.2737L135.366 55.133ZM141.409 57.5284L145.246 59.0648L145.99 57.2081L142.153 55.6717L141.409 57.5284ZM146.618 58.1365V10.1094H144.618V58.1365H146.618ZM146.055 9.20993C142.863 7.65888 139.578 6.26273 136.261 5.05245L135.575 6.93129C138.827 8.11775 142.049 9.48708 145.181 11.0088L146.055 9.20993ZM57.1059 10.6932V58.1672H59.1059V10.6932H57.1059ZM58.4739 59.097L62.4336 57.5299L61.6976 55.6703L57.7379 57.2374L58.4739 59.097ZM62.433 57.5302L68.1116 55.2871L67.3768 53.4269L61.6982 55.67L62.433 57.5302ZM68.7442 54.357V6.57569H66.7442V54.357H68.7442ZM67.3937 5.63912C64.0779 6.87998 60.8589 8.27452 57.676 9.79033L58.5359 11.596C61.6762 10.1005 64.8417 8.7296 68.0947 7.51226L67.3937 5.63912ZM76.3825 3.44148V51.315H78.3825V3.44148H76.3825ZM77.5951 52.2921L87.479 50.1412L87.0537 48.1869L77.1698 50.3378L77.5951 52.2921ZM88.2663 49.164V1.29056H86.2663V49.164H88.2663ZM87.1032 0.303946C83.7204 0.863173 80.4046 1.60797 77.1268 2.47471L77.6381 4.40825C80.8677 3.55425 84.1207 2.82413 87.4294 2.27717L87.1032 0.303946ZM116.642 0.0140082C116.627 0.0140082 116.654 0.013605 116.686 0.0157475C116.715 0.0177254 116.805 0.0246046 116.916 0.0615815C117.033 0.100531 117.221 0.189451 117.375 0.387493C117.536 0.594091 117.58 0.818263 117.58 0.983281H115.58C115.58 1.16366 115.629 1.39936 115.796 1.6146C115.956 1.82128 116.155 1.91596 116.283 1.95875C116.405 1.99957 116.508 2.00837 116.552 2.01131C116.599 2.01441 116.641 2.01401 116.642 2.01401V0.0140082ZM116.58 -0.0167194C116.652 -0.0167194 116.715 -0.00726778 116.764 0.00414104C116.805 0.0136021 116.837 0.0250964 116.82 0.019336C116.814 0.0174145 116.759 -0.00176165 116.693 -0.0169841C116.619 -0.0341543 116.529 -0.0474469 116.427 -0.0474469V1.95255C116.355 1.95255 116.292 1.9431 116.243 1.93169C116.202 1.92223 116.17 1.91074 116.187 1.9165C116.193 1.91842 116.248 1.9376 116.314 1.95282C116.388 1.96999 116.478 1.98328 116.58 1.98328V-0.0167194ZM115.427 0.952553V49.502H117.427V0.952553H115.427ZM116.245 50.4854L125.883 52.2676L126.247 50.3009L116.609 48.5187L116.245 50.4854ZM127.065 51.2842V2.91911H125.065V51.2842H127.065ZM126.317 1.95136C123.214 1.1437 120.046 0.490693 116.783 0.0240796L116.5 2.00394C119.683 2.45915 122.777 3.0967 125.813 3.88687L126.317 1.95136ZM95.9353 0V48.5188H97.9353V0H95.9353ZM97.0809 49.5081C100.094 49.0645 103.377 49.1794 106.466 49.513L106.681 47.5245C103.509 47.1821 100.038 47.0512 96.7897 47.5294L97.0809 49.5081ZM107.574 48.5188V0H105.574V48.5188H107.574ZM106.574 -1H96.9353V1H106.574V-1ZM86.4975 86.5901C78.0039 95.0927 78.0039 108.846 86.4975 117.348L87.9124 115.935C80.1989 108.213 80.1989 95.7252 87.9124 88.0036L86.4975 86.5901ZM86.4975 117.348C94.9916 125.851 108.732 125.851 117.226 117.348L115.811 115.935C108.098 123.656 95.6253 123.656 87.9124 115.935L86.4975 117.348ZM117.226 117.348C125.72 108.846 125.72 95.0927 117.226 86.5901L115.811 88.0036C123.525 95.7252 123.525 108.213 115.811 115.935L117.226 117.348ZM117.226 86.5901C108.762 78.1171 94.9919 78.119 86.4988 86.5888L87.9111 88.005C95.625 80.3121 108.13 80.314 115.811 88.0036L117.226 86.5901Z" fill="url(#paint0_linear_7867_948)" mask="url(#path-1-inside-1_7867_948)"/>
<defs>
<linearGradient id="paint0_linear_7867_948" x1="28.2269" y1="176.063" x2="176.257" y2="28.2997" gradientUnits="userSpaceOnUse">
<stop offset="2.85827e-07" stop-color="#29AAE1"/>
<stop offset="0.5052" stop-color="#F68722"/>
<stop offset="1" stop-color="#F9CD14"/>
</linearGradient>
</defs>
</svg>
