<svg width="151" height="128" viewBox="0 0 151 128" fill="none" xmlns="http://www.w3.org/2000/svg">
<path d="M0 151L-3.3126e-06 75.2166L7.18981 75.2166L7.18982 151L0 151ZM14.3796 151L21.5695 151L21.5695 75.2166L14.3796 75.2166L14.3796 151ZM28.7593 151L35.9491 151L35.9491 75.2166L28.7593 75.2166L28.7593 151ZM43.1389 151L50.3287 151L50.3287 75.2166L43.1389 75.2166L43.1389 151ZM57.5185 151L64.7084 151L64.7084 75.2165L57.5185 75.2166L57.5185 151ZM71.912 151L79.1018 151L79.1018 75.2165L71.912 75.2165L71.912 151ZM86.2916 151L93.4815 151L93.4815 75.2165L86.2916 75.2165L86.2916 151ZM100.671 151L107.861 151L107.861 75.2165L100.671 75.2165L100.671 151ZM115.051 151L122.241 151L122.241 75.2165L115.051 75.2165L115.051 151ZM129.431 151L136.62 151L136.62 75.2165L129.431 75.2165L129.431 151ZM143.81 151L151 151L151 75.2165L143.81 75.2165L143.81 151ZM151 75.2165L150.82 41.8392L76.0047 -3.32227e-06L-4.78003e-06 41.6456L-3.3126e-06 75.2166L75.6037 33.4188L151 75.2165Z" fill="url(#paint0_linear_7867_6725)"/>
<defs>
<linearGradient id="paint0_linear_7867_6725" x1="130.321" y1="130.107" x2="20.9474" y2="20.5354" gradientUnits="userSpaceOnUse">
<stop offset="2.85827e-07" stop-color="#29AAE1"/>
<stop offset="0.5052" stop-color="#F68722"/>
<stop offset="1" stop-color="#F9CD14"/>
</linearGradient>
</defs>
</svg>
