<svg width="1920" height="140" viewBox="0 0 1920 140" fill="none" xmlns="http://www.w3.org/2000/svg">
<rect width="1920" height="140" fill="#171717"/>
<mask id="path-2-inside-1_7867_910" fill="white">
<path d="M23 47.9999H52.6424V57.4798H43.4468V91.0325H32.2233V57.4798H23V47.9999ZM118.15 65.2737C122.234 69.1431 122.762 74.1732 122.762 77.4069V78.5124H101.176C101.176 80.0602 101.759 82.133 102.982 83.3491C103.621 83.9848 104.926 84.7587 107.26 84.7587C107.51 84.7587 109.343 84.7034 110.621 83.9848C111.26 83.5979 111.983 82.9622 112.427 82.0501H122.345C121.9 83.6531 120.984 85.9195 118.845 87.9923C116.705 90.0652 113.344 91.9999 107.038 91.9999C103.204 91.9999 98.62 91.1707 95.0362 87.6054C93.1471 85.726 90.7579 82.1883 90.7579 76.6883C90.7579 71.8516 92.5637 67.9823 95.0918 65.5225C97.4809 63.2009 101.259 61.3215 106.954 61.3215C110.371 61.3491 114.733 62.0677 118.15 65.2737ZM113.233 72.5702C112.983 71.4647 112.316 70.2486 111.538 69.4748C110.177 68.1205 108.288 67.927 107.26 67.927C105.51 67.927 104.148 68.3692 103.037 69.4748C102.315 70.2486 101.676 71.2712 101.481 72.5702H113.233ZM167.406 61.6808C165.461 61.6808 163.461 61.9295 161.377 63.0903C160.072 63.8089 158.599 65.025 157.432 67.0979C156.71 65.6883 155.543 64.0577 153.404 62.9798C151.848 62.1506 149.904 61.6808 147.82 61.6808C144.959 61.6808 141.597 62.7034 139.125 65.6883V62.2059H128.735V91.0325H139.125V76.7712C139.125 74.9747 139.125 72.1833 140.93 70.4421C141.764 69.6129 142.681 69.4195 143.792 69.4195C144.82 69.4195 145.987 69.6129 146.903 70.5803C148.07 71.7964 148.265 74.0074 148.265 76.7712V91.0325H158.627V76.2461C158.627 74.8366 158.766 72.432 160.516 70.7737C161.433 69.9446 162.405 69.6129 163.572 69.6129C164.933 69.6129 165.711 70.0552 166.295 70.5803C167.461 71.6858 167.795 73.731 167.795 76.7712V91.0325H178.185V72.2662C178.185 70.2763 178.046 66.8491 175.462 64.334C173.045 61.9848 169.545 61.6808 167.406 61.6808ZM211.494 65.2737C215.578 69.1431 216.106 74.1732 216.106 77.4069V78.5124H194.52C194.52 80.0602 195.104 82.133 196.326 83.3491C196.965 83.9848 198.271 84.7587 200.604 84.7587C200.854 84.7587 202.688 84.7034 203.966 83.9848C204.605 83.5979 205.327 82.9622 205.771 82.0501H215.689C215.245 83.6531 214.328 85.9195 212.189 87.9923C210.05 90.0652 206.688 91.9999 200.382 91.9999C196.548 91.9999 191.964 91.1707 188.38 87.6054C186.491 85.726 184.102 82.1883 184.102 76.6883C184.102 71.8516 185.908 67.9823 188.436 65.5225C190.825 63.2009 194.603 61.3215 200.299 61.3215C203.716 61.3491 208.077 62.0677 211.494 65.2737ZM206.577 72.5702C206.327 71.4647 205.66 70.2486 204.882 69.4748C203.521 68.1205 201.632 67.927 200.604 67.927C198.854 67.927 197.493 68.3692 196.381 69.4748C195.659 70.2486 195.02 71.2712 194.826 72.5702H206.577ZM225.579 65.6607C222.662 68.5074 220.912 72.5702 220.912 76.8265C220.912 81.0828 222.662 84.9521 225.385 87.6054C227.468 89.5954 231.163 91.9999 236.803 91.9999C238.942 91.9999 241.22 91.7511 243.998 90.3969V81.7461C242.109 83.3491 240.164 83.6808 238.692 83.6808C236.025 83.6808 234.358 82.52 233.386 81.4974C232.163 80.1431 231.58 78.2637 231.58 76.6607C231.58 74.9747 232.163 73.123 233.58 71.6858C234.608 70.6632 236.164 69.6959 238.636 69.6959C240.831 69.6959 242.665 70.6079 244.026 71.5752V62.9245C241.442 61.6255 239.109 61.3215 237.275 61.3215C232.33 61.2938 228.302 63.0903 225.579 65.6607ZM75.8673 91.0325H86.2574V71.8516H75.8673V91.0325ZM65.755 61.5426V47.9999H55.3649V80.7235V91.0325H65.755V80.7235V71.8793H75.8673V61.5702H65.755V61.5426ZM249.638 80.7235V91.0325H260V80.7235H249.638Z"/>
</mask>
<path d="M23 47.9999H52.6424V57.4798H43.4468V91.0325H32.2233V57.4798H23V47.9999ZM118.15 65.2737C122.234 69.1431 122.762 74.1732 122.762 77.4069V78.5124H101.176C101.176 80.0602 101.759 82.133 102.982 83.3491C103.621 83.9848 104.926 84.7587 107.26 84.7587C107.51 84.7587 109.343 84.7034 110.621 83.9848C111.26 83.5979 111.983 82.9622 112.427 82.0501H122.345C121.9 83.6531 120.984 85.9195 118.845 87.9923C116.705 90.0652 113.344 91.9999 107.038 91.9999C103.204 91.9999 98.62 91.1707 95.0362 87.6054C93.1471 85.726 90.7579 82.1883 90.7579 76.6883C90.7579 71.8516 92.5637 67.9823 95.0918 65.5225C97.4809 63.2009 101.259 61.3215 106.954 61.3215C110.371 61.3491 114.733 62.0677 118.15 65.2737ZM113.233 72.5702C112.983 71.4647 112.316 70.2486 111.538 69.4748C110.177 68.1205 108.288 67.927 107.26 67.927C105.51 67.927 104.148 68.3692 103.037 69.4748C102.315 70.2486 101.676 71.2712 101.481 72.5702H113.233ZM167.406 61.6808C165.461 61.6808 163.461 61.9295 161.377 63.0903C160.072 63.8089 158.599 65.025 157.432 67.0979C156.71 65.6883 155.543 64.0577 153.404 62.9798C151.848 62.1506 149.904 61.6808 147.82 61.6808C144.959 61.6808 141.597 62.7034 139.125 65.6883V62.2059H128.735V91.0325H139.125V76.7712C139.125 74.9747 139.125 72.1833 140.93 70.4421C141.764 69.6129 142.681 69.4195 143.792 69.4195C144.82 69.4195 145.987 69.6129 146.903 70.5803C148.07 71.7964 148.265 74.0074 148.265 76.7712V91.0325H158.627V76.2461C158.627 74.8366 158.766 72.432 160.516 70.7737C161.433 69.9446 162.405 69.6129 163.572 69.6129C164.933 69.6129 165.711 70.0552 166.295 70.5803C167.461 71.6858 167.795 73.731 167.795 76.7712V91.0325H178.185V72.2662C178.185 70.2763 178.046 66.8491 175.462 64.334C173.045 61.9848 169.545 61.6808 167.406 61.6808ZM211.494 65.2737C215.578 69.1431 216.106 74.1732 216.106 77.4069V78.5124H194.52C194.52 80.0602 195.104 82.133 196.326 83.3491C196.965 83.9848 198.271 84.7587 200.604 84.7587C200.854 84.7587 202.688 84.7034 203.966 83.9848C204.605 83.5979 205.327 82.9622 205.771 82.0501H215.689C215.245 83.6531 214.328 85.9195 212.189 87.9923C210.05 90.0652 206.688 91.9999 200.382 91.9999C196.548 91.9999 191.964 91.1707 188.38 87.6054C186.491 85.726 184.102 82.1883 184.102 76.6883C184.102 71.8516 185.908 67.9823 188.436 65.5225C190.825 63.2009 194.603 61.3215 200.299 61.3215C203.716 61.3491 208.077 62.0677 211.494 65.2737ZM206.577 72.5702C206.327 71.4647 205.66 70.2486 204.882 69.4748C203.521 68.1205 201.632 67.927 200.604 67.927C198.854 67.927 197.493 68.3692 196.381 69.4748C195.659 70.2486 195.02 71.2712 194.826 72.5702H206.577ZM225.579 65.6607C222.662 68.5074 220.912 72.5702 220.912 76.8265C220.912 81.0828 222.662 84.9521 225.385 87.6054C227.468 89.5954 231.163 91.9999 236.803 91.9999C238.942 91.9999 241.22 91.7511 243.998 90.3969V81.7461C242.109 83.3491 240.164 83.6808 238.692 83.6808C236.025 83.6808 234.358 82.52 233.386 81.4974C232.163 80.1431 231.58 78.2637 231.58 76.6607C231.58 74.9747 232.163 73.123 233.58 71.6858C234.608 70.6632 236.164 69.6959 238.636 69.6959C240.831 69.6959 242.665 70.6079 244.026 71.5752V62.9245C241.442 61.6255 239.109 61.3215 237.275 61.3215C232.33 61.2938 228.302 63.0903 225.579 65.6607ZM75.8673 91.0325H86.2574V71.8516H75.8673V91.0325ZM65.755 61.5426V47.9999H55.3649V80.7235V91.0325H65.755V80.7235V71.8793H75.8673V61.5702H65.755V61.5426ZM249.638 80.7235V91.0325H260V80.7235H249.638Z" stroke="white" stroke-width="2" mask="url(#path-2-inside-1_7867_910)"/>
<path d="M368 70.0231V79.8318C367.345 80.5409 366.669 81.2501 365.968 81.946C365.292 82.6153 364.597 83.2715 363.882 83.9011C363.194 84.5241 362.478 85.1205 361.75 85.6971C361.068 86.2273 360.373 86.7443 359.665 87.2281C358.989 87.6986 358.288 88.136 357.586 88.5536C356.891 88.9645 356.176 89.3423 355.447 89.6869C354.766 90.0116 354.077 90.3165 353.369 90.575C352.687 90.8268 352.005 91.0521 351.303 91.2443C350.78 91.3835 350.244 91.5094 349.707 91.6155C349.522 91.6552 349.33 91.6884 349.145 91.7149C348.469 91.8276 347.781 91.9071 347.086 91.9535C347.073 91.9601 347.066 91.9601 347.059 91.9601C346.788 91.98 346.51 91.9866 346.232 91.9932C346.093 91.9999 345.954 91.9999 345.815 91.9999C345.642 91.9999 345.464 91.9932 345.292 91.9932C345.192 91.9866 345.1 91.9866 345 91.98H344.987C344.292 91.9469 343.59 91.8872 342.882 91.7812C342.868 91.7812 342.862 91.7745 342.849 91.7745C342.842 91.7679 342.835 91.7679 342.835 91.7679C342.147 91.6685 341.465 91.5227 340.796 91.3504C340.783 91.3438 340.77 91.3438 340.763 91.3371C340.068 91.1648 339.386 90.9461 338.717 90.7009C338.704 90.6943 338.691 90.6876 338.678 90.6876C337.969 90.4292 337.268 90.1309 336.579 89.7995C336.566 89.7929 336.553 89.7863 336.539 89.7797C335.844 89.4483 335.162 89.0838 334.494 88.6928C334.48 88.6861 334.467 88.6729 334.454 88.6662C333.759 88.262 333.077 87.8246 332.415 87.3606C332.401 87.3474 332.382 87.3407 332.368 87.3275C331.653 86.8304 330.958 86.3069 330.276 85.77C330.256 85.7568 330.243 85.7435 330.23 85.7303C329.535 85.1735 328.859 84.597 328.197 84.0005C328.178 83.9806 328.164 83.9673 328.151 83.9541C327.655 83.51 327.171 83.066 326.695 82.6087L326.119 81.999L326.066 81.946L324 79.7721V70.0231L326.708 72.8729C329.462 75.5173 332.56 78.0225 336.016 79.7721C338.148 80.8524 340.412 81.6477 342.809 82.0056C347.463 82.7015 351.78 81.7206 355.726 79.7721C360.38 77.4724 364.504 73.8273 368 70.0231ZM365.915 58.0207L365.862 57.9676V67.9155L367.993 70.0231V60.2144L365.915 58.0207ZM324 60.2077V70.0231L326.079 67.9155V58.0405C325.364 58.7497 324.669 59.4787 324 60.2077ZM328.105 56.0854V66.0267L330.237 64.3035V54.2894C329.508 54.866 328.8 55.4624 328.105 56.0854ZM361.75 54.243C361.737 54.2297 361.724 54.2165 361.704 54.2032V64.4096C362.379 64.8669 362.968 65.4501 363.617 65.9405C363.67 65.9869 363.683 66.0466 363.783 66.0201V55.9661C363.121 55.3763 362.445 54.7997 361.75 54.243ZM357.533 51.3136C357.52 51.307 357.506 51.2937 357.493 51.2871V61.6128L359.572 62.8985V52.6126C358.903 52.1487 358.228 51.7179 357.533 51.3136ZM332.322 52.7584V62.8455C333.024 62.4611 333.666 61.964 334.401 61.6393V51.4396C333.692 51.8505 332.997 52.2879 332.322 52.7584ZM353.316 49.2922C353.302 49.2856 353.289 49.279 353.276 49.279V59.6908L354.58 60.2077L355.408 60.5391V50.1803C354.726 49.849 354.024 49.5507 353.316 49.2922ZM336.533 50.3062V60.5457L337.387 60.2077L338.611 59.7239V49.4182C337.903 49.6833 337.215 49.9815 336.533 50.3062ZM340.69 48.7422V59.0678L342.822 58.6039V48.2782C342.101 48.3975 341.392 48.5566 340.69 48.7422ZM349.158 48.2186C349.151 48.2186 349.145 48.2186 349.145 48.212C349.132 48.212 349.125 48.2053 349.112 48.2053V58.6768L351.19 59.0612V48.6295C350.528 48.4572 349.853 48.318 349.158 48.2186ZM344.908 47.9999V58.4647C345.583 58.3653 346.311 58.3918 346.986 58.4647V47.9999H344.908ZM342.809 66.8286C341.061 68.5783 341.061 71.4082 342.809 73.1579C344.557 74.9075 347.384 74.9075 349.132 73.1579C350.879 71.4082 350.879 68.5783 349.132 66.8286C347.39 65.0856 344.557 65.0856 342.809 66.8286Z" fill="white"/>
<path d="M432 47.9999H461.642V57.4798H452.447V91.0325H441.223V57.4798H432V47.9999ZM527.15 65.2737C531.234 69.1431 531.762 74.1732 531.762 77.4069V78.5124H510.176C510.176 80.0602 510.759 82.133 511.982 83.3491C512.621 83.9848 513.926 84.7587 516.26 84.7587C516.51 84.7587 518.343 84.7034 519.621 83.9848C520.26 83.5979 520.983 82.9622 521.427 82.0501H531.345C530.9 83.6531 529.984 85.9195 527.845 87.9923C525.705 90.0652 522.344 91.9999 516.038 91.9999C512.204 91.9999 507.62 91.1707 504.036 87.6054C502.147 85.726 499.758 82.1883 499.758 76.6883C499.758 71.8516 501.564 67.9823 504.092 65.5225C506.481 63.2009 510.259 61.3215 515.954 61.3215C519.371 61.3491 523.733 62.0677 527.15 65.2737ZM522.233 72.5702C521.983 71.4647 521.316 70.2486 520.538 69.4748C519.177 68.1205 517.288 67.927 516.26 67.927C514.51 67.927 513.148 68.3692 512.037 69.4748C511.315 70.2486 510.676 71.2712 510.481 72.5702H522.233ZM576.406 61.6808C574.461 61.6808 572.461 61.9295 570.377 63.0903C569.072 63.8089 567.599 65.025 566.432 67.0979C565.71 65.6883 564.543 64.0577 562.404 62.9798C560.848 62.1506 558.904 61.6808 556.82 61.6808C553.959 61.6808 550.597 62.7034 548.125 65.6883V62.2059H537.735V91.0325H548.125V76.7712C548.125 74.9747 548.125 72.1833 549.93 70.4421C550.764 69.6129 551.681 69.4195 552.792 69.4195C553.82 69.4195 554.987 69.6129 555.903 70.5803C557.07 71.7964 557.265 74.0074 557.265 76.7712V91.0325H567.627V76.2461C567.627 74.8366 567.766 72.432 569.516 70.7737C570.433 69.9446 571.405 69.6129 572.572 69.6129C573.933 69.6129 574.711 70.0552 575.295 70.5803C576.461 71.6858 576.795 73.731 576.795 76.7712V91.0325H587.185V72.2662C587.185 70.2763 587.046 66.8491 584.462 64.334C582.045 61.9848 578.545 61.6808 576.406 61.6808ZM620.494 65.2737C624.578 69.1431 625.106 74.1732 625.106 77.4069V78.5124H603.52C603.52 80.0602 604.104 82.133 605.326 83.3491C605.965 83.9848 607.271 84.7587 609.604 84.7587C609.854 84.7587 611.688 84.7034 612.966 83.9848C613.605 83.5979 614.327 82.9622 614.771 82.0501H624.689C624.245 83.6531 623.328 85.9195 621.189 87.9923C619.05 90.0652 615.688 91.9999 609.382 91.9999C605.548 91.9999 600.964 91.1707 597.38 87.6054C595.491 85.726 593.102 82.1883 593.102 76.6883C593.102 71.8516 594.908 67.9823 597.436 65.5225C599.825 63.2009 603.603 61.3215 609.299 61.3215C612.716 61.3491 617.077 62.0677 620.494 65.2737ZM615.577 72.5702C615.327 71.4647 614.66 70.2486 613.882 69.4748C612.521 68.1205 610.632 67.927 609.604 67.927C607.854 67.927 606.493 68.3692 605.381 69.4748C604.659 70.2486 604.02 71.2712 603.826 72.5702H615.577ZM634.579 65.6607C631.662 68.5074 629.912 72.5702 629.912 76.8265C629.912 81.0828 631.662 84.9521 634.385 87.6054C636.468 89.5954 640.163 91.9999 645.803 91.9999C647.942 91.9999 650.22 91.7511 652.998 90.3969V81.7461C651.109 83.3491 649.164 83.6808 647.692 83.6808C645.025 83.6808 643.358 82.52 642.386 81.4974C641.163 80.1431 640.58 78.2637 640.58 76.6607C640.58 74.9747 641.163 73.123 642.58 71.6858C643.608 70.6632 645.164 69.6959 647.636 69.6959C649.831 69.6959 651.665 70.6079 653.026 71.5752V62.9245C650.442 61.6255 648.109 61.3215 646.275 61.3215C641.33 61.2938 637.302 63.0903 634.579 65.6607ZM484.867 91.0325H495.257V71.8516H484.867V91.0325ZM474.755 61.5426V47.9999H464.365V80.7235V91.0325H474.755V80.7235V71.8793H484.867V61.5702H474.755V61.5426ZM658.638 80.7235V91.0325H669V80.7235H658.638Z" fill="white"/>
<path d="M777 70.0231V79.8318C776.345 80.5409 775.669 81.2501 774.968 81.946C774.292 82.6153 773.597 83.2715 772.882 83.9011C772.194 84.5241 771.478 85.1205 770.75 85.6971C770.068 86.2273 769.373 86.7443 768.665 87.2281C767.989 87.6986 767.288 88.136 766.586 88.5536C765.891 88.9645 765.176 89.3423 764.447 89.6869C763.766 90.0116 763.077 90.3165 762.369 90.575C761.687 90.8268 761.005 91.0521 760.303 91.2443C759.78 91.3835 759.244 91.5094 758.707 91.6155C758.522 91.6552 758.33 91.6884 758.145 91.7149C757.469 91.8276 756.781 91.9071 756.086 91.9535C756.073 91.9601 756.066 91.9601 756.059 91.9601C755.788 91.98 755.51 91.9866 755.232 91.9932C755.093 91.9999 754.954 91.9999 754.815 91.9999C754.642 91.9999 754.464 91.9932 754.292 91.9932C754.192 91.9866 754.1 91.9866 754 91.98H753.987C753.292 91.9469 752.59 91.8872 751.882 91.7812C751.868 91.7812 751.862 91.7745 751.849 91.7745C751.842 91.7679 751.835 91.7679 751.835 91.7679C751.147 91.6685 750.465 91.5227 749.796 91.3504C749.783 91.3438 749.77 91.3438 749.763 91.3371C749.068 91.1648 748.386 90.9461 747.717 90.7009C747.704 90.6943 747.691 90.6876 747.678 90.6876C746.969 90.4292 746.268 90.1309 745.579 89.7995C745.566 89.7929 745.553 89.7863 745.539 89.7797C744.844 89.4483 744.162 89.0838 743.494 88.6928C743.48 88.6861 743.467 88.6729 743.454 88.6662C742.759 88.262 742.077 87.8246 741.415 87.3606C741.401 87.3474 741.382 87.3407 741.368 87.3275C740.653 86.8304 739.958 86.3069 739.276 85.77C739.256 85.7568 739.243 85.7435 739.23 85.7303C738.535 85.1735 737.859 84.597 737.197 84.0005C737.178 83.9806 737.164 83.9673 737.151 83.9541C736.655 83.51 736.171 83.066 735.695 82.6087L735.119 81.999L735.066 81.946L733 79.7721V70.0231L735.708 72.8729C738.462 75.5173 741.56 78.0225 745.016 79.7721C747.148 80.8524 749.412 81.6477 751.809 82.0056C756.463 82.7015 760.78 81.7206 764.726 79.7721C769.38 77.4724 773.504 73.8273 777 70.0231ZM774.915 58.0207L774.862 57.9676V67.9155L776.993 70.0231V60.2144L774.915 58.0207ZM733 60.2077V70.0231L735.079 67.9155V58.0405C734.364 58.7497 733.669 59.4787 733 60.2077ZM737.105 56.0854V66.0267L739.237 64.3035V54.2894C738.508 54.866 737.8 55.4624 737.105 56.0854ZM770.75 54.243C770.737 54.2297 770.724 54.2165 770.704 54.2032V64.4096C771.379 64.8669 771.968 65.4501 772.617 65.9405C772.67 65.9869 772.683 66.0466 772.783 66.0201V55.9661C772.121 55.3763 771.445 54.7997 770.75 54.243ZM766.533 51.3136C766.52 51.307 766.506 51.2937 766.493 51.2871V61.6128L768.572 62.8985V52.6126C767.903 52.1487 767.228 51.7179 766.533 51.3136ZM741.322 52.7584V62.8455C742.024 62.4611 742.666 61.964 743.401 61.6393V51.4396C742.692 51.8505 741.997 52.2879 741.322 52.7584ZM762.316 49.2922C762.302 49.2856 762.289 49.279 762.276 49.279V59.6908L763.58 60.2077L764.408 60.5391V50.1803C763.726 49.849 763.024 49.5507 762.316 49.2922ZM745.533 50.3062V60.5457L746.387 60.2077L747.611 59.7239V49.4182C746.903 49.6833 746.215 49.9815 745.533 50.3062ZM749.69 48.7422V59.0678L751.822 58.6039V48.2782C751.101 48.3975 750.392 48.5566 749.69 48.7422ZM758.158 48.2186C758.151 48.2186 758.145 48.2186 758.145 48.212C758.132 48.212 758.125 48.2053 758.112 48.2053V58.6768L760.19 59.0612V48.6295C759.528 48.4572 758.853 48.318 758.158 48.2186ZM753.908 47.9999V58.4647C754.583 58.3653 755.311 58.3918 755.986 58.4647V47.9999H753.908ZM751.809 66.8286C750.061 68.5783 750.061 71.4082 751.809 73.1579C753.557 74.9075 756.384 74.9075 758.132 73.1579C759.879 71.4082 759.879 68.5783 758.132 66.8286C756.39 65.0856 753.557 65.0856 751.809 66.8286Z" fill="white"/>
<mask id="path-6-inside-2_7867_910" fill="white">
<path d="M841 47.9999H870.642V57.4798H861.447V91.0325H850.223V57.4798H841V47.9999ZM936.15 65.2737C940.234 69.1431 940.762 74.1732 940.762 77.4069V78.5124H919.176C919.176 80.0602 919.759 82.133 920.982 83.3491C921.621 83.9848 922.926 84.7587 925.26 84.7587C925.51 84.7587 927.343 84.7034 928.621 83.9848C929.26 83.5979 929.983 82.9622 930.427 82.0501H940.345C939.9 83.6531 938.984 85.9195 936.845 87.9923C934.705 90.0652 931.344 91.9999 925.038 91.9999C921.204 91.9999 916.62 91.1707 913.036 87.6054C911.147 85.726 908.758 82.1883 908.758 76.6883C908.758 71.8516 910.564 67.9823 913.092 65.5225C915.481 63.2009 919.259 61.3215 924.954 61.3215C928.371 61.3491 932.733 62.0677 936.15 65.2737ZM931.233 72.5702C930.983 71.4647 930.316 70.2486 929.538 69.4748C928.177 68.1205 926.288 67.927 925.26 67.927C923.51 67.927 922.148 68.3692 921.037 69.4748C920.315 70.2486 919.676 71.2712 919.481 72.5702H931.233ZM985.406 61.6808C983.461 61.6808 981.461 61.9295 979.377 63.0903C978.072 63.8089 976.599 65.025 975.432 67.0979C974.71 65.6883 973.543 64.0577 971.404 62.9798C969.848 62.1506 967.904 61.6808 965.82 61.6808C962.959 61.6808 959.597 62.7034 957.125 65.6883V62.2059H946.735V91.0325H957.125V76.7712C957.125 74.9747 957.125 72.1833 958.93 70.4421C959.764 69.6129 960.681 69.4195 961.792 69.4195C962.82 69.4195 963.987 69.6129 964.903 70.5803C966.07 71.7964 966.265 74.0074 966.265 76.7712V91.0325H976.627V76.2461C976.627 74.8366 976.766 72.432 978.516 70.7737C979.433 69.9446 980.405 69.6129 981.572 69.6129C982.933 69.6129 983.711 70.0552 984.295 70.5803C985.461 71.6858 985.795 73.731 985.795 76.7712V91.0325H996.185V72.2662C996.185 70.2763 996.046 66.8491 993.462 64.334C991.045 61.9848 987.545 61.6808 985.406 61.6808ZM1029.49 65.2737C1033.58 69.1431 1034.11 74.1732 1034.11 77.4069V78.5124H1012.52C1012.52 80.0602 1013.1 82.133 1014.33 83.3491C1014.96 83.9848 1016.27 84.7587 1018.6 84.7587C1018.85 84.7587 1020.69 84.7034 1021.97 83.9848C1022.6 83.5979 1023.33 82.9622 1023.77 82.0501H1033.69C1033.24 83.6531 1032.33 85.9195 1030.19 87.9923C1028.05 90.0652 1024.69 91.9999 1018.38 91.9999C1014.55 91.9999 1009.96 91.1707 1006.38 87.6054C1004.49 85.726 1002.1 82.1883 1002.1 76.6883C1002.1 71.8516 1003.91 67.9823 1006.44 65.5225C1008.83 63.2009 1012.6 61.3215 1018.3 61.3215C1021.72 61.3491 1026.08 62.0677 1029.49 65.2737ZM1024.58 72.5702C1024.33 71.4647 1023.66 70.2486 1022.88 69.4748C1021.52 68.1205 1019.63 67.927 1018.6 67.927C1016.85 67.927 1015.49 68.3692 1014.38 69.4748C1013.66 70.2486 1013.02 71.2712 1012.83 72.5702H1024.58ZM1043.58 65.6607C1040.66 68.5074 1038.91 72.5702 1038.91 76.8265C1038.91 81.0828 1040.66 84.9521 1043.38 87.6054C1045.47 89.5954 1049.16 91.9999 1054.8 91.9999C1056.94 91.9999 1059.22 91.7511 1062 90.3969V81.7461C1060.11 83.3491 1058.16 83.6808 1056.69 83.6808C1054.02 83.6808 1052.36 82.52 1051.39 81.4974C1050.16 80.1431 1049.58 78.2637 1049.58 76.6607C1049.58 74.9747 1050.16 73.123 1051.58 71.6858C1052.61 70.6632 1054.16 69.6959 1056.64 69.6959C1058.83 69.6959 1060.66 70.6079 1062.03 71.5752V62.9245C1059.44 61.6255 1057.11 61.3215 1055.28 61.3215C1050.33 61.2938 1046.3 63.0903 1043.58 65.6607ZM893.867 91.0325H904.257V71.8516H893.867V91.0325ZM883.755 61.5426V47.9999H873.365V80.7235V91.0325H883.755V80.7235V71.8793H893.867V61.5702H883.755V61.5426ZM1067.64 80.7235V91.0325H1078V80.7235H1067.64Z"/>
</mask>
<path d="M841 47.9999H870.642V57.4798H861.447V91.0325H850.223V57.4798H841V47.9999ZM936.15 65.2737C940.234 69.1431 940.762 74.1732 940.762 77.4069V78.5124H919.176C919.176 80.0602 919.759 82.133 920.982 83.3491C921.621 83.9848 922.926 84.7587 925.26 84.7587C925.51 84.7587 927.343 84.7034 928.621 83.9848C929.26 83.5979 929.983 82.9622 930.427 82.0501H940.345C939.9 83.6531 938.984 85.9195 936.845 87.9923C934.705 90.0652 931.344 91.9999 925.038 91.9999C921.204 91.9999 916.62 91.1707 913.036 87.6054C911.147 85.726 908.758 82.1883 908.758 76.6883C908.758 71.8516 910.564 67.9823 913.092 65.5225C915.481 63.2009 919.259 61.3215 924.954 61.3215C928.371 61.3491 932.733 62.0677 936.15 65.2737ZM931.233 72.5702C930.983 71.4647 930.316 70.2486 929.538 69.4748C928.177 68.1205 926.288 67.927 925.26 67.927C923.51 67.927 922.148 68.3692 921.037 69.4748C920.315 70.2486 919.676 71.2712 919.481 72.5702H931.233ZM985.406 61.6808C983.461 61.6808 981.461 61.9295 979.377 63.0903C978.072 63.8089 976.599 65.025 975.432 67.0979C974.71 65.6883 973.543 64.0577 971.404 62.9798C969.848 62.1506 967.904 61.6808 965.82 61.6808C962.959 61.6808 959.597 62.7034 957.125 65.6883V62.2059H946.735V91.0325H957.125V76.7712C957.125 74.9747 957.125 72.1833 958.93 70.4421C959.764 69.6129 960.681 69.4195 961.792 69.4195C962.82 69.4195 963.987 69.6129 964.903 70.5803C966.07 71.7964 966.265 74.0074 966.265 76.7712V91.0325H976.627V76.2461C976.627 74.8366 976.766 72.432 978.516 70.7737C979.433 69.9446 980.405 69.6129 981.572 69.6129C982.933 69.6129 983.711 70.0552 984.295 70.5803C985.461 71.6858 985.795 73.731 985.795 76.7712V91.0325H996.185V72.2662C996.185 70.2763 996.046 66.8491 993.462 64.334C991.045 61.9848 987.545 61.6808 985.406 61.6808ZM1029.49 65.2737C1033.58 69.1431 1034.11 74.1732 1034.11 77.4069V78.5124H1012.52C1012.52 80.0602 1013.1 82.133 1014.33 83.3491C1014.96 83.9848 1016.27 84.7587 1018.6 84.7587C1018.85 84.7587 1020.69 84.7034 1021.97 83.9848C1022.6 83.5979 1023.33 82.9622 1023.77 82.0501H1033.69C1033.24 83.6531 1032.33 85.9195 1030.19 87.9923C1028.05 90.0652 1024.69 91.9999 1018.38 91.9999C1014.55 91.9999 1009.96 91.1707 1006.38 87.6054C1004.49 85.726 1002.1 82.1883 1002.1 76.6883C1002.1 71.8516 1003.91 67.9823 1006.44 65.5225C1008.83 63.2009 1012.6 61.3215 1018.3 61.3215C1021.72 61.3491 1026.08 62.0677 1029.49 65.2737ZM1024.58 72.5702C1024.33 71.4647 1023.66 70.2486 1022.88 69.4748C1021.52 68.1205 1019.63 67.927 1018.6 67.927C1016.85 67.927 1015.49 68.3692 1014.38 69.4748C1013.66 70.2486 1013.02 71.2712 1012.83 72.5702H1024.58ZM1043.58 65.6607C1040.66 68.5074 1038.91 72.5702 1038.91 76.8265C1038.91 81.0828 1040.66 84.9521 1043.38 87.6054C1045.47 89.5954 1049.16 91.9999 1054.8 91.9999C1056.94 91.9999 1059.22 91.7511 1062 90.3969V81.7461C1060.11 83.3491 1058.16 83.6808 1056.69 83.6808C1054.02 83.6808 1052.36 82.52 1051.39 81.4974C1050.16 80.1431 1049.58 78.2637 1049.58 76.6607C1049.58 74.9747 1050.16 73.123 1051.58 71.6858C1052.61 70.6632 1054.16 69.6959 1056.64 69.6959C1058.83 69.6959 1060.66 70.6079 1062.03 71.5752V62.9245C1059.44 61.6255 1057.11 61.3215 1055.28 61.3215C1050.33 61.2938 1046.3 63.0903 1043.58 65.6607ZM893.867 91.0325H904.257V71.8516H893.867V91.0325ZM883.755 61.5426V47.9999H873.365V80.7235V91.0325H883.755V80.7235V71.8793H893.867V61.5702H883.755V61.5426ZM1067.64 80.7235V91.0325H1078V80.7235H1067.64Z" stroke="white" stroke-width="2" mask="url(#path-6-inside-2_7867_910)"/>
<path d="M1186 70.0231V79.8318C1185.34 80.5409 1184.67 81.2501 1183.97 81.946C1183.29 82.6153 1182.6 83.2715 1181.88 83.9011C1181.19 84.5241 1180.48 85.1205 1179.75 85.6971C1179.07 86.2273 1178.37 86.7443 1177.66 87.2281C1176.99 87.6986 1176.29 88.136 1175.59 88.5536C1174.89 88.9645 1174.18 89.3423 1173.45 89.6869C1172.77 90.0116 1172.08 90.3165 1171.37 90.575C1170.69 90.8268 1170 91.0521 1169.3 91.2443C1168.78 91.3835 1168.24 91.5094 1167.71 91.6155C1167.52 91.6552 1167.33 91.6884 1167.14 91.7149C1166.47 91.8276 1165.78 91.9071 1165.09 91.9535C1165.07 91.9601 1165.07 91.9601 1165.06 91.9601C1164.79 91.98 1164.51 91.9866 1164.23 91.9932C1164.09 91.9999 1163.95 91.9999 1163.81 91.9999C1163.64 91.9999 1163.46 91.9932 1163.29 91.9932C1163.19 91.9866 1163.1 91.9866 1163 91.98H1162.99C1162.29 91.9469 1161.59 91.8872 1160.88 91.7812C1160.87 91.7812 1160.86 91.7745 1160.85 91.7745C1160.84 91.7679 1160.84 91.7679 1160.84 91.7679C1160.15 91.6685 1159.46 91.5227 1158.8 91.3504C1158.78 91.3438 1158.77 91.3438 1158.76 91.3371C1158.07 91.1648 1157.39 90.9461 1156.72 90.7009C1156.7 90.6943 1156.69 90.6876 1156.68 90.6876C1155.97 90.4292 1155.27 90.1309 1154.58 89.7995C1154.57 89.7929 1154.55 89.7863 1154.54 89.7797C1153.84 89.4483 1153.16 89.0838 1152.49 88.6928C1152.48 88.6861 1152.47 88.6729 1152.45 88.6662C1151.76 88.262 1151.08 87.8246 1150.41 87.3606C1150.4 87.3474 1150.38 87.3407 1150.37 87.3275C1149.65 86.8304 1148.96 86.3069 1148.28 85.77C1148.26 85.7568 1148.24 85.7435 1148.23 85.7303C1147.53 85.1735 1146.86 84.597 1146.2 84.0005C1146.18 83.9806 1146.16 83.9673 1146.15 83.9541C1145.65 83.51 1145.17 83.066 1144.69 82.6087L1144.12 81.999L1144.07 81.946L1142 79.7721V70.0231L1144.71 72.8729C1147.46 75.5173 1150.56 78.0225 1154.02 79.7721C1156.15 80.8524 1158.41 81.6477 1160.81 82.0056C1165.46 82.7015 1169.78 81.7206 1173.73 79.7721C1178.38 77.4724 1182.5 73.8273 1186 70.0231ZM1183.91 58.0207L1183.86 57.9676V67.9155L1185.99 70.0231V60.2144L1183.91 58.0207ZM1142 60.2077V70.0231L1144.08 67.9155V58.0405C1143.36 58.7497 1142.67 59.4787 1142 60.2077ZM1146.1 56.0854V66.0267L1148.24 64.3035V54.2894C1147.51 54.866 1146.8 55.4624 1146.1 56.0854ZM1179.75 54.243C1179.74 54.2297 1179.72 54.2165 1179.7 54.2032V64.4096C1180.38 64.8669 1180.97 65.4501 1181.62 65.9405C1181.67 65.9869 1181.68 66.0466 1181.78 66.0201V55.9661C1181.12 55.3763 1180.45 54.7997 1179.75 54.243ZM1175.53 51.3136C1175.52 51.307 1175.51 51.2937 1175.49 51.2871V61.6128L1177.57 62.8985V52.6126C1176.9 52.1487 1176.23 51.7179 1175.53 51.3136ZM1150.32 52.7584V62.8455C1151.02 62.4611 1151.67 61.964 1152.4 61.6393V51.4396C1151.69 51.8505 1151 52.2879 1150.32 52.7584ZM1171.32 49.2922C1171.3 49.2856 1171.29 49.279 1171.28 49.279V59.6908L1172.58 60.2077L1173.41 60.5391V50.1803C1172.73 49.849 1172.02 49.5507 1171.32 49.2922ZM1154.53 50.3062V60.5457L1155.39 60.2077L1156.61 59.7239V49.4182C1155.9 49.6833 1155.21 49.9815 1154.53 50.3062ZM1158.69 48.7422V59.0678L1160.82 58.6039V48.2782C1160.1 48.3975 1159.39 48.5566 1158.69 48.7422ZM1167.16 48.2186C1167.15 48.2186 1167.14 48.2186 1167.14 48.212C1167.13 48.212 1167.12 48.2053 1167.11 48.2053V58.6768L1169.19 59.0612V48.6295C1168.53 48.4572 1167.85 48.318 1167.16 48.2186ZM1162.91 47.9999V58.4647C1163.58 58.3653 1164.31 58.3918 1164.99 58.4647V47.9999H1162.91ZM1160.81 66.8286C1159.06 68.5783 1159.06 71.4082 1160.81 73.1579C1162.56 74.9075 1165.38 74.9075 1167.13 73.1579C1168.88 71.4082 1168.88 68.5783 1167.13 66.8286C1165.39 65.0856 1162.56 65.0856 1160.81 66.8286Z" fill="white"/>
<path d="M1250 47.9999H1279.64V57.4798H1270.45V91.0325H1259.22V57.4798H1250V47.9999ZM1345.15 65.2737C1349.23 69.1431 1349.76 74.1732 1349.76 77.4069V78.5124H1328.18C1328.18 80.0602 1328.76 82.133 1329.98 83.3491C1330.62 83.9848 1331.93 84.7587 1334.26 84.7587C1334.51 84.7587 1336.34 84.7034 1337.62 83.9848C1338.26 83.5979 1338.98 82.9622 1339.43 82.0501H1349.34C1348.9 83.6531 1347.98 85.9195 1345.84 87.9923C1343.71 90.0652 1340.34 91.9999 1334.04 91.9999C1330.2 91.9999 1325.62 91.1707 1322.04 87.6054C1320.15 85.726 1317.76 82.1883 1317.76 76.6883C1317.76 71.8516 1319.56 67.9823 1322.09 65.5225C1324.48 63.2009 1328.26 61.3215 1333.95 61.3215C1337.37 61.3491 1341.73 62.0677 1345.15 65.2737ZM1340.23 72.5702C1339.98 71.4647 1339.32 70.2486 1338.54 69.4748C1337.18 68.1205 1335.29 67.927 1334.26 67.927C1332.51 67.927 1331.15 68.3692 1330.04 69.4748C1329.31 70.2486 1328.68 71.2712 1328.48 72.5702H1340.23ZM1394.41 61.6808C1392.46 61.6808 1390.46 61.9295 1388.38 63.0903C1387.07 63.8089 1385.6 65.025 1384.43 67.0979C1383.71 65.6883 1382.54 64.0577 1380.4 62.9798C1378.85 62.1506 1376.9 61.6808 1374.82 61.6808C1371.96 61.6808 1368.6 62.7034 1366.12 65.6883V62.2059H1355.73V91.0325H1366.12V76.7712C1366.12 74.9747 1366.12 72.1833 1367.93 70.4421C1368.76 69.6129 1369.68 69.4195 1370.79 69.4195C1371.82 69.4195 1372.99 69.6129 1373.9 70.5803C1375.07 71.7964 1375.26 74.0074 1375.26 76.7712V91.0325H1385.63V76.2461C1385.63 74.8366 1385.77 72.432 1387.52 70.7737C1388.43 69.9446 1389.41 69.6129 1390.57 69.6129C1391.93 69.6129 1392.71 70.0552 1393.29 70.5803C1394.46 71.6858 1394.79 73.731 1394.79 76.7712V91.0325H1405.18V72.2662C1405.18 70.2763 1405.05 66.8491 1402.46 64.334C1400.05 61.9848 1396.54 61.6808 1394.41 61.6808ZM1438.49 65.2737C1442.58 69.1431 1443.11 74.1732 1443.11 77.4069V78.5124H1421.52C1421.52 80.0602 1422.1 82.133 1423.33 83.3491C1423.96 83.9848 1425.27 84.7587 1427.6 84.7587C1427.85 84.7587 1429.69 84.7034 1430.97 83.9848C1431.6 83.5979 1432.33 82.9622 1432.77 82.0501H1442.69C1442.24 83.6531 1441.33 85.9195 1439.19 87.9923C1437.05 90.0652 1433.69 91.9999 1427.38 91.9999C1423.55 91.9999 1418.96 91.1707 1415.38 87.6054C1413.49 85.726 1411.1 82.1883 1411.1 76.6883C1411.1 71.8516 1412.91 67.9823 1415.44 65.5225C1417.83 63.2009 1421.6 61.3215 1427.3 61.3215C1430.72 61.3491 1435.08 62.0677 1438.49 65.2737ZM1433.58 72.5702C1433.33 71.4647 1432.66 70.2486 1431.88 69.4748C1430.52 68.1205 1428.63 67.927 1427.6 67.927C1425.85 67.927 1424.49 68.3692 1423.38 69.4748C1422.66 70.2486 1422.02 71.2712 1421.83 72.5702H1433.58ZM1452.58 65.6607C1449.66 68.5074 1447.91 72.5702 1447.91 76.8265C1447.91 81.0828 1449.66 84.9521 1452.38 87.6054C1454.47 89.5954 1458.16 91.9999 1463.8 91.9999C1465.94 91.9999 1468.22 91.7511 1471 90.3969V81.7461C1469.11 83.3491 1467.16 83.6808 1465.69 83.6808C1463.02 83.6808 1461.36 82.52 1460.39 81.4974C1459.16 80.1431 1458.58 78.2637 1458.58 76.6607C1458.58 74.9747 1459.16 73.123 1460.58 71.6858C1461.61 70.6632 1463.16 69.6959 1465.64 69.6959C1467.83 69.6959 1469.66 70.6079 1471.03 71.5752V62.9245C1468.44 61.6255 1466.11 61.3215 1464.28 61.3215C1459.33 61.2938 1455.3 63.0903 1452.58 65.6607ZM1302.87 91.0325H1313.26V71.8516H1302.87V91.0325ZM1292.76 61.5426V47.9999H1282.36V80.7235V91.0325H1292.76V80.7235V71.8793H1302.87V61.5702H1292.76V61.5426ZM1476.64 80.7235V91.0325H1487V80.7235H1476.64Z" fill="white"/>
<mask id="path-9-inside-3_7867_910" fill="white">
<path d="M1551 47.9999H1580.64V57.4798H1571.45V91.0325H1560.22V57.4798H1551V47.9999ZM1646.15 65.2737C1650.23 69.1431 1650.76 74.1732 1650.76 77.4069V78.5124H1629.18C1629.18 80.0602 1629.76 82.133 1630.98 83.3491C1631.62 83.9848 1632.93 84.7587 1635.26 84.7587C1635.51 84.7587 1637.34 84.7034 1638.62 83.9848C1639.26 83.5979 1639.98 82.9622 1640.43 82.0501H1650.34C1649.9 83.6531 1648.98 85.9195 1646.84 87.9923C1644.71 90.0652 1641.34 91.9999 1635.04 91.9999C1631.2 91.9999 1626.62 91.1707 1623.04 87.6054C1621.15 85.726 1618.76 82.1883 1618.76 76.6883C1618.76 71.8516 1620.56 67.9823 1623.09 65.5225C1625.48 63.2009 1629.26 61.3215 1634.95 61.3215C1638.37 61.3491 1642.73 62.0677 1646.15 65.2737ZM1641.23 72.5702C1640.98 71.4647 1640.32 70.2486 1639.54 69.4748C1638.18 68.1205 1636.29 67.927 1635.26 67.927C1633.51 67.927 1632.15 68.3692 1631.04 69.4748C1630.31 70.2486 1629.68 71.2712 1629.48 72.5702H1641.23ZM1695.41 61.6808C1693.46 61.6808 1691.46 61.9295 1689.38 63.0903C1688.07 63.8089 1686.6 65.025 1685.43 67.0979C1684.71 65.6883 1683.54 64.0577 1681.4 62.9798C1679.85 62.1506 1677.9 61.6808 1675.82 61.6808C1672.96 61.6808 1669.6 62.7034 1667.12 65.6883V62.2059H1656.73V91.0325H1667.12V76.7712C1667.12 74.9747 1667.12 72.1833 1668.93 70.4421C1669.76 69.6129 1670.68 69.4195 1671.79 69.4195C1672.82 69.4195 1673.99 69.6129 1674.9 70.5803C1676.07 71.7964 1676.26 74.0074 1676.26 76.7712V91.0325H1686.63V76.2461C1686.63 74.8366 1686.77 72.432 1688.52 70.7737C1689.43 69.9446 1690.41 69.6129 1691.57 69.6129C1692.93 69.6129 1693.71 70.0552 1694.29 70.5803C1695.46 71.6858 1695.79 73.731 1695.79 76.7712V91.0325H1706.18V72.2662C1706.18 70.2763 1706.05 66.8491 1703.46 64.334C1701.05 61.9848 1697.54 61.6808 1695.41 61.6808ZM1739.49 65.2737C1743.58 69.1431 1744.11 74.1732 1744.11 77.4069V78.5124H1722.52C1722.52 80.0602 1723.1 82.133 1724.33 83.3491C1724.96 83.9848 1726.27 84.7587 1728.6 84.7587C1728.85 84.7587 1730.69 84.7034 1731.97 83.9848C1732.6 83.5979 1733.33 82.9622 1733.77 82.0501H1743.69C1743.24 83.6531 1742.33 85.9195 1740.19 87.9923C1738.05 90.0652 1734.69 91.9999 1728.38 91.9999C1724.55 91.9999 1719.96 91.1707 1716.38 87.6054C1714.49 85.726 1712.1 82.1883 1712.1 76.6883C1712.1 71.8516 1713.91 67.9823 1716.44 65.5225C1718.83 63.2009 1722.6 61.3215 1728.3 61.3215C1731.72 61.3491 1736.08 62.0677 1739.49 65.2737ZM1734.58 72.5702C1734.33 71.4647 1733.66 70.2486 1732.88 69.4748C1731.52 68.1205 1729.63 67.927 1728.6 67.927C1726.85 67.927 1725.49 68.3692 1724.38 69.4748C1723.66 70.2486 1723.02 71.2712 1722.83 72.5702H1734.58ZM1753.58 65.6607C1750.66 68.5074 1748.91 72.5702 1748.91 76.8265C1748.91 81.0828 1750.66 84.9521 1753.38 87.6054C1755.47 89.5954 1759.16 91.9999 1764.8 91.9999C1766.94 91.9999 1769.22 91.7511 1772 90.3969V81.7461C1770.11 83.3491 1768.16 83.6808 1766.69 83.6808C1764.02 83.6808 1762.36 82.52 1761.39 81.4974C1760.16 80.1431 1759.58 78.2637 1759.58 76.6607C1759.58 74.9747 1760.16 73.123 1761.58 71.6858C1762.61 70.6632 1764.16 69.6959 1766.64 69.6959C1768.83 69.6959 1770.66 70.6079 1772.03 71.5752V62.9245C1769.44 61.6255 1767.11 61.3215 1765.28 61.3215C1760.33 61.2938 1756.3 63.0903 1753.58 65.6607ZM1603.87 91.0325H1614.26V71.8516H1603.87V91.0325ZM1593.76 61.5426V47.9999H1583.36V80.7235V91.0325H1593.76V80.7235V71.8793H1603.87V61.5702H1593.76V61.5426ZM1777.64 80.7235V91.0325H1788V80.7235H1777.64Z"/>
</mask>
<path d="M1551 47.9999H1580.64V57.4798H1571.45V91.0325H1560.22V57.4798H1551V47.9999ZM1646.15 65.2737C1650.23 69.1431 1650.76 74.1732 1650.76 77.4069V78.5124H1629.18C1629.18 80.0602 1629.76 82.133 1630.98 83.3491C1631.62 83.9848 1632.93 84.7587 1635.26 84.7587C1635.51 84.7587 1637.34 84.7034 1638.62 83.9848C1639.26 83.5979 1639.98 82.9622 1640.43 82.0501H1650.34C1649.9 83.6531 1648.98 85.9195 1646.84 87.9923C1644.71 90.0652 1641.34 91.9999 1635.04 91.9999C1631.2 91.9999 1626.62 91.1707 1623.04 87.6054C1621.15 85.726 1618.76 82.1883 1618.76 76.6883C1618.76 71.8516 1620.56 67.9823 1623.09 65.5225C1625.48 63.2009 1629.26 61.3215 1634.95 61.3215C1638.37 61.3491 1642.73 62.0677 1646.15 65.2737ZM1641.23 72.5702C1640.98 71.4647 1640.32 70.2486 1639.54 69.4748C1638.18 68.1205 1636.29 67.927 1635.26 67.927C1633.51 67.927 1632.15 68.3692 1631.04 69.4748C1630.31 70.2486 1629.68 71.2712 1629.48 72.5702H1641.23ZM1695.41 61.6808C1693.46 61.6808 1691.46 61.9295 1689.38 63.0903C1688.07 63.8089 1686.6 65.025 1685.43 67.0979C1684.71 65.6883 1683.54 64.0577 1681.4 62.9798C1679.85 62.1506 1677.9 61.6808 1675.82 61.6808C1672.96 61.6808 1669.6 62.7034 1667.12 65.6883V62.2059H1656.73V91.0325H1667.12V76.7712C1667.12 74.9747 1667.12 72.1833 1668.93 70.4421C1669.76 69.6129 1670.68 69.4195 1671.79 69.4195C1672.82 69.4195 1673.99 69.6129 1674.9 70.5803C1676.07 71.7964 1676.26 74.0074 1676.26 76.7712V91.0325H1686.63V76.2461C1686.63 74.8366 1686.77 72.432 1688.52 70.7737C1689.43 69.9446 1690.41 69.6129 1691.57 69.6129C1692.93 69.6129 1693.71 70.0552 1694.29 70.5803C1695.46 71.6858 1695.79 73.731 1695.79 76.7712V91.0325H1706.18V72.2662C1706.18 70.2763 1706.05 66.8491 1703.46 64.334C1701.05 61.9848 1697.54 61.6808 1695.41 61.6808ZM1739.49 65.2737C1743.58 69.1431 1744.11 74.1732 1744.11 77.4069V78.5124H1722.52C1722.52 80.0602 1723.1 82.133 1724.33 83.3491C1724.96 83.9848 1726.27 84.7587 1728.6 84.7587C1728.85 84.7587 1730.69 84.7034 1731.97 83.9848C1732.6 83.5979 1733.33 82.9622 1733.77 82.0501H1743.69C1743.24 83.6531 1742.33 85.9195 1740.19 87.9923C1738.05 90.0652 1734.69 91.9999 1728.38 91.9999C1724.55 91.9999 1719.96 91.1707 1716.38 87.6054C1714.49 85.726 1712.1 82.1883 1712.1 76.6883C1712.1 71.8516 1713.91 67.9823 1716.44 65.5225C1718.83 63.2009 1722.6 61.3215 1728.3 61.3215C1731.72 61.3491 1736.08 62.0677 1739.49 65.2737ZM1734.58 72.5702C1734.33 71.4647 1733.66 70.2486 1732.88 69.4748C1731.52 68.1205 1729.63 67.927 1728.6 67.927C1726.85 67.927 1725.49 68.3692 1724.38 69.4748C1723.66 70.2486 1723.02 71.2712 1722.83 72.5702H1734.58ZM1753.58 65.6607C1750.66 68.5074 1748.91 72.5702 1748.91 76.8265C1748.91 81.0828 1750.66 84.9521 1753.38 87.6054C1755.47 89.5954 1759.16 91.9999 1764.8 91.9999C1766.94 91.9999 1769.22 91.7511 1772 90.3969V81.7461C1770.11 83.3491 1768.16 83.6808 1766.69 83.6808C1764.02 83.6808 1762.36 82.52 1761.39 81.4974C1760.16 80.1431 1759.58 78.2637 1759.58 76.6607C1759.58 74.9747 1760.16 73.123 1761.58 71.6858C1762.61 70.6632 1764.16 69.6959 1766.64 69.6959C1768.83 69.6959 1770.66 70.6079 1772.03 71.5752V62.9245C1769.44 61.6255 1767.11 61.3215 1765.28 61.3215C1760.33 61.2938 1756.3 63.0903 1753.58 65.6607ZM1603.87 91.0325H1614.26V71.8516H1603.87V91.0325ZM1593.76 61.5426V47.9999H1583.36V80.7235V91.0325H1593.76V80.7235V71.8793H1603.87V61.5702H1593.76V61.5426ZM1777.64 80.7235V91.0325H1788V80.7235H1777.64Z" stroke="white" stroke-width="2" mask="url(#path-9-inside-3_7867_910)"/>
<path d="M1896 70.0231V79.8318C1895.34 80.5409 1894.67 81.2501 1893.97 81.946C1893.29 82.6153 1892.6 83.2715 1891.88 83.9011C1891.19 84.5241 1890.48 85.1205 1889.75 85.6971C1889.07 86.2273 1888.37 86.7443 1887.66 87.2281C1886.99 87.6986 1886.29 88.136 1885.59 88.5536C1884.89 88.9645 1884.18 89.3423 1883.45 89.6869C1882.77 90.0116 1882.08 90.3165 1881.37 90.575C1880.69 90.8268 1880 91.0521 1879.3 91.2443C1878.78 91.3835 1878.24 91.5094 1877.71 91.6155C1877.52 91.6552 1877.33 91.6884 1877.14 91.7149C1876.47 91.8276 1875.78 91.9071 1875.09 91.9535C1875.07 91.9601 1875.07 91.9601 1875.06 91.9601C1874.79 91.98 1874.51 91.9866 1874.23 91.9932C1874.09 91.9999 1873.95 91.9999 1873.81 91.9999C1873.64 91.9999 1873.46 91.9932 1873.29 91.9932C1873.19 91.9866 1873.1 91.9866 1873 91.98H1872.99C1872.29 91.9469 1871.59 91.8872 1870.88 91.7812C1870.87 91.7812 1870.86 91.7745 1870.85 91.7745C1870.84 91.7679 1870.84 91.7679 1870.84 91.7679C1870.15 91.6685 1869.46 91.5227 1868.8 91.3504C1868.78 91.3438 1868.77 91.3438 1868.76 91.3371C1868.07 91.1648 1867.39 90.9461 1866.72 90.7009C1866.7 90.6943 1866.69 90.6876 1866.68 90.6876C1865.97 90.4292 1865.27 90.1309 1864.58 89.7995C1864.57 89.7929 1864.55 89.7863 1864.54 89.7797C1863.84 89.4483 1863.16 89.0838 1862.49 88.6928C1862.48 88.6861 1862.47 88.6729 1862.45 88.6662C1861.76 88.262 1861.08 87.8246 1860.41 87.3606C1860.4 87.3474 1860.38 87.3407 1860.37 87.3275C1859.65 86.8304 1858.96 86.3069 1858.28 85.77C1858.26 85.7568 1858.24 85.7435 1858.23 85.7303C1857.53 85.1735 1856.86 84.597 1856.2 84.0005C1856.18 83.9806 1856.16 83.9673 1856.15 83.9541C1855.65 83.51 1855.17 83.066 1854.69 82.6087L1854.12 81.999L1854.07 81.946L1852 79.7721V70.0231L1854.71 72.8729C1857.46 75.5173 1860.56 78.0225 1864.02 79.7721C1866.15 80.8524 1868.41 81.6477 1870.81 82.0056C1875.46 82.7015 1879.78 81.7206 1883.73 79.7721C1888.38 77.4724 1892.5 73.8273 1896 70.0231ZM1893.91 58.0207L1893.86 57.9676V67.9155L1895.99 70.0231V60.2144L1893.91 58.0207ZM1852 60.2077V70.0231L1854.08 67.9155V58.0405C1853.36 58.7497 1852.67 59.4787 1852 60.2077ZM1856.1 56.0854V66.0267L1858.24 64.3035V54.2894C1857.51 54.866 1856.8 55.4624 1856.1 56.0854ZM1889.75 54.243C1889.74 54.2297 1889.72 54.2165 1889.7 54.2032V64.4096C1890.38 64.8669 1890.97 65.4501 1891.62 65.9405C1891.67 65.9869 1891.68 66.0466 1891.78 66.0201V55.9661C1891.12 55.3763 1890.45 54.7997 1889.75 54.243ZM1885.53 51.3136C1885.52 51.307 1885.51 51.2937 1885.49 51.2871V61.6128L1887.57 62.8985V52.6126C1886.9 52.1487 1886.23 51.7179 1885.53 51.3136ZM1860.32 52.7584V62.8455C1861.02 62.4611 1861.67 61.964 1862.4 61.6393V51.4396C1861.69 51.8505 1861 52.2879 1860.32 52.7584ZM1881.32 49.2922C1881.3 49.2856 1881.29 49.279 1881.28 49.279V59.6908L1882.58 60.2077L1883.41 60.5391V50.1803C1882.73 49.849 1882.02 49.5507 1881.32 49.2922ZM1864.53 50.3062V60.5457L1865.39 60.2077L1866.61 59.7239V49.4182C1865.9 49.6833 1865.21 49.9815 1864.53 50.3062ZM1868.69 48.7422V59.0678L1870.82 58.6039V48.2782C1870.1 48.3975 1869.39 48.5566 1868.69 48.7422ZM1877.16 48.2186C1877.15 48.2186 1877.14 48.2186 1877.14 48.212C1877.13 48.212 1877.12 48.2053 1877.11 48.2053V58.6768L1879.19 59.0612V48.6295C1878.53 48.4572 1877.85 48.318 1877.16 48.2186ZM1872.91 47.9999V58.4647C1873.58 58.3653 1874.31 58.3918 1874.99 58.4647V47.9999H1872.91ZM1870.81 66.8286C1869.06 68.5783 1869.06 71.4082 1870.81 73.1579C1872.56 74.9075 1875.38 74.9075 1877.13 73.1579C1878.88 71.4082 1878.88 68.5783 1877.13 66.8286C1875.39 65.0856 1872.56 65.0856 1870.81 66.8286Z" fill="white"/>
</svg>
