<svg width="56" height="56" viewBox="0 0 56 56" fill="none" xmlns="http://www.w3.org/2000/svg">
<circle cx="28" cy="28" r="28" fill="url(#paint0_linear_7952_159)"/>
<path fill-rule="evenodd" clip-rule="evenodd" d="M17 28C17 21.9249 21.9249 17 28 17C34.0751 17 39 21.9249 39 28C39 34.0751 34.0751 39 28 39C21.9249 39 17 34.0751 17 28ZM28 19C27.485 19 26.9801 19.0433 26.4888 19.1263L28.739 20.2515C30.1247 20.9443 31 22.3606 31 23.9098V24C31 26.2091 29.2091 28 27 28H26.0848C25.093 28 24.4204 29.0089 24.8019 29.9244C25.6246 31.8991 24.4352 34.1328 22.3376 34.5523L21.9199 34.6358C23.3229 35.922 25.135 36.769 27.1385 36.9593L27.3591 35.4151C27.5114 34.349 28.349 33.5114 29.4151 33.3591C30.3245 33.2292 31 32.4503 31 31.5317V31.2995C31 29.4906 32.8269 28.2537 34.5064 28.9255L36.8103 29.8471C36.9346 29.2509 37 28.6331 37 28C37 23.0294 32.9706 19 28 19ZM36.1837 31.7505L33.7636 30.7825C33.3979 30.6362 33 30.9056 33 31.2995V31.5317C33 33.4456 31.5926 35.0683 29.6979 35.339C29.5118 35.3656 29.3656 35.5118 29.339 35.6979L29.1636 36.9255C32.2914 36.5217 34.916 34.5122 36.1837 31.7505ZM19 28C19 24.5385 20.9542 21.5334 23.8195 20.0278L27.8446 22.0403C28.5527 22.3944 29 23.1181 29 23.9098V24C29 25.1046 28.1046 26 27 26H26.0848C23.6659 26 22.0253 28.4608 22.9557 30.6937C23.293 31.5033 22.8054 32.4191 21.9453 32.5911L20.444 32.8914C19.5305 31.4832 19 29.8035 19 28Z" fill="white"/>
<defs>
<linearGradient id="paint0_linear_7952_159" x1="7.74856" y1="48.3309" x2="48.3842" y2="7.76856" gradientUnits="userSpaceOnUse">
<stop offset="2.85827e-07" stop-color="#29AAE1"/>
<stop offset="0.5052" stop-color="#F68722"/>
<stop offset="1" stop-color="#F9CD14"/>
</linearGradient>
</defs>
</svg>
