<svg width="56" height="56" viewBox="0 0 56 56" fill="none" xmlns="http://www.w3.org/2000/svg">
<circle cx="28" cy="28" r="28" fill="url(#paint0_linear_7952_375)"/>
<path fill-rule="evenodd" clip-rule="evenodd" d="M21.9342 17C21.956 17 21.978 17 22 17L34.0658 17C34.9523 17 35.7161 16.9999 36.3278 17.0821C36.9833 17.1703 37.6117 17.369 38.1213 17.8787C38.631 18.3883 38.8297 19.0167 38.9179 19.6722C39.0001 20.2839 39.0001 21.0477 39 21.9342V30.0658C39.0001 30.9523 39.0001 31.7161 38.9179 32.3278C38.8297 32.9833 38.631 33.6117 38.1213 34.1213C37.6117 34.631 36.9833 34.8297 36.3278 34.9179C35.7161 35.0001 34.9523 35.0001 34.0658 35L29 35V37H32V39H24V37H27V35L21.9342 35C21.0477 35.0001 20.2839 35.0001 19.6722 34.9179C19.0167 34.8297 18.3883 34.631 17.8787 34.1213C17.369 33.6117 17.1703 32.9833 17.0821 32.3278C16.9999 31.7161 17 30.9523 17 30.0658L17 22C17 21.978 17 21.956 17 21.9342C17 21.0477 16.9999 20.2839 17.0821 19.6722C17.1703 19.0167 17.369 18.3883 17.8787 17.8787C18.3883 17.369 19.0167 17.1703 19.6722 17.0821C20.2839 16.9999 21.0477 17 21.9342 17ZM31 33H34C34.9711 33 35.5988 32.9979 36.0613 32.9357C36.495 32.8774 36.631 32.7832 36.7071 32.7071C36.7832 32.631 36.8774 32.495 36.9357 32.0613C36.9979 31.5988 37 30.9711 37 30V22C37 21.0289 36.9979 20.4012 36.9357 19.9387C36.8774 19.505 36.7832 19.369 36.7071 19.2929C36.631 19.2168 36.495 19.1226 36.0613 19.0643C35.5988 19.0021 34.9711 19 34 19H31V33ZM29 19H22C21.0289 19 20.4012 19.0021 19.9387 19.0643C19.505 19.1226 19.369 19.2168 19.2929 19.2929C19.2168 19.369 19.1226 19.505 19.0643 19.9387C19.0021 20.4012 19 21.0289 19 22V30C19 30.9711 19.0021 31.5988 19.0643 32.0613C19.1226 32.495 19.2168 32.631 19.2929 32.7071C19.369 32.7832 19.505 32.8774 19.9387 32.9357C20.4012 32.9979 21.0289 33 22 33H29V19ZM23 22V24H21V22H23ZM28 24H24V22H28V24ZM35 24H32V22H35V24ZM21 30V28H25V30H21ZM26 28H28V30H26V28ZM35 30H32V28H35V30Z" fill="white"/>
<defs>
<linearGradient id="paint0_linear_7952_375" x1="7.74856" y1="48.3309" x2="48.3842" y2="7.76856" gradientUnits="userSpaceOnUse">
<stop offset="2.85827e-07" stop-color="#29AAE1"/>
<stop offset="0.5052" stop-color="#F68722"/>
<stop offset="1" stop-color="#F9CD14"/>
</linearGradient>
</defs>
</svg>
