<svg width="56" height="56" viewBox="0 0 56 56" fill="none" xmlns="http://www.w3.org/2000/svg">
<circle cx="28" cy="28" r="28" fill="url(#paint0_linear_7952_238)"/>
<path d="M22.2373 21.6528L22.7974 20.8243L22.7974 20.8243L22.2373 21.6528ZM25.0209 19.98L24.0265 20.0857L25.0209 19.98ZM19.3464 22.0975L18.4941 21.5743H18.4941L19.3464 22.0975ZM22.0354 21.5163L21.4753 22.3447H21.4753L22.0354 21.5163ZM19.0661 26.3912L19.4568 25.4707L19.0661 26.3912ZM18.2595 23.8681L19.1117 24.3913H19.1117L18.2595 23.8681ZM19.066 29.6088L19.4567 30.5293L19.066 29.6088ZM18.2593 32.132L17.4071 32.6551L18.2593 32.132ZM22.0353 34.4837L22.5954 35.3121L22.5954 35.3121L22.0353 34.4837ZM19.3461 33.9024L20.1984 33.3793L19.3461 33.9024ZM25.0209 36.02L26.0153 36.1257L25.0209 36.02ZM22.2372 34.3472L21.6771 33.5187L21.6771 33.5187L22.2372 34.3472ZM30.9792 36.0199L31.9736 35.9142L30.9792 36.0199ZM33.763 34.3471L34.3231 33.5186L34.3231 33.5186L33.763 34.3471ZM36.6542 33.9024L35.802 33.3792L36.6542 33.9024ZM33.965 34.4836L33.4049 35.3121L33.4049 35.3121L33.965 34.4836ZM36.9344 29.6088L36.5436 30.5293L36.9344 29.6088ZM37.741 32.132L38.5933 32.6551L37.741 32.132ZM36.9343 26.3912L37.325 27.3117L36.9343 26.3912ZM37.7409 23.8681L38.5931 23.345V23.345L37.7409 23.8681ZM33.9648 21.5163L34.5249 22.3447L34.5249 22.3447L33.9648 21.5163ZM36.654 22.0976L35.8018 22.6207V22.6207L36.654 22.0976ZM30.9792 19.98L29.9848 19.8743L30.9792 19.98ZM33.7629 21.6529L33.2028 20.8244V20.8244L33.7629 21.6529ZM30 28C30 29.1046 29.1046 30 28 30V32C30.2091 32 32 30.2091 32 28H30ZM28 30C26.8954 30 26 29.1046 26 28H24C24 30.2091 25.7909 32 28 32V30ZM26 28C26 26.8954 26.8954 26 28 26V24C25.7909 24 24 25.7909 24 28H26ZM28 26C29.1046 26 30 26.8954 30 28H32C32 25.7909 30.2091 24 28 24V26ZM29.1986 17H26.8015V19H29.1986V17ZM33.4047 20.6879L33.2028 20.8244L34.323 22.4813L34.5249 22.3447L33.4047 20.6879ZM38.5931 23.345L37.5062 21.5744L35.8018 22.6207L36.8886 24.3913L38.5931 23.345ZM37.5065 34.4255L38.5933 32.6551L36.8888 31.6088L35.802 33.3792L37.5065 34.4255ZM33.2029 35.1755L33.4049 35.3121L34.5251 33.6552L34.3231 33.5186L33.2029 35.1755ZM26.8015 39H29.1985V37H26.8015V39ZM22.5954 35.3121L22.7973 35.1756L21.6771 33.5187L21.4752 33.6553L22.5954 35.3121ZM17.4071 32.6551L18.4939 34.4256L20.1984 33.3793L19.1115 31.6088L17.4071 32.6551ZM18.4941 21.5743L17.4072 23.345L19.1117 24.3913L20.1986 22.6207L18.4941 21.5743ZM22.7974 20.8243L22.5955 20.6878L21.4753 22.3447L21.6772 22.4812L22.7974 20.8243ZM21.6772 22.4812C23.6434 23.8106 26.2662 22.2344 26.0153 19.8743L24.0265 20.0857C24.0976 20.7544 23.3545 21.201 22.7974 20.8243L21.6772 22.4812ZM20.1986 22.6207C20.4679 22.1819 21.0488 22.0563 21.4753 22.3447L22.5955 20.6878C21.2254 19.7615 19.3594 20.1648 18.4941 21.5743L20.1986 22.6207ZM19.4568 25.4707C19.0359 25.2921 18.8725 24.7809 19.1117 24.3913L17.4072 23.345C16.5283 24.7768 17.1288 26.6553 18.6753 27.3117L19.4568 25.4707ZM19.4567 30.5293C21.6887 29.5819 21.689 26.4182 19.4568 25.4707L18.6753 27.3117C19.2826 27.5695 19.2828 28.4304 18.6753 28.6883L19.4567 30.5293ZM19.1115 31.6088C18.8724 31.2192 19.0358 30.7079 19.4567 30.5293L18.6753 28.6883C17.1287 29.3447 16.528 31.2232 17.4071 32.6551L19.1115 31.6088ZM21.4752 33.6553C21.0486 33.9437 20.4677 33.8181 20.1984 33.3793L18.4939 34.4256C19.3592 35.8352 21.2252 36.2385 22.5954 35.3121L21.4752 33.6553ZM26.0153 36.1257C26.2662 33.7655 23.6434 32.1893 21.6771 33.5187L22.7973 35.1756C23.3544 34.7989 24.0976 35.2455 24.0265 35.9142L26.0153 36.1257ZM26.8015 37C26.3318 37 25.9656 36.5928 26.0153 36.1257L24.0265 35.9142C23.8512 37.563 25.1435 39 26.8015 39V37ZM29.9848 36.1256C30.0345 36.5928 29.6683 37 29.1985 37V39C30.8566 39 32.1489 37.5629 31.9736 35.9142L29.9848 36.1256ZM34.3231 33.5186C32.3567 32.1892 29.7339 33.7654 29.9848 36.1256L31.9736 35.9142C31.9025 35.2454 32.6457 34.7988 33.2029 35.1755L34.3231 33.5186ZM35.802 33.3792C35.5326 33.8181 34.9517 33.9436 34.5251 33.6552L33.4049 35.3121C34.7751 36.2385 36.6412 35.8351 37.5065 34.4255L35.802 33.3792ZM36.5436 30.5293C36.9646 30.7079 37.128 31.2192 36.8888 31.6088L38.5933 32.6551C39.4723 31.2232 38.8717 29.3447 37.3251 28.6883L36.5436 30.5293ZM36.5436 25.4707C34.3113 26.4182 34.3116 29.5819 36.5436 30.5293L37.3251 28.6883C36.7176 28.4304 36.7177 27.5695 37.325 27.3117L36.5436 25.4707ZM36.8886 24.3913C37.1278 24.7809 36.9644 25.2921 36.5436 25.4707L37.325 27.3117C38.8716 26.6553 39.4721 24.7768 38.5931 23.345L36.8886 24.3913ZM34.5249 22.3447C34.9515 22.0564 35.5324 22.1819 35.8018 22.6207L37.5062 21.5744C36.641 20.1649 34.7749 19.7615 33.4047 20.6879L34.5249 22.3447ZM29.9848 19.8743C29.7339 22.2345 32.3567 23.8107 34.323 22.4813L33.2028 20.8244C32.6457 21.2011 31.9025 20.7545 31.9736 20.0858L29.9848 19.8743ZM26.8015 17C25.1435 17 23.8512 18.437 24.0265 20.0857L26.0153 19.8743C25.9656 19.4071 26.3317 19 26.8015 19V17ZM29.1986 19C29.6683 19 30.0345 19.4072 29.9848 19.8743L31.9736 20.0858C32.1489 18.437 30.8566 17 29.1986 17V19Z" fill="white"/>
<defs>
<linearGradient id="paint0_linear_7952_238" x1="7.74856" y1="48.3309" x2="48.3842" y2="7.76856" gradientUnits="userSpaceOnUse">
<stop offset="2.85827e-07" stop-color="#29AAE1"/>
<stop offset="0.5052" stop-color="#F68722"/>
<stop offset="1" stop-color="#F9CD14"/>
</linearGradient>
</defs>
</svg>
