<svg width="56" height="56" viewBox="0 0 56 56" fill="none" xmlns="http://www.w3.org/2000/svg">
<circle cx="28" cy="28" r="28" fill="url(#paint0_linear_7952_586)"/>
<path d="M22.5 27.5V34.5C22.5 34.9659 22.5 35.1989 22.4239 35.3827C22.3224 35.6277 22.1277 35.8224 21.8827 35.9239C21.6989 36 21.4659 36 21 36C20.5341 36 20.3011 36 20.1173 35.9239C19.8723 35.8224 19.6776 35.6277 19.5761 35.3827C19.5 35.1989 19.5 34.9659 19.5 34.5V27.5C19.5 27.0341 19.5 26.8011 19.5761 26.6173C19.6776 26.3723 19.8723 26.1776 20.1173 26.0761C20.3011 26 20.5341 26 21 26C21.4659 26 21.6989 26 21.8827 26.0761C22.1277 26.1776 22.3224 26.3723 22.4239 26.6173C22.5 26.8011 22.5 27.0341 22.5 27.5Z" stroke="white" stroke-width="1.5" stroke-linejoin="round"/>
<path d="M36.5 21.5V34.5C36.5 34.9659 36.5 35.1989 36.4239 35.3827C36.3224 35.6277 36.1277 35.8224 35.8827 35.9239C35.6989 36 35.4659 36 35 36C34.5341 36 34.3011 36 34.1173 35.9239C33.8723 35.8224 33.6776 35.6277 33.5761 35.3827C33.5 35.1989 33.5 34.9659 33.5 34.5V21.5C33.5 21.0341 33.5 20.8011 33.5761 20.6173C33.6776 20.3723 33.8723 20.1776 34.1173 20.0761C34.3011 20 34.5341 20 35 20C35.4659 20 35.6989 20 35.8827 20.0761C36.1277 20.1776 36.3224 20.3723 36.4239 20.6173C36.5 20.8011 36.5 21.0341 36.5 21.5Z" stroke="white" stroke-width="1.5" stroke-linejoin="round"/>
<path d="M29.5 25V34.5C29.5 34.9659 29.5 35.1989 29.4239 35.3827C29.3224 35.6277 29.1277 35.8224 28.8827 35.9239C28.6989 36 28.4659 36 28 36C27.5341 36 27.3011 36 27.1173 35.9239C26.8723 35.8224 26.6776 35.6277 26.5761 35.3827C26.5 35.1989 26.5 34.9659 26.5 34.5V25C26.5 24.5341 26.5 24.3011 26.5761 24.1173C26.6776 23.8723 26.8723 23.6776 27.1173 23.5761C27.3011 23.5 27.5341 23.5 28 23.5C28.4659 23.5 28.6989 23.5 28.8827 23.5761C29.1277 23.6776 29.3224 23.8723 29.4239 24.1173C29.5 24.3011 29.5 24.5341 29.5 25Z" stroke="white" stroke-width="1.5" stroke-linejoin="round"/>
<defs>
<linearGradient id="paint0_linear_7952_586" x1="7.74856" y1="48.3309" x2="48.3842" y2="7.76856" gradientUnits="userSpaceOnUse">
<stop offset="2.85827e-07" stop-color="#29AAE1"/>
<stop offset="0.5052" stop-color="#F68722"/>
<stop offset="1" stop-color="#F9CD14"/>
</linearGradient>
</defs>
</svg>
