<svg width="56" height="56" viewBox="0 0 56 56" fill="none" xmlns="http://www.w3.org/2000/svg">
<circle cx="28" cy="28" r="28" fill="url(#paint0_linear_7952_173)"/>
<path d="M28.0008 33C24.6871 33 22.0008 30.3137 22.0008 27V21.75C22.0008 20.1063 22.0008 19.2844 22.4548 18.7312C22.5379 18.6299 22.6307 18.5371 22.732 18.454C23.2852 18 24.107 18 25.7508 18H30.2508C31.8945 18 32.7164 18 33.2696 18.454C33.3708 18.5371 33.4637 18.6299 33.5468 18.7312C34.0008 19.2844 34.0008 20.1063 34.0008 21.75V27C34.0008 30.3137 31.3145 33 28.0008 33ZM28.0008 33V38M23.0008 38H33.0008M22.0008 29C20.8333 29 20.2496 29 19.7976 28.7497C19.5428 28.6086 19.3219 28.4136 19.1503 28.1783C18.8459 27.7608 18.7735 27.1816 18.6287 26.0232L18.4969 24.9691C18.2979 23.3768 18.1984 22.5806 18.5352 21.9984C18.6683 21.7683 18.846 21.5671 19.0578 21.4065C19.5937 21 20.3961 21 22.0008 21M34.0008 29C35.1682 29 35.7519 29 36.204 28.7497C36.4588 28.6086 36.6797 28.4136 36.8513 28.1783C37.1557 27.7608 37.2281 27.1816 37.3729 26.0232L37.5046 24.9691C37.7037 23.3768 37.8032 22.5806 37.4663 21.9984C37.3332 21.7683 37.1556 21.5671 36.9438 21.4065C36.4079 21 35.6055 21 34.0008 21" stroke="white" stroke-width="2" stroke-linecap="round" stroke-linejoin="round"/>
<defs>
<linearGradient id="paint0_linear_7952_173" x1="7.74856" y1="48.3309" x2="48.3842" y2="7.76856" gradientUnits="userSpaceOnUse">
<stop offset="2.85827e-07" stop-color="#29AAE1"/>
<stop offset="0.5052" stop-color="#F68722"/>
<stop offset="1" stop-color="#F9CD14"/>
</linearGradient>
</defs>
</svg>
