<svg width="56" height="56" viewBox="0 0 56 56" fill="none" xmlns="http://www.w3.org/2000/svg">
<circle cx="28" cy="28" r="28" fill="url(#paint0_linear_7952_207)"/>
<g clip-path="url(#clip0_7952_207)">
<path d="M37.5037 28.8105H37.504H37.5037ZM37.5037 28.8105H37.5033M37.5037 28.8105H37.5033M37.5033 28.8105H37.5028M37.5033 28.8105H37.5028M37.5028 28.8105H37.5023M37.5028 28.8105H37.5023M37.5023 28.8105H37.5018M37.5023 28.8105H37.5018M37.5018 28.8105H37.5012M37.5018 28.8105H37.5012M37.5012 28.8105H37.5005M37.5012 28.8105H37.5005M37.5005 28.8105H37.4997M37.5005 28.8105H37.4997M37.4997 28.8105H37.4989M37.4997 28.8105H37.4989M37.4989 28.8105H37.498M37.4989 28.8105H37.498M37.498 28.8105H37.4971M37.498 28.8105H37.4971M37.4971 28.8105H37.4961M37.4971 28.8105H37.4961M37.4961 28.8105H37.495M37.4961 28.8105H37.495M37.495 28.8105H37.4939M37.495 28.8105H37.4939M37.4939 28.8105H37.4927M37.4939 28.8105H37.4927M37.4927 28.8105H37.4915M37.4927 28.8105H37.4915M37.4915 28.8105H37.4902M37.4915 28.8105H37.4902M37.4902 28.8105H37.4888M37.4902 28.8105H37.4888M37.4888 28.8105H37.4874M37.4888 28.8105H37.4874M37.4874 28.8105H37.4859M37.4874 28.8105H37.4859M37.4859 28.8105H37.4844M37.4859 28.8105H37.4844M37.4844 28.8105H37.4828M37.4844 28.8105H37.4828M37.4828 28.8105H37.4812M37.4828 28.8105H37.4812M37.4812 28.8105H37.4795M37.4812 28.8105H37.4795M37.4795 28.8105H37.4777M37.4795 28.8105H37.4777M37.4777 28.8105H37.4759M37.4777 28.8105H37.4759M37.4759 28.8105H37.474M37.4759 28.8105H37.474M37.474 28.8105H37.4721M37.474 28.8105H37.4721M37.4721 28.8105H37.4701M37.4721 28.8105H37.4701M37.4701 28.8105H37.468M37.4701 28.8105H37.468M37.468 28.8105H37.4659M37.468 28.8105H37.4659M37.4659 28.8105H37.4637M37.4659 28.8105H37.4637M37.4637 28.8105H37.4615M37.4637 28.8105H37.4615M37.4615 28.8105H37.4592M37.4615 28.8105H37.4592M37.4592 28.8105H37.4569M37.4592 28.8105H37.4569M37.4569 28.8105H37.4545M37.4569 28.8105H37.4545M37.4545 28.8105H37.4521M37.4545 28.8105H37.4521M37.4521 28.8105H37.4496M37.4521 28.8105H37.4496M37.4496 28.8105H37.4471M37.4496 28.8105H37.4471M37.4471 28.8105H37.4445M37.4471 28.8105H37.4445M37.4445 28.8105H37.4418M37.4445 28.8105H37.4418M37.4418 28.8105H37.4391M37.4418 28.8105H37.4391M37.4391 28.8105H37.4363M37.4391 28.8105H37.4363M37.4363 28.8105H37.4335M37.4363 28.8105H37.4335M37.4335 28.8105H37.4307M37.4335 28.8105H37.4307M37.4307 28.8105H37.4277M37.4307 28.8105H37.4277M37.4277 28.8105H37.4248M37.4277 28.8105H37.4248M37.4248 28.8105H37.4217M37.4248 28.8105H37.4217M37.4217 28.8105H37.4187M37.4217 28.8105H37.4187M37.4187 28.8105H37.4155M37.4187 28.8105H37.4155M37.4155 28.8105H37.4124M37.4155 28.8105H37.4124M37.4124 28.8105H37.4091M37.4124 28.8105H37.4091M37.4091 28.8105H37.4059M37.4091 28.8105H37.4059M37.4059 28.8105H37.4025M37.4059 28.8105H37.4025M37.4025 28.8105H37.3992M37.4025 28.8105H37.3992M37.3992 28.8105H37.3957M37.3992 28.8105H37.3957M37.3957 28.8105H37.3922M37.3957 28.8105H37.3922M37.3922 28.8105H37.3887M37.3922 28.8105H37.3887M37.3887 28.8105H37.3851M37.3887 28.8105H37.3851M37.3851 28.8105H37.3815M37.3851 28.8105H37.3815M37.3815 28.8105H37.3778M37.3815 28.8105H37.3778M37.3778 28.8105H37.3741M37.3778 28.8105H37.3741M37.3741 28.8105H37.3704M37.3741 28.8105H37.3704M37.3704 28.8105H37.3665M37.3704 28.8105H37.3665M37.3665 28.8105H37.3627M37.3665 28.8105H37.3627M37.3627 28.8105H37.3588M37.3627 28.8105H37.3588M37.3588 28.8105H37.3548M37.3588 28.8105H37.3548M37.3548 28.8105H37.3508M37.3548 28.8105H37.3508M37.3508 28.8105H37.3467M37.3508 28.8105H37.3467M37.3467 28.8105H37.3427M37.3467 28.8105H37.3427M37.3427 28.8105H37.3385M37.3427 28.8105H37.3385M37.3385 28.8105H37.3343M37.3385 28.8105H37.3343M37.3343 28.8105H37.3301M37.3343 28.8105H37.3301M37.3301 28.8105H37.3258M37.3301 28.8105H37.3258M37.3258 28.8105H37.3215M37.3258 28.8105H37.3215M37.3215 28.8105H37.3171M37.3215 28.8105H37.3171M37.3171 28.8105H37.3127M37.3171 28.8105H37.3127M37.3127 28.8105H37.3082M37.3127 28.8105H37.3082M37.3082 28.8105H37.3037M37.3082 28.8105H37.3037M37.3037 28.8105H37.2992M37.3037 28.8105H37.2992M37.2992 28.8105H37.2946M37.2992 28.8105H37.2946M37.2946 28.8105H37.29M37.2946 28.8105H37.29M37.29 28.8105H37.2853M37.29 28.8105H37.2853M37.2853 28.8105H37.2806M37.2853 28.8105H37.2806M37.2806 28.8105H37.2758M37.2806 28.8105H37.2758M37.2758 28.8105H37.271M37.2758 28.8105H37.271M37.271 28.8105H37.2661M37.271 28.8105H37.2661M37.2661 28.8105H37.2613M37.2661 28.8105H37.2613M37.2613 28.8105H37.2563M37.2613 28.8105H37.2563M37.2563 28.8105H37.2514M37.2563 28.8105H37.2514M37.2514 28.8105H37.2464M37.2514 28.8105H37.2464M37.2464 28.8105H37.2413M37.2464 28.8105H37.2413M37.2413 28.8105H37.2362M37.2413 28.8105H37.2362M37.2362 28.8105H37.2311M37.2362 28.8105H37.2311M37.2311 28.8105H37.2259M37.2311 28.8105H37.2259M37.2259 28.8105H37.2207M37.2259 28.8105H37.2207M37.2207 28.8105H37.2154M37.2207 28.8105H37.2154M37.2154 28.8105H37.2101M37.2154 28.8105H37.2101M37.2101 28.8105H37.2048M37.2101 28.8105H37.2048M37.2048 28.8105H37.1995M37.2048 28.8105H37.1995M37.1995 28.8105H37.194M37.1995 28.8105H37.194M37.194 28.8105H37.1886M37.194 28.8105H37.1886M37.1886 28.8105H37.1831M37.1886 28.8105H37.1831M37.1831 28.8105H37.1776M37.1831 28.8105H37.1776M37.1776 28.8105H37.172M37.1776 28.8105H37.172M37.172 28.8105H37.1664M37.172 28.8105H37.1664M37.1664 28.8105H37.1608M37.1664 28.8105H37.1608M37.1608 28.8105H37.1551M37.1608 28.8105H37.1551M37.1551 28.8105H37.1494M37.1551 28.8105H37.1494M37.1494 28.8105H37.1437M37.1494 28.8105H37.1437M37.1437 28.8105H37.1379M37.1437 28.8105H37.1379M37.1379 28.8105H37.1321M37.1379 28.8105H37.1321M37.1321 28.8105H37.1263M37.1321 28.8105H37.1263M37.1263 28.8105H37.1204M37.1263 28.8105H37.1204M37.1204 28.8105H37.1145M37.1204 28.8105H37.1145M37.1145 28.8105H37.1085M37.1145 28.8105H37.1085M37.1085 28.8105H37.1025M37.1085 28.8105H37.1025M37.1025 28.8105H37.0965M37.1025 28.8105H37.0965M37.0965 28.8105H37.0905M37.0965 28.8105H37.0905M37.0905 28.8105H37.0844M37.0905 28.8105H37.0844M37.0844 28.8105H37.0782M37.0844 28.8105H37.0782M37.0782 28.8105H37.0721M37.0782 28.8105H37.0721M37.0721 28.8105H37.0659M37.0721 28.8105H37.0659M37.0659 28.8105H37.0597M37.0659 28.8105H37.0597M37.0597 28.8105H37.0534M37.0597 28.8105H37.0534M37.0534 28.8105H37.0471M37.0534 28.8105H37.0471M37.0471 28.8105H37.0408M37.0471 28.8105H37.0408M37.0408 28.8105H37.0345M37.0408 28.8105H37.0345M37.0345 28.8105H37.0281M37.0345 28.8105H37.0281M37.0281 28.8105H37.0217M37.0281 28.8105H37.0217M37.0217 28.8105H37.0153M37.0217 28.8105H37.0153M37.0153 28.8105H37.0088M37.0153 28.8105H37.0088M37.0088 28.8105H37.0023M37.0088 28.8105H37.0023M37.0023 28.8105H36.9957M37.0023 28.8105H36.9957M36.9957 28.8105H36.9892M36.9957 28.8105H36.9892M36.9892 28.8105H36.9826M36.9892 28.8105H36.9826M36.9826 28.8105H36.976M36.9826 28.8105H36.976M36.976 28.8105H36.9693M36.976 28.8105H36.9693M36.9693 28.8105H36.9626M36.9693 28.8105H36.9626M36.9626 28.8105H36.9559M36.9626 28.8105H36.9559M36.9559 28.8105H36.9492M36.9559 28.8105H36.9492M36.9492 28.8105H36.9424M36.9492 28.8105H36.9424M36.9424 28.8105H36.9356M36.9424 28.8105H36.9356M36.9356 28.8105H36.9288M36.9356 28.8105H36.9288M36.9288 28.8105H36.922M36.9288 28.8105H36.922M36.922 28.8105H36.9151M36.922 28.8105H36.9151M36.9151 28.8105H36.9082M36.9151 28.8105H36.9082M36.9082 28.8105H36.9013M36.9082 28.8105H36.9013M36.9013 28.8105H36.8943M36.9013 28.8105H36.8943M36.8943 28.8105H36.8874M36.8943 28.8105H36.8874M36.8874 28.8105H36.8804M36.8874 28.8105H36.8804M36.8804 28.8105H36.8733M36.8804 28.8105H36.8733M36.8733 28.8105H36.8663M36.8733 28.8105H36.8663M36.8663 28.8105H36.8592M36.8663 28.8105H36.8592M36.8592 28.8105H36.8521M36.8592 28.8105H36.8521M36.8521 28.8105H36.845M36.8521 28.8105H36.845M36.845 28.8105H36.8378M36.845 28.8105H36.8378M36.8378 28.8105H36.8306M36.8378 28.8105H36.8306M36.8306 28.8105H36.8234M36.8306 28.8105H36.8234M36.8234 28.8105H36.8162M36.8234 28.8105H36.8162M36.8162 28.8105H36.809M36.8162 28.8105H36.809M36.809 28.8105H36.8017M36.809 28.8105H36.8017M36.8017 28.8105H36.7944M36.8017 28.8105H36.7944M36.7944 28.8105H36.7871M36.7944 28.8105H36.7871M36.7871 28.8105H36.7797M36.7871 28.8105H36.7797M36.7797 28.8105H36.7724M36.7797 28.8105H36.7724M36.7724 28.8105H36.765M36.7724 28.8105H36.765M36.765 28.8105H36.7576M36.765 28.8105H36.7576M36.7576 28.8105H36.7502M36.7576 28.8105H36.7502M36.7502 28.8105H36.7427M36.7502 28.8105H36.7427M36.7427 28.8105H36.7353M36.7427 28.8105H36.7353M36.7353 28.8105H36.7278M36.7353 28.8105H36.7278M36.7278 28.8105H36.7203M36.7278 28.8105H36.7203M36.7203 28.8105H36.7127M36.7203 28.8105H36.7127M36.7127 28.8105H36.7052M36.7127 28.8105H36.7052M36.7052 28.8105H36.6976M36.7052 28.8105H36.6976M36.6976 28.8105H36.6901M36.6976 28.8105H36.6901M36.6901 28.8105H36.6825M36.6901 28.8105H36.6825M36.6825 28.8105H36.6748M36.6825 28.8105H36.6748M36.6748 28.8105H36.6672M36.6748 28.8105H36.6672M36.6672 28.8105H36.6595M36.6672 28.8105H36.6595M36.6595 28.8105H36.6519M36.6595 28.8105H36.6519M36.6519 28.8105H36.6442M36.6519 28.8105H36.6442M36.6442 28.8105H36.6365M36.6442 28.8105H36.6365M36.6365 28.8105H36.6287M36.6365 28.8105H36.6287M36.6287 28.8105H36.621M36.6287 28.8105H36.621M36.621 28.8105H36.6132M36.621 28.8105H36.6132M36.6132 28.8105H36.6054M36.6132 28.8105H36.6054M36.6054 28.8105H36.5976M36.6054 28.8105H36.5976M36.5976 28.8105H36.5898M36.5976 28.8105H36.5898M36.5898 28.8105H36.582M36.5898 28.8105H36.582M36.582 28.8105H36.5742M36.582 28.8105H36.5742M36.5742 28.8105H36.5663M36.5742 28.8105H36.5663M36.5663 28.8105H36.5584M36.5663 28.8105H36.5584M36.5584 28.8105H36.5506M36.5584 28.8105H36.5506M36.5506 28.8105H36.5427M36.5506 28.8105H36.5427M36.5427 28.8105H36.5347M36.5427 28.8105H36.5347M36.5347 28.8105H36.5268M36.5347 28.8105H36.5268M36.5268 28.8105H36.5189M36.5268 28.8105H36.5189M36.5189 28.8105H36.5109M36.5189 28.8105H36.5109M36.5109 28.8105H36.5029M36.5109 28.8105H36.5029M36.5029 28.8105H36.495M36.5029 28.8105H36.495M36.495 28.8105H36.487M36.495 28.8105H36.487M36.487 28.8105H36.479M36.487 28.8105H36.479M36.479 28.8105H36.471M36.479 28.8105H36.471M36.471 28.8105H36.4629M36.471 28.8105H36.4629M36.4629 28.8105H36.4549M36.4629 28.8105H36.4549M36.4549 28.8105H36.4468M36.4549 28.8105H36.4468M36.4468 28.8105H36.4388M36.4468 28.8105H36.4388M36.4388 28.8105H36.4307M36.4388 28.8105H36.4307M36.4307 28.8105H36.4226M36.4307 28.8105H36.4226M36.4226 28.8105H36.4145M36.4226 28.8105H36.4145M36.4145 28.8105H36.4064M36.4145 28.8105H36.4064M36.4064 28.8105H36.3983M36.4064 28.8105H36.3983M36.3983 28.8105H36.3902M36.3983 28.8105H36.3902M36.3902 28.8105H36.382M36.3902 28.8105H36.382M36.382 28.8105H36.3739M36.382 28.8105H36.3739M36.3739 28.8105H36.3657M36.3739 28.8105H36.3657M36.3657 28.8105H36.3576M36.3657 28.8105H36.3576M36.3576 28.8105H36.3494M36.3576 28.8105H36.3494M36.3494 28.8105H36.3412M36.3494 28.8105H36.3412M36.3412 28.8105H36.333M36.3412 28.8105H36.333M36.333 28.8105H36.3249M36.333 28.8105H36.3249M36.3249 28.8105H36.3167M36.3249 28.8105H36.3167M36.3167 28.8105H36.3085M36.3167 28.8105H36.3085M36.3085 28.8105H36.3002M36.3085 28.8105H36.3002M36.3002 28.8105H36.292M36.3002 28.8105H36.292M36.292 28.8105H36.2838M36.292 28.8105H36.2838M36.2838 28.8105H36.2756M36.2838 28.8105H36.2756M36.2756 28.8105H36.2673M36.2756 28.8105H36.2673M36.2673 28.8105H36.2591M36.2673 28.8105H36.2591M36.2591 28.8105H36.2508M36.2591 28.8105H36.2508M36.2508 28.8105H36.2426M36.2508 28.8105H36.2426M36.2426 28.8105H36.2343M36.2426 28.8105H36.2343M36.2343 28.8105H36.2261M36.2343 28.8105H36.2261M36.2261 28.8105H36.2178M36.2261 28.8105H36.2178M36.2178 28.8105H36.2095M36.2178 28.8105H36.2095M36.2095 28.8105H36.2013M36.2095 28.8105H36.2013M36.2013 28.8105H36.193M36.2013 28.8105H36.193M36.193 28.8105H36.1847M36.193 28.8105H36.1847M36.1847 28.8105H36.1764M36.1847 28.8105H36.1764M36.1764 28.8105H36.1681M36.1764 28.8105H36.1681M36.1681 28.8105H36.1598M36.1681 28.8105H36.1598M36.1598 28.8105H36.1515M36.1598 28.8105H36.1515M36.1515 28.8105H36.1433M36.1515 28.8105H36.1433M36.1433 28.8105H36.135M36.1433 28.8105H36.135M36.135 28.8105H36.1267M36.135 28.8105H36.1267M36.1267 28.8105H36.1184M36.1267 28.8105H36.1184M36.1184 28.8105H36.1101M36.1184 28.8105H36.1101M36.1101 28.8105H36.1018M36.1101 28.8105H36.1018M36.1018 28.8105H36.0935M36.1018 28.8105H36.0935M36.0935 28.8105H36.0852M36.0935 28.8105H36.0852M36.0852 28.8105H36.0769M36.0852 28.8105H36.0769M36.0769 28.8105H36.0686M36.0769 28.8105H36.0686M36.0686 28.8105H36.0603M36.0686 28.8105H36.0603M36.0603 28.8105H36.052M36.0603 28.8105H36.052M36.052 28.8105H36.0437M36.052 28.8105H36.0437M36.0437 28.8105H36.0354M36.0437 28.8105H36.0354M36.0354 28.8105H36.0271M36.0354 28.8105H36.0271M36.0271 28.8105H36.0188M36.0271 28.8105H36.0188M36.0188 28.8105H36.0105M36.0188 28.8105H36.0105M36.0105 28.8105H36.0022M36.0105 28.8105H36.0022M36.0022 28.8105H35.9939M36.0022 28.8105H35.9939M35.9939 28.8105H35.9857M35.9939 28.8105H35.9857M35.9857 28.8105H35.9774M35.9857 28.8105H35.9774M35.9774 28.8105H35.9691M35.9774 28.8105H35.9691M35.9691 28.8105H35.9608M35.9691 28.8105H35.9608M35.9608 28.8105H35.9526M35.9608 28.8105H35.9526M35.9526 28.8105H35.9443M35.9526 28.8105H35.9443M35.9443 28.8105H35.936M35.9443 28.8105H35.936M35.936 28.8105H35.9278M35.936 28.8105H35.9278M35.9278 28.8105H35.9195M35.9278 28.8105H35.9195M35.9195 28.8105H35.9113M35.9195 28.8105H35.9113M35.9113 28.8105H35.9031M35.9113 28.8105H35.9031M35.9031 28.8105H35.8948M35.9031 28.8105H35.8948M35.8948 28.8105H35.8866M35.8948 28.8105H35.8866M35.8866 28.8105H35.8784M35.8866 28.8105H35.8784M35.8784 28.8105H35.8702M35.8784 28.8105H35.8702M35.8702 28.8105H35.862M35.8702 28.8105H35.862M35.862 28.8105H35.8538M35.862 28.8105H35.8538M35.8538 28.8105H35.8456M35.8538 28.8105H35.8456M35.8456 28.8105H35.8374M35.8456 28.8105H35.8374M35.8374 28.8105H35.8292M35.8374 28.8105H35.8292M35.8292 28.8105H35.821M35.8292 28.8105H35.821M35.821 28.8105H35.8129M35.821 28.8105H35.8129M35.8129 28.8105H35.8047M35.8129 28.8105H35.8047M35.8047 28.8105H35.7966M35.8047 28.8105H35.7966M35.7966 28.8105H35.7884M35.7966 28.8105H35.7884M35.7884 28.8105H35.7803M35.7884 28.8105H35.7803M35.7803 28.8105H35.7722M35.7803 28.8105H35.7722M35.7722 28.8105H35.7641M35.7722 28.8105H35.7641M35.7641 28.8105H35.756M35.7641 28.8105H35.756M35.756 28.8105H35.7479M35.756 28.8105H35.7479M35.7479 28.8105H35.7398M35.7479 28.8105H35.7398M35.7398 28.8105H35.7317M35.7398 28.8105H35.7317M35.7317 28.8105H35.7237M35.7317 28.8105H35.7237M35.7237 28.8105H35.7156M35.7237 28.8105H35.7156M35.7156 28.8105H35.7076M35.7156 28.8105H35.7076M35.7076 28.8105H35.6996M35.7076 28.8105H35.6996M35.6996 28.8105H35.6916M35.6996 28.8105H35.6916M35.6916 28.8105H35.6836M35.6916 28.8105H35.6836M35.6836 28.8105H35.6756M35.6836 28.8105H35.6756M35.6756 28.8105H35.6676M35.6756 28.8105H35.6676M35.6676 28.8105H35.6597M35.6676 28.8105H35.6597M35.6597 28.8105H35.6517M35.6597 28.8105H35.6517M35.6517 28.8105H35.6438M35.6517 28.8105H35.6438M35.6438 28.8105H35.6359M35.6438 28.8105H35.6359M35.6359 28.8105H35.628M35.6359 28.8105H35.628M35.628 28.8105H35.6201M35.628 28.8105H35.6201M35.6201 28.8105H35.6122M35.6201 28.8105H35.6122M35.6122 28.8105H35.6043M35.6122 28.8105H35.6043M35.6043 28.8105H35.5965M35.6043 28.8105H35.5965M35.5965 28.8105H35.5887M35.5965 28.8105H35.5887M35.5887 28.8105H35.5808M35.5887 28.8105H35.5808M35.5808 28.8105H35.573M35.5808 28.8105H35.573M35.573 28.8105H35.5653M35.573 28.8105H35.5653M35.5653 28.8105H35.5575M35.5653 28.8105H35.5575M35.5575 28.8105H35.5497M35.5575 28.8105H35.5497M35.5497 28.8105H35.542M35.5497 28.8105H35.542M35.542 28.8105H35.5343M35.542 28.8105H35.5343M35.5343 28.8105H35.5266M35.5343 28.8105H35.5266M35.5266 28.8105H35.5189M35.5266 28.8105H35.5189M35.5189 28.8105H35.5112M35.5189 28.8105H35.5112M35.5112 28.8105H35.5036M35.5112 28.8105H35.5036M35.5036 28.8105H35.496M35.5036 28.8105H35.496M35.496 28.8105H35.4884M35.496 28.8105H35.4884M35.4884 28.8105H35.4808M35.4884 28.8105H35.4808M35.4808 28.8105H35.4732M35.4808 28.8105H35.4732M35.4732 28.8105H35.4657M35.4732 28.8105H35.4657M35.4657 28.8105H35.4581M35.4657 28.8105H35.4581M35.4581 28.8105H35.4506M35.4581 28.8105H35.4506M35.4506 28.8105H35.4431M35.4506 28.8105H35.4431M35.4431 28.8105H35.4356M35.4431 28.8105H35.4356M35.4356 28.8105H35.4282M35.4356 28.8105H35.4282M35.4282 28.8105H35.4208M35.4282 28.8105H35.4208M35.4208 28.8105H35.4134M35.4208 28.8105H35.4134M35.4134 28.8105H35.406M35.4134 28.8105H35.406M35.406 28.8105H35.3986M35.406 28.8105H35.3986M35.3986 28.8105H35.3913M35.3986 28.8105H35.3913M35.3913 28.8105H35.3839M35.3913 28.8105H35.3839M35.3839 28.8105H35.3766M35.3839 28.8105H35.3766M35.3766 28.8105H35.3694M35.3766 28.8105H35.3694M35.3694 28.8105H35.3621M35.3694 28.8105H35.3621M35.3621 28.8105H35.3549M35.3621 28.8105H35.3549M35.3549 28.8105H35.3477M35.3549 28.8105H35.3477M35.3477 28.8105H35.3405M35.3477 28.8105H35.3405M35.3405 28.8105H35.3333M35.3405 28.8105H35.3333M35.3333 28.8105H35.3262M35.3333 28.8105H35.3262M35.3262 28.8105H35.3191M35.3262 28.8105H35.3191M35.3191 28.8105H35.312M35.3191 28.8105H35.312M35.312 28.8105H35.3049M35.312 28.8105H35.3049M35.3049 28.8105H35.2979M35.3049 28.8105H35.2979M35.2979 28.8105H35.2909M35.2979 28.8105H35.2909M35.2909 28.8105H35.2839M35.2909 28.8105H35.2839M35.2839 28.8105H35.2769M35.2839 28.8105H35.2769M35.2769 28.8105H35.27M35.2769 28.8105H35.27M35.27 28.8105H35.2631M35.27 28.8105H35.2631M35.2631 28.8105H35.2562M35.2631 28.8105H35.2562M35.2562 28.8105H35.2493M35.2562 28.8105H35.2493M35.2493 28.8105H35.2425M35.2493 28.8105H35.2425M35.2425 28.8105H35.2357M35.2425 28.8105H35.2357M35.2357 28.8105H35.2289M35.2357 28.8105H35.2289M35.2289 28.8105H35.2222M35.2289 28.8105H35.2222M35.2222 28.8105H35.2155M35.2222 28.8105H35.2155M35.2155 28.8105H35.2088M35.2155 28.8105H35.2088M35.2088 28.8105H35.2021M35.2088 28.8105H35.2021M35.2021 28.8105H35.1955M35.2021 28.8105H35.1955M35.1955 28.8105H35.1889M35.1955 28.8105H35.1889M35.1889 28.8105H35.1823M35.1889 28.8105H35.1823M35.1823 28.8105H35.1758M35.1823 28.8105H35.1758M35.1758 28.8105H35.1693M35.1758 28.8105H35.1693M35.1693 28.8105H35.1628M35.1693 28.8105H35.1628M35.1628 28.8105H35.1564M35.1628 28.8105H35.1564M35.1564 28.8105H35.1499M35.1564 28.8105H35.1499M35.1499 28.8105H35.1435M35.1499 28.8105H35.1435M35.1435 28.8105H35.1372M35.1435 28.8105H35.1372M35.1372 28.8105H35.1309M35.1372 28.8105H35.1309M35.1309 28.8105H35.1246M35.1309 28.8105H35.1246M35.1246 28.8105H35.1183M35.1246 28.8105H35.1183M35.1183 28.8105H35.1121M35.1183 28.8105H35.1121M35.1121 28.8105H35.1059M35.1121 28.8105H35.1059M35.1059 28.8105H35.0997M35.1059 28.8105H35.0997M35.0997 28.8105H35.0936M35.0997 28.8105H35.0936M35.0936 28.8105H35.0875M35.0936 28.8105H35.0875M35.0875 28.8105H35.0814M35.0875 28.8105H35.0814M35.0814 28.8105H35.0754M35.0814 28.8105H35.0754M35.0754 28.8105H35.0694M35.0754 28.8105H35.0694M35.0694 28.8105H35.0634M35.0694 28.8105H35.0634M35.0634 28.8105H35.0575M35.0634 28.8105H35.0575M35.0575 28.8105H35.0516M35.0575 28.8105H35.0516M35.0516 28.8105H35.0457M35.0516 28.8105H35.0457M35.0457 28.8105H35.0399M35.0457 28.8105H35.0399M35.0399 28.8105H35.0341M35.0399 28.8105H35.0341M35.0341 28.8105H35.0284M35.0341 28.8105H35.0284M35.0284 28.8105H35.0227M35.0284 28.8105H35.0227M35.0227 28.8105H35.017M35.0227 28.8105H35.017M35.017 28.8105H35.0113M35.017 28.8105H35.0113M35.0113 28.8105H35.0057M35.0113 28.8105H35.0057M35.0057 28.8105H35.0002M35.0057 28.8105H35.0002M35.0002 28.8105H34.9946M35.0002 28.8105H34.9946M34.9946 28.8105H34.9891M34.9946 28.8105H34.9891M34.9891 28.8105H34.9837M34.9891 28.8105H34.9837M34.9837 28.8105H34.9783M34.9837 28.8105H34.9783M34.9783 28.8105H34.9729M34.9783 28.8105H34.9729M34.9729 28.8105H34.9675M34.9729 28.8105H34.9675M34.9675 28.8105H34.9622M34.9675 28.8105H34.9622M34.9622 28.8105H34.957M34.9622 28.8105H34.957M34.957 28.8105H34.9517M34.957 28.8105H34.9517M34.9517 28.8105H34.9466M34.9517 28.8105H34.9466M34.9466 28.8105H34.9414M34.9466 28.8105H34.9414M34.9414 28.8105H34.9363M34.9414 28.8105H34.9363M34.9363 28.8105H34.9312M34.9363 28.8105H34.9312M34.9312 28.8105H34.9262M34.9312 28.8105H34.9262M34.9262 28.8105H34.9212M34.9262 28.8105H34.9212M34.9212 28.8105H34.9163M34.9212 28.8105H34.9163M34.9163 28.8105H34.9114M34.9163 28.8105H34.9114M34.9114 28.8105H34.9065M34.9114 28.8105H34.9065M34.9065 28.8105H34.9017M34.9065 28.8105H34.9017M34.9017 28.8105H34.8969M34.9017 28.8105H34.8969M34.8969 28.8105H34.8922M34.8969 28.8105H34.8922M34.8922 28.8105H34.8875M34.8922 28.8105H34.8875M34.8875 28.8105H34.8829M34.8875 28.8105H34.8829M34.8829 28.8105H34.8783M34.8829 28.8105H34.8783M34.8783 28.8105H34.8737M34.8783 28.8105H34.8737M34.8737 28.8105H34.8692M34.8737 28.8105H34.8692M34.8692 28.8105H34.8647M34.8692 28.8105H34.8647M34.8647 28.8105H34.8603M34.8647 28.8105H34.8603M34.8603 28.8105H34.8559M34.8603 28.8105H34.8559M34.8559 28.8105H34.8516M34.8559 28.8105H34.8516M34.8516 28.8105H34.8473M34.8516 28.8105H34.8473M34.8473 28.8105H34.843M34.8473 28.8105H34.843M34.843 28.8105H34.8388M34.843 28.8105H34.8388M34.8388 28.8105H34.8347M34.8388 28.8105H34.8347M34.8347 28.8105H34.8305M34.8347 28.8105H34.8305M34.8305 28.8105H34.8265M34.8305 28.8105H34.8265M34.8265 28.8105H34.8225M34.8265 28.8105H34.8225M34.8225 28.8105H34.8185M34.8225 28.8105H34.8185M34.8185 28.8105H34.8146M34.8185 28.8105H34.8146M34.8146 28.8105H34.8107M34.8146 28.8105H34.8107M34.8107 28.8105H34.8068M34.8107 28.8105H34.8068M34.8068 28.8105H34.8031M34.8068 28.8105H34.8031M34.8031 28.8105H34.7993M34.8031 28.8105H34.7993M34.7993 28.8105H34.7956M34.7993 28.8105H34.7956M34.7956 28.8105H34.792M34.7956 28.8105H34.792M34.792 28.8105H34.7884M34.792 28.8105H34.7884M34.7884 28.8105H34.7849M34.7884 28.8105H34.7849M34.7849 28.8105H34.7814M34.7849 28.8105H34.7814M34.7814 28.8105H34.7779M34.7814 28.8105H34.7779M34.7779 28.8105H34.7745M34.7779 28.8105H34.7745M34.7745 28.8105H34.7712M34.7745 28.8105H34.7712M34.7712 28.8105H34.7679M34.7712 28.8105H34.7679M34.7679 28.8105H34.7646M34.7679 28.8105H34.7646M34.7646 28.8105H34.7614M34.7646 28.8105H34.7614M34.7614 28.8105H34.7583M34.7614 28.8105H34.7583M34.7583 28.8105H34.7552M34.7583 28.8105H34.7552M34.7552 28.8105H34.7522M34.7552 28.8105H34.7522M34.7522 28.8105H34.7492M34.7522 28.8105H34.7492M34.7492 28.8105H34.7463M34.7492 28.8105H34.7463M34.7463 28.8105H34.7434M34.7463 28.8105H34.7434M34.7434 28.8105H34.7405M34.7434 28.8105H34.7405M34.7405 28.8105H34.7378M34.7405 28.8105H34.7378M34.7378 28.8105H34.735M34.7378 28.8105H34.735M34.735 28.8105H34.7324M34.735 28.8105H34.7324M34.7324 28.8105H34.7298M34.7324 28.8105H34.7298M34.7298 28.8105H34.7272M34.7298 28.8105H34.7272M34.7272 28.8105H34.7247M34.7272 28.8105H34.7247M34.7247 28.8105H34.7222M34.7247 28.8105H34.7222M34.7222 28.8105H34.7198M34.7222 28.8105H34.7198M34.7198 28.8105H34.7175M34.7198 28.8105H34.7175M34.7175 28.8105H34.7152M34.7175 28.8105H34.7152M34.7152 28.8105H34.7129M34.7152 28.8105H34.7129M34.7129 28.8105H34.7108M34.7129 28.8105H34.7108M34.7108 28.8105H34.7086M34.7108 28.8105H34.7086M34.7086 28.8105H34.7066M34.7086 28.8105H34.7066M34.7066 28.8105H34.7046M34.7066 28.8105H34.7046M34.7046 28.8105H34.7026M34.7046 28.8105H34.7026M34.7026 28.8105H34.7007M34.7026 28.8105H34.7007M34.7007 28.8105H34.6989M34.7007 28.8105H34.6989M34.6989 28.8105H34.6971M34.6989 28.8105H34.6971M34.6971 28.8105H34.6953M34.6971 28.8105H34.6953M34.6953 28.8105H34.6937M34.6953 28.8105H34.6937M34.6937 28.8105H34.6921M34.6937 28.8105H34.6921M34.6921 28.8105H34.6905M34.6921 28.8105H34.6905M34.6905 28.8105H34.689M34.6905 28.8105H34.689M34.689 28.8105H34.6876M34.689 28.8105H34.6876M34.6876 28.8105H34.6862M34.6876 28.8105H34.6862M34.6862 28.8105H34.6849M34.6862 28.8105H34.6849M34.6849 28.8105H34.6836M34.6849 28.8105H34.6836M34.6836 28.8105H34.6824M34.6836 28.8105H34.6824M34.6824 28.8105H34.6813M34.6824 28.8105H34.6813M34.6813 28.8105H34.6802M34.6813 28.8105H34.6802M34.6802 28.8105H34.6792M34.6802 28.8105H34.6792M34.6792 28.8105H34.6782M34.6792 28.8105H34.6782M34.6782 28.8105H34.6774M34.6782 28.8105H34.6774M34.6774 28.8105H34.6765M34.6774 28.8105H34.6765M34.6765 28.8105H34.6757M34.6765 28.8105H34.6757M34.6757 28.8105H34.675M34.6757 28.8105H34.675M34.675 28.8105H34.6744M34.675 28.8105H34.6744M34.6744 28.8105H34.6738M34.6744 28.8105H34.6738M34.6738 28.8105H34.6733M34.6738 28.8105H34.6733M34.6733 28.8105H34.6728M34.6733 28.8105H34.6728M34.6728 28.8105H34.6724M34.6728 28.8105H34.6724M34.6724 28.8105H34.6721M34.6724 28.8105H34.6721M34.6721 28.8105H34.672H34.6721ZM37.504 25.6425H32.3673C33.9325 23.3145 33.8577 20.997 33.8149 19.671C33.8045 19.3488 33.796 19.0851 33.8134 18.894L33.814 18.8941V18.8805V18.8325C33.814 17.4577 32.7428 16.3305 31.36 16.3305C30.5153 16.3305 29.9458 16.6932 29.5255 17.2345C29.1132 17.7654 28.842 18.4719 28.5799 19.1629C27.9577 20.7901 27.1591 22.8042 24.5268 24.0734L24.5268 24.0733L24.522 24.0758L23.0042 24.8769C22.9315 24.3352 22.4648 23.9145 21.904 23.9145H18.88C17.4531 23.9145 16.33 25.0376 16.33 26.4645V36.7845C16.33 38.2113 17.4531 39.3345 18.88 39.3345H21.904C22.4675 39.3345 22.9359 38.9097 23.0052 38.3643C23.3435 38.4458 23.6571 38.5268 23.9544 38.6037L23.9793 38.6101C24.3167 38.6974 24.6339 38.7794 24.94 38.8501C25.0393 38.8762 25.1373 38.9021 25.234 38.9277C26.9105 39.3704 28.2282 39.7185 30.064 39.7185H35.152C36.3411 39.7185 37.318 38.737 37.318 37.5045C37.318 37.065 37.2042 36.657 36.9719 36.3178C37.6995 35.9608 38.182 35.1908 38.182 34.3365C38.182 33.897 38.0682 33.489 37.8359 33.1498C38.5635 32.7928 39.046 32.0228 39.046 31.1685C39.046 30.6648 38.8828 30.2441 38.6354 29.8745C39.2754 29.4866 39.718 28.7643 39.718 27.9525H39.7181L39.7179 27.9467C39.6672 26.6281 38.6981 25.6425 37.504 25.6425ZM18.88 37.9785H18.73V38.0185C18.0722 37.9483 17.59 37.4187 17.59 36.7365V26.4165C17.59 25.6833 18.1468 25.1265 18.88 25.1265H21.754V25.8405V37.5045V37.9785H18.88ZM25.0887 25.2558L25.0902 25.2551L25.024 25.1205L25.0887 25.2558ZM34.6714 28.8105C34.4935 28.8106 34.3337 28.8706 34.2179 28.9864C34.102 29.1023 34.042 29.2624 34.042 29.4405C34.042 29.6186 34.102 29.7786 34.2179 29.8945C34.3338 30.0105 34.4939 30.0705 34.672 30.0705H36.832C37.3208 30.0705 37.738 30.4789 37.738 31.0245C37.738 31.57 37.3208 31.9785 36.832 31.9785H36.83H36.8279H36.8258H36.8237H36.8214H36.8192H36.8168H36.8145H36.812H36.8095H36.807H36.8044H36.8017H36.799H36.7963H36.7935H36.7906H36.7877H36.7847H36.7817H36.7787H36.7755H36.7724H36.7691H36.7659H36.7626H36.7592H36.7558H36.7523H36.7488H36.7452H36.7416H36.7379H36.7342H36.7305H36.7267H36.7228H36.7189H36.7149H36.7109H36.7069H36.7028H36.6987H36.6945H36.6903H36.686H36.6817H36.6773H36.6729H36.6685H36.664H36.6594H36.6549H36.6502H36.6456H36.6408H36.6361H36.6313H36.6265H36.6216H36.6167H36.6117H36.6067H36.6016H36.5965H36.5914H36.5863H36.581H36.5758H36.5705H36.5652H36.5598H36.5544H36.549H36.5435H36.538H36.5324H36.5268H36.5212H36.5155H36.5098H36.5041H36.4983H36.4925H36.4866H36.4807H36.4748H36.4688H36.4628H36.4568H36.4507H36.4446H36.4385H36.4323H36.4261H36.4199H36.4136H36.4073H36.401H36.3947H36.3883H36.3818H36.3754H36.3689H36.3623H36.3558H36.3492H36.3426H36.3359H36.3293H36.3226H36.3158H36.3091H36.3023H36.2954H36.2886H36.2817H36.2748H36.2679H36.2609H36.2539H36.2469H36.2399H36.2328H36.2257H36.2186H36.2114H36.2042H36.197H36.1898H36.1825H36.1753H36.168H36.1606H36.1533H36.1459H36.1385H36.1311H36.1237H36.1162H36.1087H36.1012H36.0936H36.0861H36.0785H36.0709H36.0633H36.0557H36.048H36.0403H36.0326H36.0249H36.0171H36.0094H36.0016H35.9938H35.986H35.9781H35.9703H35.9624H35.9545H35.9466H35.9387H35.9307H35.9227H35.9148H35.9068H35.8988H35.8907H35.8827H35.8746H35.8666H35.8585H35.8504H35.8422H35.8341H35.826H35.8178H35.8096H35.8014H35.7932H35.785H35.7768H35.7685H35.7603H35.752H35.7437H35.7355H35.7272H35.7189H35.7105H35.7022H35.6939H35.6855H35.6771H35.6688H35.6604H35.652H35.6436H35.6352H35.6268H35.6184H35.6099H35.6015H35.593H35.5846H35.5761H35.5677H35.5592H35.5507H35.5422H35.5337H35.5252H35.5167H35.5082H35.4997H35.4912H35.4827H35.4741H35.4656H35.4571H35.4485H35.44H35.4315H35.4229H35.4144H35.4058H35.3973H35.3887H35.3802H35.3716H35.363H35.3545H35.3459H35.3374H35.3288H35.3202H35.3117H35.3031H35.2946H35.286H35.2775H35.2689H35.2604H35.2518H35.2433H35.2347H35.2262H35.2176H35.2091H35.2006H35.192H35.1835H35.175H35.1665H35.158H35.1495H35.141H35.1325H35.124H35.1155H35.107H35.0986H35.0901H35.0816H35.0732H35.0647H35.0563H35.0479H35.0395H35.0311H35.0226H35.0143H35.0059H34.9975H34.9891H34.9808H34.9724H34.9641H34.9558H34.9475H34.9391H34.9309H34.9226H34.9143H34.906H34.8978H34.8896H34.8813H34.8731H34.8649H34.8568H34.8486H34.8404H34.8323H34.8242H34.8161H34.808H34.7999H34.7918H34.7838H34.7757H34.7677H34.7597H34.7517H34.7437H34.7358H34.7278H34.7199H34.712H34.7041H34.6963H34.6884H34.6806H34.6728H34.665H34.6572H34.6495H34.6417H34.634H34.6263H34.6186H34.611H34.6034H34.5958H34.5882H34.5806H34.573H34.5655H34.558H34.5505H34.5431H34.5357H34.5282H34.5209H34.5135H34.5062H34.4988H34.4916H34.4843H34.4771H34.4698H34.4627H34.4555H34.4483H34.4412H34.4342H34.4271H34.4201H34.4131H34.4061H34.3991H34.3922H34.3853H34.3785H34.3716H34.3648H34.358H34.3513H34.3446H34.3379H34.3312H34.3246H34.318H34.3114H34.3049H34.2984H34.2919H34.2854H34.279H34.2726H34.2663H34.26H34.2537H34.2474H34.2412H34.2351H34.2289H34.2228H34.2167H34.2107H34.2046H34.1987H34.1927H34.1868H34.181H34.1751H34.1693H34.1636H34.1578H34.1521H34.1465H34.1409H34.1353H34.1298H34.1243H34.1188H34.1134H34.108H34.1026H34.0973H34.0921H34.0868H34.0817H34.0765H34.0714H34.0663H34.0613H34.0563H34.0514H34.0465H34.0416H34.0368H34.032H34.0273H34.0226H34.018H34.0134H34.0088H34.0043H33.9998H33.9954H33.991H33.9867H33.9824H33.9781H33.9739H33.9698H33.9656H33.9616H33.9576H33.9536H33.9497H33.9458H33.942H33.9382H33.9344H33.9308H33.9271H33.9235H33.92H33.9165H33.913H33.9097H33.9063H33.903H33.8998H33.8966H33.8934H33.8903H33.8873H33.8843H33.8814H33.8785H33.8756H33.8729H33.8701H33.8675H33.8648H33.8623H33.8598H33.8573H33.8549H33.8525H33.8502H33.848H33.8458H33.8437H33.8416H33.8396H33.8376H33.8357H33.8338H33.832H33.8303H33.8286H33.827H33.8254H33.8239H33.8224H33.821H33.8197H33.8184H33.8172H33.816H33.8149H33.8139H33.8129H33.812H33.8111H33.8103H33.8096H33.8089H33.8083H33.808H33.8077H33.8074H33.8073H33.807H33.8068H33.8066H33.8065H33.8063H33.8062H33.806H33.8059H33.8058H33.8057H33.8056H33.8056L34.6714 28.8105ZM32.9443 35.1465H32.944L33.8056 31.9785C33.6284 31.979 33.4693 32.039 33.3539 32.1544C33.238 32.2703 33.178 32.4304 33.178 32.6085C33.178 32.7866 33.238 32.9466 33.3539 33.0625C33.4698 33.1785 33.6299 33.2385 33.808 33.2385H33.8088H33.8098H33.8107H33.8117H33.8127H33.8138H33.815H33.8161H33.8173H33.8186H33.8199H33.8212H33.8226H33.824H33.8255H33.827H33.8285H33.8301H33.8317H33.8334H33.8351H33.8369H33.8386H33.8405H33.8423H33.8442H33.8462H33.8482H33.8502H33.8523H33.8544H33.8565H33.8587H33.8609H33.8631H33.8654H33.8678H33.8701H33.8725H33.875H33.8774H33.88H33.8825H33.8851H33.8877H33.8904H33.8931H33.8958H33.8985H33.9013H33.9042H33.907H33.9099H33.9129H33.9159H33.9189H33.9219H33.925H33.9281H33.9312H33.9344H33.9376H33.9408H33.9441H33.9474H33.9507H33.9541H33.9575H33.9609H33.9644H33.9679H33.9714H33.975H33.9786H33.9822H33.9858H33.9895H33.9932H33.997H34.0007H34.0045H34.0083H34.0122H34.0161H34.02H34.0239H34.0279H34.0319H34.0359H34.04H34.0441H34.0482H34.0523H34.0565H34.0607H34.0649H34.0691H34.0734H34.0777H34.082H34.0864H34.0908H34.0952H34.0996H34.104H34.1085H34.113H34.1175H34.1221H34.1267H34.1313H34.1359H34.1405H34.1452H34.1499H34.1546H34.1594H34.1641H34.1689H34.1737H34.1786H34.1834H34.1883H34.1932H34.1981H34.203H34.208H34.213H34.218H34.223H34.228H34.2331H34.2382H34.2433H34.2484H34.2536H34.2587H34.2639H34.2691H34.2743H34.2796H34.2848H34.2901H34.2954H34.3007H34.306H34.3114H34.3168H34.3221H34.3275H34.333H34.3384H34.3438H34.3493H34.3548H34.3603H34.3658H34.3713H34.3769H34.3824H34.388H34.3936H34.3992H34.4048H34.4105H34.4161H34.4218H34.4274H34.4331H34.4388H34.4446H34.4503H34.456H34.4618H34.4675H34.4733H34.4791H34.4849H34.4907H34.4966H34.5024H34.5083H34.5141H34.52H34.5259H34.5318H34.5377H34.5436H34.5495H34.5555H34.5614H34.5674H34.5733H34.5793H34.5853H34.5913H34.5973H34.6033H34.6093H34.6153H34.6213H34.6274H34.6334H34.6395H34.6455H34.6516H34.6577H34.6638H34.6699H34.676H34.6821H34.6882H34.6943H34.7004H34.7065H34.7126H34.7188H34.7249H34.7311H34.7372H34.7434H34.7495H34.7557H34.7618H34.768H34.7742H34.7803H34.7865H34.7927H34.7989H34.8051H34.8113H34.8175H34.8236H34.8298H34.836H34.8422H34.8484H34.8546H34.8608H34.867H34.8732H34.8794H34.8856H34.8918H34.898H34.9042H34.9104H34.9166H34.9228H34.929H34.9352H34.9414H34.9476H34.9538H34.96H34.9662H34.9723H34.9785H34.9847H34.9909H34.9971H35.0032H35.0094H35.0156H35.0217H35.0279H35.034H35.0402H35.0463H35.0524H35.0586H35.0647H35.0708H35.0769H35.083H35.0892H35.0953H35.1013H35.1074H35.1135H35.1196H35.1257H35.1317H35.1378H35.1438H35.1498H35.1559H35.1619H35.1679H35.1739H35.1799H35.1859H35.1919H35.1978H35.2038H35.2097H35.2157H35.2216H35.2275H35.2335H35.2394H35.2452H35.2511H35.257H35.2629H35.2687H35.2745H35.2804H35.2862H35.292H35.2978H35.3035H35.3093H35.315H35.3208H35.3265H35.3322H35.3379H35.3436H35.3493H35.3549H35.3606H35.3662H35.3718H35.3774H35.383H35.3886H35.3941H35.3997H35.4052H35.4107H35.4162H35.4217H35.4271H35.4326H35.438H35.4434H35.4488H35.4542H35.4595H35.4649H35.4702H35.4755H35.4808H35.4861H35.4913H35.4965H35.5018H35.5069H35.5121H35.5173H35.5224H35.5275H35.5326H35.5377H35.5428H35.5478H35.5528H35.5578H35.5628H35.5677H35.5727H35.5776H35.5825H35.5873H35.5922H35.597H35.6018H35.6066H35.6113H35.6161H35.6208H35.6255H35.6301H35.6347H35.6394H35.644H35.6485H35.6531H35.6576H35.6621H35.6665H35.671H35.6754H35.6798H35.6842H35.6885H35.6928H35.6971H35.7014H35.7056H35.7098H35.714H35.7181H35.7223H35.7264H35.7304H35.7345H35.7385H35.7425H35.7464H35.7504H35.7543H35.7582H35.762H35.7658H35.7696H35.7734H35.7771H35.7808H35.7844H35.7881H35.7917H35.7953H35.7988H35.8023H35.8058H35.8093H35.8127H35.8161H35.8194H35.8227H35.826H35.8293H35.8325H35.8357H35.8389H35.842H35.8451H35.8481H35.8512H35.8542H35.8571H35.86H35.8629H35.8658H35.8686H35.8714H35.8741H35.8769H35.8795H35.8822H35.8848H35.8874H35.8899H35.8924H35.8949H35.8973H35.8997H35.902H35.9043H35.9066H35.9088H35.911H35.9132H35.9153H35.9174H35.9195H35.9215H35.9234H35.9254H35.9273H35.9291H35.9309H35.9327H35.9344H35.9361H35.9378H35.9394H35.941H35.9425H35.944H35.9454H35.9468H35.9482H35.9495H35.9508H35.952H35.9532H35.9544H35.9555H35.9565H35.9576H35.9585H35.9595H35.9604H35.9612H35.962H35.9628H35.9635H35.9642H35.9648H35.9654H35.9659H35.9664H35.9669H35.9673H35.9676H35.9679H35.968C36.4568 33.2385 36.874 33.6469 36.874 34.1925C36.874 34.738 36.4568 35.1465 35.968 35.1465H35.966H35.9639H35.9618H35.9597H35.9574H35.9552H35.9528H35.9505H35.948H35.9455H35.943H35.9404H35.9377H35.935H35.9323H35.9295H35.9266H35.9237H35.9207H35.9177H35.9146H35.9115H35.9084H35.9051H35.9019H35.8986H35.8952H35.8918H35.8883H35.8848H35.8812H35.8776H35.8739H35.8702H35.8665H35.8626H35.8588H35.8549H35.8509H35.8469H35.8429H35.8388H35.8347H35.8305H35.8263H35.822H35.8177H35.8133H35.8089H35.8045H35.8H35.7954H35.7909H35.7862H35.7816H35.7768H35.7721H35.7673H35.7625H35.7576H35.7527H35.7477H35.7427H35.7376H35.7325H35.7274H35.7223H35.717H35.7118H35.7065H35.7012H35.6958H35.6904H35.685H35.6795H35.674H35.6684H35.6628H35.6572H35.6515H35.6458H35.6401H35.6343H35.6285H35.6226H35.6167H35.6108H35.6048H35.5988H35.5928H35.5867H35.5806H35.5745H35.5683H35.5621H35.5559H35.5496H35.5433H35.537H35.5306H35.5243H35.5178H35.5114H35.5049H35.4983H35.4918H35.4852H35.4786H35.4719H35.4653H35.4586H35.4518H35.4451H35.4383H35.4314H35.4246H35.4177H35.4108H35.4039H35.3969H35.3899H35.3829H35.3759H35.3688H35.3617H35.3546H35.3474H35.3402H35.333H35.3258H35.3185H35.3113H35.304H35.2966H35.2893H35.2819H35.2745H35.2671H35.2597H35.2522H35.2447H35.2372H35.2296H35.2221H35.2145H35.2069H35.1993H35.1916H35.184H35.1763H35.1686H35.1609H35.1531H35.1454H35.1376H35.1298H35.122H35.1141H35.1063H35.0984H35.0905H35.0826H35.0747H35.0667H35.0587H35.0508H35.0428H35.0348H35.0267H35.0187H35.0106H35.0026H34.9945H34.9864H34.9782H34.9701H34.962H34.9538H34.9456H34.9374H34.9292H34.921H34.9128H34.9045H34.8963H34.888H34.8797H34.8715H34.8632H34.8549H34.8465H34.8382H34.8299H34.8215H34.8131H34.8048H34.7964H34.788H34.7796H34.7712H34.7628H34.7544H34.7459H34.7375H34.729H34.7206H34.7121H34.7037H34.6952H34.6867H34.6782H34.6697H34.6612H34.6527H34.6442H34.6357H34.6272H34.6187H34.6101H34.6016H34.5931H34.5845H34.576H34.5675H34.5589H34.5504H34.5418H34.5333H34.5247H34.5162H34.5076H34.499H34.4905H34.4819H34.4734H34.4648H34.4562H34.4477H34.4391H34.4306H34.422H34.4135H34.4049H34.3964H34.3878H34.3793H34.3707H34.3622H34.3536H34.3451H34.3366H34.328H34.3195H34.311H34.3025H34.294H34.2855H34.277H34.2685H34.26H34.2515H34.243H34.2346H34.2261H34.2176H34.2092H34.2007H34.1923H34.1839H34.1755H34.1671H34.1586H34.1503H34.1419H34.1335H34.1251H34.1168H34.1084H34.1001H34.0918H34.0835H34.0751H34.0669H34.0586H34.0503H34.042H34.0338H34.0256H34.0173H34.0091H34.0009H33.9928H33.9846H33.9764H33.9683H33.9602H33.9521H33.944H33.9359H33.9278H33.9198H33.9117H33.9037H33.8957H33.8877H33.8797H33.8718H33.8638H33.8559H33.848H33.8401H33.8323H33.8244H33.8166H33.8088H33.801H33.7932H33.7855H33.7777H33.77H33.7623H33.7546H33.747H33.7394H33.7318H33.7242H33.7166H33.709H33.7015H33.694H33.6865H33.6791H33.6717H33.6642H33.6569H33.6495H33.6422H33.6348H33.6276H33.6203H33.6131H33.6058H33.5986H33.5915H33.5843H33.5772H33.5702H33.5631H33.5561H33.5491H33.5421H33.5351H33.5282H33.5213H33.5145H33.5076H33.5008H33.494H33.4873H33.4806H33.4739H33.4672H33.4606H33.454H33.4474H33.4409H33.4344H33.4279H33.4214H33.415H33.4086H33.4023H33.396H33.3897H33.3834H33.3772H33.3711H33.3649H33.3588H33.3527H33.3467H33.3406H33.3347H33.3287H33.3228H33.317H33.3111H33.3053H33.2996H33.2938H33.2881H33.2825H33.2769H33.2713H33.2658H33.2603H33.2548H33.2494H33.244H33.2386H33.2333H33.2281H33.2228H33.2177H33.2125H33.2074H33.2023H33.1973H33.1923H33.1874H33.1825H33.1776H33.1728H33.168H33.1633H33.1586H33.154H33.1494H33.1448H33.1403H33.1358H33.1314H33.127H33.1227H33.1184H33.1141H33.1099H33.1058H33.1016H33.0976H33.0936H33.0896H33.0857H33.0818H33.078H33.0742H33.0704H33.0668H33.0631H33.0595H33.056H33.0525H33.049H33.0457H33.0423H33.039H33.0358H33.0326H33.0294H33.0263H33.0233H33.0203H33.0174H33.0145H33.0117H33.0089H33.0061H33.0035H33.0008H32.9983H32.9958H32.9933H32.9909H32.9885H32.9862H32.984H32.9818H32.9797H32.9776H32.9756H32.9736H32.9717H32.9698H32.968H32.9663H32.9646H32.963H32.9614H32.9599H32.9584H32.957H32.9557H32.9544H32.9532H32.952H32.9509H32.9499H32.9489H32.948H32.9471H32.9463H32.9456H32.9449H32.9443Z" fill="white" stroke="white" stroke-width="0.3"/>
</g>
<defs>
<linearGradient id="paint0_linear_7952_207" x1="7.74856" y1="48.3309" x2="48.3842" y2="7.76856" gradientUnits="userSpaceOnUse">
<stop offset="2.85827e-07" stop-color="#29AAE1"/>
<stop offset="0.5052" stop-color="#F68722"/>
<stop offset="1" stop-color="#F9CD14"/>
</linearGradient>
<clipPath id="clip0_7952_207">
<rect width="24" height="24" fill="white" transform="translate(16 16)"/>
</clipPath>
</defs>
</svg>
